solid OpenSCAD_Model
  facet normal -0.15643 -0.987689 0
    outer loop
      vertex 48 52.25 -15
      vertex 49.3133 52.042 -12
      vertex 48 52.25 -12
    endloop
  endfacet
  facet normal -0.15643 -0.987689 -0
    outer loop
      vertex 49.3133 52.042 -12
      vertex 48 52.25 -15
      vertex 49.3133 52.042 -15
    endloop
  endfacet
  facet normal -0.891002 -0.453999 0
    outer loop
      vertex 52.042 49.3133 -15
      vertex 51.4383 50.4981 -12
      vertex 51.4383 50.4981 -15
    endloop
  endfacet
  facet normal -0.891002 -0.453999 0
    outer loop
      vertex 51.4383 50.4981 -12
      vertex 52.042 49.3133 -15
      vertex 52.042 49.3133 -12
    endloop
  endfacet
  facet normal -0.987689 -0.15643 0
    outer loop
      vertex 52.25 48 -15
      vertex 52.042 49.3133 -12
      vertex 52.042 49.3133 -15
    endloop
  endfacet
  facet normal -0.987689 -0.15643 0
    outer loop
      vertex 52.042 49.3133 -12
      vertex 52.25 48 -15
      vertex 52.25 48 -12
    endloop
  endfacet
  facet normal -0.707107 -0.707107 0
    outer loop
      vertex 51.4383 50.4981 -15
      vertex 50.4981 51.4383 -12
      vertex 50.4981 51.4383 -15
    endloop
  endfacet
  facet normal -0.707107 -0.707107 0
    outer loop
      vertex 50.4981 51.4383 -12
      vertex 51.4383 50.4981 -15
      vertex 51.4383 50.4981 -12
    endloop
  endfacet
  facet normal -0.891002 0.453999 0
    outer loop
      vertex 51.4383 45.5019 -15
      vertex 52.042 46.6867 -12
      vertex 52.042 46.6867 -15
    endloop
  endfacet
  facet normal -0.891002 0.453999 0
    outer loop
      vertex 52.042 46.6867 -12
      vertex 51.4383 45.5019 -15
      vertex 51.4383 45.5019 -12
    endloop
  endfacet
  facet normal -0.453999 0.891002 0
    outer loop
      vertex 50.4981 44.5617 -15
      vertex 49.3133 43.958 -12
      vertex 50.4981 44.5617 -12
    endloop
  endfacet
  facet normal -0.453999 0.891002 0
    outer loop
      vertex 49.3133 43.958 -12
      vertex 50.4981 44.5617 -15
      vertex 49.3133 43.958 -15
    endloop
  endfacet
  facet normal 0.707107 -0.707107 0
    outer loop
      vertex 44.5617 50.4981 -12
      vertex 45.5019 51.4383 -15
      vertex 45.5019 51.4383 -12
    endloop
  endfacet
  facet normal 0.707107 -0.707107 0
    outer loop
      vertex 45.5019 51.4383 -15
      vertex 44.5617 50.4981 -12
      vertex 44.5617 50.4981 -15
    endloop
  endfacet
  facet normal -0.707107 0.707107 0
    outer loop
      vertex 51.4383 45.5019 -15
      vertex 50.4981 44.5617 -12
      vertex 51.4383 45.5019 -12
    endloop
  endfacet
  facet normal -0.707107 0.707107 0
    outer loop
      vertex 50.4981 44.5617 -12
      vertex 51.4383 45.5019 -15
      vertex 50.4981 44.5617 -15
    endloop
  endfacet
  facet normal 0.453999 0.891002 -0
    outer loop
      vertex 46.6867 43.958 -15
      vertex 45.5019 44.5617 -12
      vertex 46.6867 43.958 -12
    endloop
  endfacet
  facet normal 0.453999 0.891002 0
    outer loop
      vertex 45.5019 44.5617 -12
      vertex 46.6867 43.958 -15
      vertex 45.5019 44.5617 -15
    endloop
  endfacet
  facet normal 0.891002 -0.453999 0
    outer loop
      vertex 43.958 49.3133 -12
      vertex 44.5617 50.4981 -15
      vertex 44.5617 50.4981 -12
    endloop
  endfacet
  facet normal 0.891002 -0.453999 0
    outer loop
      vertex 44.5617 50.4981 -15
      vertex 43.958 49.3133 -12
      vertex 43.958 49.3133 -15
    endloop
  endfacet
  facet normal 0.15643 0.987689 -0
    outer loop
      vertex 48 43.75 -15
      vertex 46.6867 43.958 -12
      vertex 48 43.75 -12
    endloop
  endfacet
  facet normal 0.15643 0.987689 0
    outer loop
      vertex 46.6867 43.958 -12
      vertex 48 43.75 -15
      vertex 46.6867 43.958 -15
    endloop
  endfacet
  facet normal -0.15643 0.987689 0
    outer loop
      vertex 49.3133 43.958 -15
      vertex 48 43.75 -12
      vertex 49.3133 43.958 -12
    endloop
  endfacet
  facet normal -0.15643 0.987689 0
    outer loop
      vertex 48 43.75 -12
      vertex 49.3133 43.958 -15
      vertex 48 43.75 -15
    endloop
  endfacet
  facet normal -0.987689 0.15643 0
    outer loop
      vertex 52.042 46.6867 -15
      vertex 52.25 48 -12
      vertex 52.25 48 -15
    endloop
  endfacet
  facet normal -0.987689 0.15643 0
    outer loop
      vertex 52.25 48 -12
      vertex 52.042 46.6867 -15
      vertex 52.042 46.6867 -12
    endloop
  endfacet
  facet normal 0.15643 -0.987689 0
    outer loop
      vertex 46.6867 52.042 -15
      vertex 48 52.25 -12
      vertex 46.6867 52.042 -12
    endloop
  endfacet
  facet normal 0.15643 -0.987689 0
    outer loop
      vertex 48 52.25 -12
      vertex 46.6867 52.042 -15
      vertex 48 52.25 -15
    endloop
  endfacet
  facet normal 0.707107 0.707107 0
    outer loop
      vertex 45.5019 44.5617 -12
      vertex 44.5617 45.5019 -15
      vertex 44.5617 45.5019 -12
    endloop
  endfacet
  facet normal 0.707107 0.707107 0
    outer loop
      vertex 44.5617 45.5019 -15
      vertex 45.5019 44.5617 -12
      vertex 45.5019 44.5617 -15
    endloop
  endfacet
  facet normal 0.453999 -0.891002 0
    outer loop
      vertex 45.5019 51.4383 -15
      vertex 46.6867 52.042 -12
      vertex 45.5019 51.4383 -12
    endloop
  endfacet
  facet normal 0.453999 -0.891002 0
    outer loop
      vertex 46.6867 52.042 -12
      vertex 45.5019 51.4383 -15
      vertex 46.6867 52.042 -15
    endloop
  endfacet
  facet normal 0.987689 0.15643 0
    outer loop
      vertex 43.958 46.6867 -12
      vertex 43.75 48 -15
      vertex 43.75 48 -12
    endloop
  endfacet
  facet normal 0.987689 0.15643 0
    outer loop
      vertex 43.75 48 -15
      vertex 43.958 46.6867 -12
      vertex 43.958 46.6867 -15
    endloop
  endfacet
  facet normal -0.453999 -0.891002 0
    outer loop
      vertex 49.3133 52.042 -15
      vertex 50.4981 51.4383 -12
      vertex 49.3133 52.042 -12
    endloop
  endfacet
  facet normal -0.453999 -0.891002 -0
    outer loop
      vertex 50.4981 51.4383 -12
      vertex 49.3133 52.042 -15
      vertex 50.4981 51.4383 -15
    endloop
  endfacet
  facet normal 0.891002 0.453999 0
    outer loop
      vertex 44.5617 45.5019 -12
      vertex 43.958 46.6867 -15
      vertex 43.958 46.6867 -12
    endloop
  endfacet
  facet normal 0.891002 0.453999 0
    outer loop
      vertex 43.958 46.6867 -15
      vertex 44.5617 45.5019 -12
      vertex 44.5617 45.5019 -15
    endloop
  endfacet
  facet normal 0.987689 -0.15643 0
    outer loop
      vertex 43.75 48 -12
      vertex 43.958 49.3133 -15
      vertex 43.958 49.3133 -12
    endloop
  endfacet
  facet normal 0.987689 -0.15643 0
    outer loop
      vertex 43.958 49.3133 -15
      vertex 43.75 48 -12
      vertex 43.75 48 -15
    endloop
  endfacet
  facet normal -0.15643 -0.987689 0
    outer loop
      vertex 82 52.25 -15
      vertex 83.3133 52.042 -12
      vertex 82 52.25 -12
    endloop
  endfacet
  facet normal -0.15643 -0.987689 -0
    outer loop
      vertex 83.3133 52.042 -12
      vertex 82 52.25 -15
      vertex 83.3133 52.042 -15
    endloop
  endfacet
  facet normal -0.891002 -0.453999 0
    outer loop
      vertex 86.042 49.3133 -15
      vertex 85.4383 50.4981 -12
      vertex 85.4383 50.4981 -15
    endloop
  endfacet
  facet normal -0.891002 -0.453999 0
    outer loop
      vertex 85.4383 50.4981 -12
      vertex 86.042 49.3133 -15
      vertex 86.042 49.3133 -12
    endloop
  endfacet
  facet normal -0.987689 -0.15643 0
    outer loop
      vertex 86.25 48 -15
      vertex 86.042 49.3133 -12
      vertex 86.042 49.3133 -15
    endloop
  endfacet
  facet normal -0.987689 -0.15643 0
    outer loop
      vertex 86.042 49.3133 -12
      vertex 86.25 48 -15
      vertex 86.25 48 -12
    endloop
  endfacet
  facet normal -0.707107 -0.707107 0
    outer loop
      vertex 85.4383 50.4981 -15
      vertex 84.4981 51.4383 -12
      vertex 84.4981 51.4383 -15
    endloop
  endfacet
  facet normal -0.707107 -0.707107 0
    outer loop
      vertex 84.4981 51.4383 -12
      vertex 85.4383 50.4981 -15
      vertex 85.4383 50.4981 -12
    endloop
  endfacet
  facet normal -0.891002 0.453999 0
    outer loop
      vertex 85.4383 45.5019 -15
      vertex 86.042 46.6867 -12
      vertex 86.042 46.6867 -15
    endloop
  endfacet
  facet normal -0.891002 0.453999 0
    outer loop
      vertex 86.042 46.6867 -12
      vertex 85.4383 45.5019 -15
      vertex 85.4383 45.5019 -12
    endloop
  endfacet
  facet normal -0.453999 0.891002 0
    outer loop
      vertex 84.4981 44.5617 -15
      vertex 83.3133 43.958 -12
      vertex 84.4981 44.5617 -12
    endloop
  endfacet
  facet normal -0.453999 0.891002 0
    outer loop
      vertex 83.3133 43.958 -12
      vertex 84.4981 44.5617 -15
      vertex 83.3133 43.958 -15
    endloop
  endfacet
  facet normal 0.707107 -0.707107 0
    outer loop
      vertex 78.5617 50.4981 -12
      vertex 79.5019 51.4383 -15
      vertex 79.5019 51.4383 -12
    endloop
  endfacet
  facet normal 0.707107 -0.707107 0
    outer loop
      vertex 79.5019 51.4383 -15
      vertex 78.5617 50.4981 -12
      vertex 78.5617 50.4981 -15
    endloop
  endfacet
  facet normal -0.707107 0.707107 0
    outer loop
      vertex 85.4383 45.5019 -15
      vertex 84.4981 44.5617 -12
      vertex 85.4383 45.5019 -12
    endloop
  endfacet
  facet normal -0.707107 0.707107 0
    outer loop
      vertex 84.4981 44.5617 -12
      vertex 85.4383 45.5019 -15
      vertex 84.4981 44.5617 -15
    endloop
  endfacet
  facet normal 0.453999 -0.891002 0
    outer loop
      vertex 79.5019 51.4383 -15
      vertex 80.6867 52.042 -12
      vertex 79.5019 51.4383 -12
    endloop
  endfacet
  facet normal 0.453999 -0.891002 0
    outer loop
      vertex 80.6867 52.042 -12
      vertex 79.5019 51.4383 -15
      vertex 80.6867 52.042 -15
    endloop
  endfacet
  facet normal 0.453999 0.891002 -0
    outer loop
      vertex 80.6867 43.958 -15
      vertex 79.5019 44.5617 -12
      vertex 80.6867 43.958 -12
    endloop
  endfacet
  facet normal 0.453999 0.891002 0
    outer loop
      vertex 79.5019 44.5617 -12
      vertex 80.6867 43.958 -15
      vertex 79.5019 44.5617 -15
    endloop
  endfacet
  facet normal 0.891002 -0.453999 0
    outer loop
      vertex 77.958 49.3133 -12
      vertex 78.5617 50.4981 -15
      vertex 78.5617 50.4981 -12
    endloop
  endfacet
  facet normal 0.891002 -0.453999 0
    outer loop
      vertex 78.5617 50.4981 -15
      vertex 77.958 49.3133 -12
      vertex 77.958 49.3133 -15
    endloop
  endfacet
  facet normal 0.15643 0.987689 -0
    outer loop
      vertex 82 43.75 -15
      vertex 80.6867 43.958 -12
      vertex 82 43.75 -12
    endloop
  endfacet
  facet normal 0.15643 0.987689 0
    outer loop
      vertex 80.6867 43.958 -12
      vertex 82 43.75 -15
      vertex 80.6867 43.958 -15
    endloop
  endfacet
  facet normal -0.15643 0.987689 0
    outer loop
      vertex 83.3133 43.958 -15
      vertex 82 43.75 -12
      vertex 83.3133 43.958 -12
    endloop
  endfacet
  facet normal -0.15643 0.987689 0
    outer loop
      vertex 82 43.75 -12
      vertex 83.3133 43.958 -15
      vertex 82 43.75 -15
    endloop
  endfacet
  facet normal -0.987689 0.15643 0
    outer loop
      vertex 86.042 46.6867 -15
      vertex 86.25 48 -12
      vertex 86.25 48 -15
    endloop
  endfacet
  facet normal -0.987689 0.15643 0
    outer loop
      vertex 86.25 48 -12
      vertex 86.042 46.6867 -15
      vertex 86.042 46.6867 -12
    endloop
  endfacet
  facet normal 0.15643 -0.987689 0
    outer loop
      vertex 80.6867 52.042 -15
      vertex 82 52.25 -12
      vertex 80.6867 52.042 -12
    endloop
  endfacet
  facet normal 0.15643 -0.987689 0
    outer loop
      vertex 82 52.25 -12
      vertex 80.6867 52.042 -15
      vertex 82 52.25 -15
    endloop
  endfacet
  facet normal 0.707107 0.707107 -0
    outer loop
      vertex 79.5019 44.5617 -15
      vertex 78.5617 45.5019 -12
      vertex 79.5019 44.5617 -12
    endloop
  endfacet
  facet normal 0.707107 0.707107 0
    outer loop
      vertex 78.5617 45.5019 -12
      vertex 79.5019 44.5617 -15
      vertex 78.5617 45.5019 -15
    endloop
  endfacet
  facet normal 0.987689 0.15643 0
    outer loop
      vertex 77.958 46.6867 -12
      vertex 77.75 48 -15
      vertex 77.75 48 -12
    endloop
  endfacet
  facet normal 0.987689 0.15643 0
    outer loop
      vertex 77.75 48 -15
      vertex 77.958 46.6867 -12
      vertex 77.958 46.6867 -15
    endloop
  endfacet
  facet normal -0.453999 -0.891002 0
    outer loop
      vertex 83.3133 52.042 -15
      vertex 84.4981 51.4383 -12
      vertex 83.3133 52.042 -12
    endloop
  endfacet
  facet normal -0.453999 -0.891002 -0
    outer loop
      vertex 84.4981 51.4383 -12
      vertex 83.3133 52.042 -15
      vertex 84.4981 51.4383 -15
    endloop
  endfacet
  facet normal 0.891002 0.453999 0
    outer loop
      vertex 78.5617 45.5019 -12
      vertex 77.958 46.6867 -15
      vertex 77.958 46.6867 -12
    endloop
  endfacet
  facet normal 0.891002 0.453999 0
    outer loop
      vertex 77.958 46.6867 -15
      vertex 78.5617 45.5019 -12
      vertex 78.5617 45.5019 -15
    endloop
  endfacet
  facet normal 0.987689 -0.15643 0
    outer loop
      vertex 77.75 48 -12
      vertex 77.958 49.3133 -15
      vertex 77.958 49.3133 -12
    endloop
  endfacet
  facet normal 0.987689 -0.15643 0
    outer loop
      vertex 77.958 49.3133 -15
      vertex 77.75 48 -12
      vertex 77.75 48 -15
    endloop
  endfacet
  facet normal -0.15643 -0.987689 0
    outer loop
      vertex 48 113.25 -15
      vertex 49.3133 113.042 -12
      vertex 48 113.25 -12
    endloop
  endfacet
  facet normal -0.15643 -0.987689 -0
    outer loop
      vertex 49.3133 113.042 -12
      vertex 48 113.25 -15
      vertex 49.3133 113.042 -15
    endloop
  endfacet
  facet normal -0.891033 -0.453938 0
    outer loop
      vertex 52.042 110.313 -15
      vertex 51.4383 111.498 -12
      vertex 51.4383 111.498 -15
    endloop
  endfacet
  facet normal -0.891033 -0.453938 0
    outer loop
      vertex 51.4383 111.498 -12
      vertex 52.042 110.313 -15
      vertex 52.042 110.313 -12
    endloop
  endfacet
  facet normal -0.987684 -0.156465 0
    outer loop
      vertex 52.25 109 -15
      vertex 52.042 110.313 -12
      vertex 52.042 110.313 -15
    endloop
  endfacet
  facet normal -0.987684 -0.156465 0
    outer loop
      vertex 52.042 110.313 -12
      vertex 52.25 109 -15
      vertex 52.25 109 -12
    endloop
  endfacet
  facet normal -0.707032 -0.707182 0
    outer loop
      vertex 51.4383 111.498 -15
      vertex 50.4981 112.438 -12
      vertex 50.4981 112.438 -15
    endloop
  endfacet
  facet normal -0.707032 -0.707182 0
    outer loop
      vertex 50.4981 112.438 -12
      vertex 51.4383 111.498 -15
      vertex 51.4383 111.498 -12
    endloop
  endfacet
  facet normal -0.891033 0.453938 0
    outer loop
      vertex 51.4383 106.502 -15
      vertex 52.042 107.687 -12
      vertex 52.042 107.687 -15
    endloop
  endfacet
  facet normal -0.891033 0.453938 0
    outer loop
      vertex 52.042 107.687 -12
      vertex 51.4383 106.502 -15
      vertex 51.4383 106.502 -12
    endloop
  endfacet
  facet normal -0.454178 0.890911 0
    outer loop
      vertex 50.4981 105.562 -15
      vertex 49.3133 104.958 -12
      vertex 50.4981 105.562 -12
    endloop
  endfacet
  facet normal -0.454178 0.890911 0
    outer loop
      vertex 49.3133 104.958 -12
      vertex 50.4981 105.562 -15
      vertex 49.3133 104.958 -15
    endloop
  endfacet
  facet normal 0.707032 -0.707182 0
    outer loop
      vertex 44.5617 111.498 -12
      vertex 45.5019 112.438 -15
      vertex 45.5019 112.438 -12
    endloop
  endfacet
  facet normal 0.707032 -0.707182 0
    outer loop
      vertex 45.5019 112.438 -15
      vertex 44.5617 111.498 -12
      vertex 44.5617 111.498 -15
    endloop
  endfacet
  facet normal -0.707032 0.707182 0
    outer loop
      vertex 50.4981 105.562 -15
      vertex 51.4383 106.502 -12
      vertex 51.4383 106.502 -15
    endloop
  endfacet
  facet normal -0.707032 0.707182 0
    outer loop
      vertex 51.4383 106.502 -12
      vertex 50.4981 105.562 -15
      vertex 50.4981 105.562 -12
    endloop
  endfacet
  facet normal 0.454178 -0.890911 0
    outer loop
      vertex 45.5019 112.438 -15
      vertex 46.6867 113.042 -12
      vertex 45.5019 112.438 -12
    endloop
  endfacet
  facet normal 0.454178 -0.890911 0
    outer loop
      vertex 46.6867 113.042 -12
      vertex 45.5019 112.438 -15
      vertex 46.6867 113.042 -15
    endloop
  endfacet
  facet normal 0.454178 0.890911 -0
    outer loop
      vertex 46.6867 104.958 -15
      vertex 45.5019 105.562 -12
      vertex 46.6867 104.958 -12
    endloop
  endfacet
  facet normal 0.454178 0.890911 0
    outer loop
      vertex 45.5019 105.562 -12
      vertex 46.6867 104.958 -15
      vertex 45.5019 105.562 -15
    endloop
  endfacet
  facet normal 0.891033 -0.453938 0
    outer loop
      vertex 43.958 110.313 -12
      vertex 44.5617 111.498 -15
      vertex 44.5617 111.498 -12
    endloop
  endfacet
  facet normal 0.891033 -0.453938 0
    outer loop
      vertex 44.5617 111.498 -15
      vertex 43.958 110.313 -12
      vertex 43.958 110.313 -15
    endloop
  endfacet
  facet normal 0.15643 0.987689 -0
    outer loop
      vertex 48 104.75 -15
      vertex 46.6867 104.958 -12
      vertex 48 104.75 -12
    endloop
  endfacet
  facet normal 0.15643 0.987689 0
    outer loop
      vertex 46.6867 104.958 -12
      vertex 48 104.75 -15
      vertex 46.6867 104.958 -15
    endloop
  endfacet
  facet normal -0.15643 0.987689 0
    outer loop
      vertex 49.3133 104.958 -15
      vertex 48 104.75 -12
      vertex 49.3133 104.958 -12
    endloop
  endfacet
  facet normal -0.15643 0.987689 0
    outer loop
      vertex 48 104.75 -12
      vertex 49.3133 104.958 -15
      vertex 48 104.75 -15
    endloop
  endfacet
  facet normal -0.987684 0.156465 0
    outer loop
      vertex 52.042 107.687 -15
      vertex 52.25 109 -12
      vertex 52.25 109 -15
    endloop
  endfacet
  facet normal -0.987684 0.156465 0
    outer loop
      vertex 52.25 109 -12
      vertex 52.042 107.687 -15
      vertex 52.042 107.687 -12
    endloop
  endfacet
  facet normal 0.15643 -0.987689 0
    outer loop
      vertex 46.6867 113.042 -15
      vertex 48 113.25 -12
      vertex 46.6867 113.042 -12
    endloop
  endfacet
  facet normal 0.15643 -0.987689 0
    outer loop
      vertex 48 113.25 -12
      vertex 46.6867 113.042 -15
      vertex 48 113.25 -15
    endloop
  endfacet
  facet normal 0.707032 0.707182 0
    outer loop
      vertex 45.5019 105.562 -12
      vertex 44.5617 106.502 -15
      vertex 44.5617 106.502 -12
    endloop
  endfacet
  facet normal 0.707032 0.707182 0
    outer loop
      vertex 44.5617 106.502 -15
      vertex 45.5019 105.562 -12
      vertex 45.5019 105.562 -15
    endloop
  endfacet
  facet normal 0.987684 0.156465 0
    outer loop
      vertex 43.958 107.687 -12
      vertex 43.75 109 -15
      vertex 43.75 109 -12
    endloop
  endfacet
  facet normal 0.987684 0.156465 0
    outer loop
      vertex 43.75 109 -15
      vertex 43.958 107.687 -12
      vertex 43.958 107.687 -15
    endloop
  endfacet
  facet normal -0.454178 -0.890911 0
    outer loop
      vertex 49.3133 113.042 -15
      vertex 50.4981 112.438 -12
      vertex 49.3133 113.042 -12
    endloop
  endfacet
  facet normal -0.454178 -0.890911 -0
    outer loop
      vertex 50.4981 112.438 -12
      vertex 49.3133 113.042 -15
      vertex 50.4981 112.438 -15
    endloop
  endfacet
  facet normal 0.891033 0.453938 0
    outer loop
      vertex 44.5617 106.502 -12
      vertex 43.958 107.687 -15
      vertex 43.958 107.687 -12
    endloop
  endfacet
  facet normal 0.891033 0.453938 0
    outer loop
      vertex 43.958 107.687 -15
      vertex 44.5617 106.502 -12
      vertex 44.5617 106.502 -15
    endloop
  endfacet
  facet normal 0.987684 -0.156465 0
    outer loop
      vertex 43.75 109 -12
      vertex 43.958 110.313 -15
      vertex 43.958 110.313 -12
    endloop
  endfacet
  facet normal 0.987684 -0.156465 0
    outer loop
      vertex 43.958 110.313 -15
      vertex 43.75 109 -12
      vertex 43.75 109 -15
    endloop
  endfacet
  facet normal -0.15643 -0.987689 0
    outer loop
      vertex 82 113.25 -15
      vertex 83.3133 113.042 -12
      vertex 82 113.25 -12
    endloop
  endfacet
  facet normal -0.15643 -0.987689 -0
    outer loop
      vertex 83.3133 113.042 -12
      vertex 82 113.25 -15
      vertex 83.3133 113.042 -15
    endloop
  endfacet
  facet normal -0.891033 -0.453938 0
    outer loop
      vertex 86.042 110.313 -15
      vertex 85.4383 111.498 -12
      vertex 85.4383 111.498 -15
    endloop
  endfacet
  facet normal -0.891033 -0.453938 0
    outer loop
      vertex 85.4383 111.498 -12
      vertex 86.042 110.313 -15
      vertex 86.042 110.313 -12
    endloop
  endfacet
  facet normal -0.987684 -0.156465 0
    outer loop
      vertex 86.25 109 -15
      vertex 86.042 110.313 -12
      vertex 86.042 110.313 -15
    endloop
  endfacet
  facet normal -0.987684 -0.156465 0
    outer loop
      vertex 86.042 110.313 -12
      vertex 86.25 109 -15
      vertex 86.25 109 -12
    endloop
  endfacet
  facet normal -0.707032 -0.707182 0
    outer loop
      vertex 85.4383 111.498 -15
      vertex 84.4981 112.438 -12
      vertex 84.4981 112.438 -15
    endloop
  endfacet
  facet normal -0.707032 -0.707182 0
    outer loop
      vertex 84.4981 112.438 -12
      vertex 85.4383 111.498 -15
      vertex 85.4383 111.498 -12
    endloop
  endfacet
  facet normal -0.891033 0.453938 0
    outer loop
      vertex 85.4383 106.502 -15
      vertex 86.042 107.687 -12
      vertex 86.042 107.687 -15
    endloop
  endfacet
  facet normal -0.891033 0.453938 0
    outer loop
      vertex 86.042 107.687 -12
      vertex 85.4383 106.502 -15
      vertex 85.4383 106.502 -12
    endloop
  endfacet
  facet normal -0.454178 0.890911 0
    outer loop
      vertex 84.4981 105.562 -15
      vertex 83.3133 104.958 -12
      vertex 84.4981 105.562 -12
    endloop
  endfacet
  facet normal -0.454178 0.890911 0
    outer loop
      vertex 83.3133 104.958 -12
      vertex 84.4981 105.562 -15
      vertex 83.3133 104.958 -15
    endloop
  endfacet
  facet normal 0.707032 -0.707182 0
    outer loop
      vertex 78.5617 111.498 -12
      vertex 79.5019 112.438 -15
      vertex 79.5019 112.438 -12
    endloop
  endfacet
  facet normal 0.707032 -0.707182 0
    outer loop
      vertex 79.5019 112.438 -15
      vertex 78.5617 111.498 -12
      vertex 78.5617 111.498 -15
    endloop
  endfacet
  facet normal -0.707032 0.707182 0
    outer loop
      vertex 84.4981 105.562 -15
      vertex 85.4383 106.502 -12
      vertex 85.4383 106.502 -15
    endloop
  endfacet
  facet normal -0.707032 0.707182 0
    outer loop
      vertex 85.4383 106.502 -12
      vertex 84.4981 105.562 -15
      vertex 84.4981 105.562 -12
    endloop
  endfacet
  facet normal 0.454178 0.890911 -0
    outer loop
      vertex 80.6867 104.958 -15
      vertex 79.5019 105.562 -12
      vertex 80.6867 104.958 -12
    endloop
  endfacet
  facet normal 0.454178 0.890911 0
    outer loop
      vertex 79.5019 105.562 -12
      vertex 80.6867 104.958 -15
      vertex 79.5019 105.562 -15
    endloop
  endfacet
  facet normal 0.891033 -0.453938 0
    outer loop
      vertex 77.958 110.313 -12
      vertex 78.5617 111.498 -15
      vertex 78.5617 111.498 -12
    endloop
  endfacet
  facet normal 0.891033 -0.453938 0
    outer loop
      vertex 78.5617 111.498 -15
      vertex 77.958 110.313 -12
      vertex 77.958 110.313 -15
    endloop
  endfacet
  facet normal 0.15643 0.987689 -0
    outer loop
      vertex 82 104.75 -15
      vertex 80.6867 104.958 -12
      vertex 82 104.75 -12
    endloop
  endfacet
  facet normal 0.15643 0.987689 0
    outer loop
      vertex 80.6867 104.958 -12
      vertex 82 104.75 -15
      vertex 80.6867 104.958 -15
    endloop
  endfacet
  facet normal -0.15643 0.987689 0
    outer loop
      vertex 83.3133 104.958 -15
      vertex 82 104.75 -12
      vertex 83.3133 104.958 -12
    endloop
  endfacet
  facet normal -0.15643 0.987689 0
    outer loop
      vertex 82 104.75 -12
      vertex 83.3133 104.958 -15
      vertex 82 104.75 -15
    endloop
  endfacet
  facet normal -0.987684 0.156465 0
    outer loop
      vertex 86.042 107.687 -15
      vertex 86.25 109 -12
      vertex 86.25 109 -15
    endloop
  endfacet
  facet normal -0.987684 0.156465 0
    outer loop
      vertex 86.25 109 -12
      vertex 86.042 107.687 -15
      vertex 86.042 107.687 -12
    endloop
  endfacet
  facet normal 0.15643 -0.987689 0
    outer loop
      vertex 80.6867 113.042 -15
      vertex 82 113.25 -12
      vertex 80.6867 113.042 -12
    endloop
  endfacet
  facet normal 0.15643 -0.987689 0
    outer loop
      vertex 82 113.25 -12
      vertex 80.6867 113.042 -15
      vertex 82 113.25 -15
    endloop
  endfacet
  facet normal 0.707032 0.707182 0
    outer loop
      vertex 79.5019 105.562 -12
      vertex 78.5617 106.502 -15
      vertex 78.5617 106.502 -12
    endloop
  endfacet
  facet normal 0.707032 0.707182 0
    outer loop
      vertex 78.5617 106.502 -15
      vertex 79.5019 105.562 -12
      vertex 79.5019 105.562 -15
    endloop
  endfacet
  facet normal 0.454178 -0.890911 0
    outer loop
      vertex 79.5019 112.438 -15
      vertex 80.6867 113.042 -12
      vertex 79.5019 112.438 -12
    endloop
  endfacet
  facet normal 0.454178 -0.890911 0
    outer loop
      vertex 80.6867 113.042 -12
      vertex 79.5019 112.438 -15
      vertex 80.6867 113.042 -15
    endloop
  endfacet
  facet normal 0.987684 0.156465 0
    outer loop
      vertex 77.958 107.687 -12
      vertex 77.75 109 -15
      vertex 77.75 109 -12
    endloop
  endfacet
  facet normal 0.987684 0.156465 0
    outer loop
      vertex 77.75 109 -15
      vertex 77.958 107.687 -12
      vertex 77.958 107.687 -15
    endloop
  endfacet
  facet normal -0.454178 -0.890911 0
    outer loop
      vertex 83.3133 113.042 -15
      vertex 84.4981 112.438 -12
      vertex 83.3133 113.042 -12
    endloop
  endfacet
  facet normal -0.454178 -0.890911 -0
    outer loop
      vertex 84.4981 112.438 -12
      vertex 83.3133 113.042 -15
      vertex 84.4981 112.438 -15
    endloop
  endfacet
  facet normal 0.891033 0.453938 0
    outer loop
      vertex 78.5617 106.502 -12
      vertex 77.958 107.687 -15
      vertex 77.958 107.687 -12
    endloop
  endfacet
  facet normal 0.891033 0.453938 0
    outer loop
      vertex 77.958 107.687 -15
      vertex 78.5617 106.502 -12
      vertex 78.5617 106.502 -15
    endloop
  endfacet
  facet normal 0.987684 -0.156465 0
    outer loop
      vertex 77.75 109 -12
      vertex 77.958 110.313 -15
      vertex 77.958 110.313 -12
    endloop
  endfacet
  facet normal 0.987684 -0.156465 0
    outer loop
      vertex 77.958 110.313 -15
      vertex 77.75 109 -12
      vertex 77.75 109 -15
    endloop
  endfacet
  facet normal 0.831493 -0.555535 0
    outer loop
      vertex 126.58 3.97371 -12
      vertex 126.798 4.3 -15
      vertex 126.798 4.3 -12
    endloop
  endfacet
  facet normal 0.831493 -0.555535 0
    outer loop
      vertex 126.798 4.3 -15
      vertex 126.58 3.97371 -12
      vertex 126.58 3.97371 -15
    endloop
  endfacet
  facet normal 1 -0 0
    outer loop
      vertex 127.2 5.8 -12
      vertex 127.2 151.2 -15
      vertex 127.2 151.2 -12
    endloop
  endfacet
  facet normal 1 0 0
    outer loop
      vertex 127.2 151.2 -15
      vertex 127.2 5.8 -12
      vertex 127.2 5.8 -15
    endloop
  endfacet
  facet normal 0.947037 -0.321125 0
    outer loop
      vertex 126.972 4.65195 -12
      vertex 127.098 5.02354 -15
      vertex 127.098 5.02354 -12
    endloop
  endfacet
  facet normal 0.947037 -0.321125 0
    outer loop
      vertex 127.098 5.02354 -15
      vertex 126.972 4.65195 -12
      vertex 126.972 4.65195 -15
    endloop
  endfacet
  facet normal -1 0 0
    outer loop
      vertex 2.8 5.8 -15
      vertex 2.8 151.2 -12
      vertex 2.8 151.2 -15
    endloop
  endfacet
  facet normal -1 -0 0
    outer loop
      vertex 2.8 151.2 -12
      vertex 2.8 5.8 -15
      vertex 2.8 5.8 -12
    endloop
  endfacet
  facet normal 0.997803 -0.0662518 0
    outer loop
      vertex 127.174 5.40842 -12
      vertex 127.2 5.8 -15
      vertex 127.2 5.8 -12
    endloop
  endfacet
  facet normal 0.997803 -0.0662518 0
    outer loop
      vertex 127.2 5.8 -15
      vertex 127.174 5.40842 -12
      vertex 127.174 5.40842 -15
    endloop
  endfacet
  facet normal -0.831241 0.555912 0
    outer loop
      vertex 3.20192 152.7 -15
      vertex 3.41994 153.026 -12
      vertex 3.41994 153.026 -15
    endloop
  endfacet
  facet normal -0.831241 0.555912 0
    outer loop
      vertex 3.41994 153.026 -12
      vertex 3.20192 152.7 -15
      vertex 3.20192 152.7 -12
    endloop
  endfacet
  facet normal 0 -1 0
    outer loop
      vertex 5.8 2.8 -15
      vertex 124.2 2.8 -12
      vertex 5.8 2.8 -12
    endloop
  endfacet
  facet normal 0 -1 -0
    outer loop
      vertex 124.2 2.8 -12
      vertex 5.8 2.8 -15
      vertex 124.2 2.8 -15
    endloop
  endfacet
  facet normal 0.0661811 0.997808 -0
    outer loop
      vertex 124.592 154.174 -15
      vertex 124.2 154.2 -12
      vertex 124.592 154.174 -12
    endloop
  endfacet
  facet normal 0.0661811 0.997808 0
    outer loop
      vertex 124.2 154.2 -12
      vertex 124.592 154.174 -15
      vertex 124.2 154.2 -15
    endloop
  endfacet
  facet normal 0.981056 -0.193723 0
    outer loop
      vertex 127.098 5.02354 -12
      vertex 127.174 5.40842 -15
      vertex 127.174 5.40842 -12
    endloop
  endfacet
  facet normal 0.981056 -0.193723 0
    outer loop
      vertex 127.174 5.40842 -15
      vertex 127.098 5.02354 -12
      vertex 127.098 5.02354 -15
    endloop
  endfacet
  facet normal 0.980972 0.194151 0
    outer loop
      vertex 127.174 151.592 -12
      vertex 127.098 151.976 -15
      vertex 127.098 151.976 -12
    endloop
  endfacet
  facet normal 0.980972 0.194151 0
    outer loop
      vertex 127.098 151.976 -15
      vertex 127.174 151.592 -12
      vertex 127.174 151.592 -15
    endloop
  endfacet
  facet normal -0.997864 0.0653194 0
    outer loop
      vertex 2.8 151.2 -15
      vertex 2.82566 151.592 -12
      vertex 2.82566 151.592 -15
    endloop
  endfacet
  facet normal -0.997864 0.0653194 0
    outer loop
      vertex 2.82566 151.592 -12
      vertex 2.8 151.2 -15
      vertex 2.8 151.2 -12
    endloop
  endfacet
  facet normal 0 1 -0
    outer loop
      vertex 124.2 154.2 -15
      vertex 5.8 154.2 -12
      vertex 124.2 154.2 -12
    endloop
  endfacet
  facet normal 0 1 0
    outer loop
      vertex 5.8 154.2 -12
      vertex 124.2 154.2 -15
      vertex 5.8 154.2 -15
    endloop
  endfacet
  facet normal 0.659766 0.751471 -0
    outer loop
      vertex 126.321 153.321 -15
      vertex 126.026 153.58 -12
      vertex 126.321 153.321 -12
    endloop
  endfacet
  facet normal 0.659766 0.751471 0
    outer loop
      vertex 126.026 153.58 -12
      vertex 126.321 153.321 -15
      vertex 126.026 153.58 -15
    endloop
  endfacet
  facet normal -0.0653892 -0.99786 0
    outer loop
      vertex 5.40842 2.82566 -15
      vertex 5.8 2.8 -12
      vertex 5.40842 2.82566 -12
    endloop
  endfacet
  facet normal -0.0653892 -0.99786 -0
    outer loop
      vertex 5.8 2.8 -12
      vertex 5.40842 2.82566 -15
      vertex 5.8 2.8 -15
    endloop
  endfacet
  facet normal -0.193723 0.981056 0
    outer loop
      vertex 5.40842 154.174 -15
      vertex 5.02354 154.098 -12
      vertex 5.40842 154.174 -12
    endloop
  endfacet
  facet normal -0.193723 0.981056 0
    outer loop
      vertex 5.02354 154.098 -12
      vertex 5.40842 154.174 -15
      vertex 5.02354 154.098 -15
    endloop
  endfacet
  facet normal -0.321125 0.947037 0
    outer loop
      vertex 5.02354 154.098 -15
      vertex 4.65195 153.972 -12
      vertex 5.02354 154.098 -12
    endloop
  endfacet
  facet normal -0.321125 0.947037 0
    outer loop
      vertex 4.65195 153.972 -12
      vertex 5.02354 154.098 -15
      vertex 4.65195 153.972 -15
    endloop
  endfacet
  facet normal -0.321444 -0.946928 0
    outer loop
      vertex 4.65195 3.02836 -15
      vertex 5.02354 2.90222 -12
      vertex 4.65195 3.02836 -12
    endloop
  endfacet
  facet normal -0.321444 -0.946928 -0
    outer loop
      vertex 5.02354 2.90222 -12
      vertex 4.65195 3.02836 -15
      vertex 5.02354 2.90222 -15
    endloop
  endfacet
  facet normal -0.8969 0.442233 0
    outer loop
      vertex 3.02836 152.348 -15
      vertex 3.20192 152.7 -12
      vertex 3.20192 152.7 -15
    endloop
  endfacet
  facet normal -0.8969 0.442233 0
    outer loop
      vertex 3.20192 152.7 -12
      vertex 3.02836 152.348 -15
      vertex 3.02836 152.348 -12
    endloop
  endfacet
  facet normal 0.555912 -0.831241 0
    outer loop
      vertex 125.7 3.20192 -15
      vertex 126.026 3.41994 -12
      vertex 125.7 3.20192 -12
    endloop
  endfacet
  facet normal 0.555912 -0.831241 0
    outer loop
      vertex 126.026 3.41994 -12
      vertex 125.7 3.20192 -15
      vertex 126.026 3.41994 -15
    endloop
  endfacet
  facet normal 0.321127 -0.947036 0
    outer loop
      vertex 124.976 2.90222 -15
      vertex 125.348 3.02836 -12
      vertex 124.976 2.90222 -12
    endloop
  endfacet
  facet normal 0.321127 -0.947036 0
    outer loop
      vertex 125.348 3.02836 -12
      vertex 124.976 2.90222 -15
      vertex 125.348 3.02836 -15
    endloop
  endfacet
  facet normal 0.195527 -0.980698 0
    outer loop
      vertex 124.592 2.82566 -15
      vertex 124.976 2.90222 -12
      vertex 124.592 2.82566 -12
    endloop
  endfacet
  facet normal 0.195527 -0.980698 0
    outer loop
      vertex 124.976 2.90222 -12
      vertex 124.592 2.82566 -15
      vertex 124.976 2.90222 -15
    endloop
  endfacet
  facet normal -0.896875 -0.442283 0
    outer loop
      vertex 3.20192 4.3 -15
      vertex 3.02836 4.65195 -12
      vertex 3.02836 4.65195 -15
    endloop
  endfacet
  facet normal -0.896875 -0.442283 0
    outer loop
      vertex 3.02836 4.65195 -12
      vertex 3.20192 4.3 -15
      vertex 3.20192 4.3 -12
    endloop
  endfacet
  facet normal 0 0 1
    outer loop
      vertex 50.4981 105.562 -12
      vertex 79.5019 105.562 -12
      vertex 51.4383 106.502 -12
    endloop
  endfacet
  facet normal 0 0 1
    outer loop
      vertex 79.5019 51.4383 -12
      vertex 52.042 49.3133 -12
      vertex 52.25 48 -12
    endloop
  endfacet
  facet normal 0 0 1
    outer loop
      vertex 79.5019 105.562 -12
      vertex 50.4981 105.562 -12
      vertex 79.5019 51.4383 -12
    endloop
  endfacet
  facet normal 0 0 1
    outer loop
      vertex 79.5019 51.4383 -12
      vertex 51.4383 50.4981 -12
      vertex 52.042 49.3133 -12
    endloop
  endfacet
  facet normal 0 0 1
    outer loop
      vertex 50.4981 51.4383 -12
      vertex 79.5019 51.4383 -12
      vertex 50.4981 105.562 -12
    endloop
  endfacet
  facet normal 0 0 1
    outer loop
      vertex 79.5019 51.4383 -12
      vertex 50.4981 51.4383 -12
      vertex 51.4383 50.4981 -12
    endloop
  endfacet
  facet normal -0 0 1
    outer loop
      vertex 49.3133 104.958 -12
      vertex 50.4981 51.4383 -12
      vertex 50.4981 105.562 -12
    endloop
  endfacet
  facet normal 0 0 1
    outer loop
      vertex 49.3133 104.958 -12
      vertex 49.3133 52.042 -12
      vertex 50.4981 51.4383 -12
    endloop
  endfacet
  facet normal -0 0 1
    outer loop
      vertex 48 104.75 -12
      vertex 49.3133 52.042 -12
      vertex 49.3133 104.958 -12
    endloop
  endfacet
  facet normal 0 0 1
    outer loop
      vertex 48 104.75 -12
      vertex 48 52.25 -12
      vertex 49.3133 52.042 -12
    endloop
  endfacet
  facet normal 0 0 1
    outer loop
      vertex 46.6867 104.958 -12
      vertex 48 52.25 -12
      vertex 48 104.75 -12
    endloop
  endfacet
  facet normal 0 0 1
    outer loop
      vertex 46.6867 104.958 -12
      vertex 46.6867 52.042 -12
      vertex 48 52.25 -12
    endloop
  endfacet
  facet normal 0 0 1
    outer loop
      vertex 45.5019 105.562 -12
      vertex 46.6867 52.042 -12
      vertex 46.6867 104.958 -12
    endloop
  endfacet
  facet normal 0 0 1
    outer loop
      vertex 45.5019 105.562 -12
      vertex 45.5019 51.4383 -12
      vertex 46.6867 52.042 -12
    endloop
  endfacet
  facet normal 0 0 1
    outer loop
      vertex 44.5617 106.502 -12
      vertex 45.5019 51.4383 -12
      vertex 45.5019 105.562 -12
    endloop
  endfacet
  facet normal 0 0 1
    outer loop
      vertex 44.5617 106.502 -12
      vertex 44.5617 50.4981 -12
      vertex 45.5019 51.4383 -12
    endloop
  endfacet
  facet normal 0 0 1
    outer loop
      vertex 43.958 107.687 -12
      vertex 44.5617 50.4981 -12
      vertex 44.5617 106.502 -12
    endloop
  endfacet
  facet normal 0 0 1
    outer loop
      vertex 43.958 107.687 -12
      vertex 43.958 49.3133 -12
      vertex 44.5617 50.4981 -12
    endloop
  endfacet
  facet normal 0 0 1
    outer loop
      vertex 2.8 151.2 -12
      vertex 43.958 107.687 -12
      vertex 43.75 109 -12
    endloop
  endfacet
  facet normal 0 0 1
    outer loop
      vertex 43.958 107.687 -12
      vertex 2.8 151.2 -12
      vertex 43.958 49.3133 -12
    endloop
  endfacet
  facet normal -0 0 1
    outer loop
      vertex 86.042 49.3133 -12
      vertex 127.2 5.8 -12
      vertex 86.042 107.687 -12
    endloop
  endfacet
  facet normal 0 0 1
    outer loop
      vertex 127.2 5.8 -12
      vertex 86.042 49.3133 -12
      vertex 86.25 48 -12
    endloop
  endfacet
  facet normal -0 0 1
    outer loop
      vertex 85.4383 106.502 -12
      vertex 86.042 49.3133 -12
      vertex 86.042 107.687 -12
    endloop
  endfacet
  facet normal 0 0 1
    outer loop
      vertex 85.4383 106.502 -12
      vertex 85.4383 50.4981 -12
      vertex 86.042 49.3133 -12
    endloop
  endfacet
  facet normal -0 0 1
    outer loop
      vertex 84.4981 105.562 -12
      vertex 85.4383 50.4981 -12
      vertex 85.4383 106.502 -12
    endloop
  endfacet
  facet normal 0 0 1
    outer loop
      vertex 84.4981 105.562 -12
      vertex 84.4981 51.4383 -12
      vertex 85.4383 50.4981 -12
    endloop
  endfacet
  facet normal -0 0 1
    outer loop
      vertex 83.3133 104.958 -12
      vertex 84.4981 51.4383 -12
      vertex 84.4981 105.562 -12
    endloop
  endfacet
  facet normal 0 0 1
    outer loop
      vertex 83.3133 104.958 -12
      vertex 83.3133 52.042 -12
      vertex 84.4981 51.4383 -12
    endloop
  endfacet
  facet normal -0 0 1
    outer loop
      vertex 82 104.75 -12
      vertex 83.3133 52.042 -12
      vertex 83.3133 104.958 -12
    endloop
  endfacet
  facet normal 0 0 1
    outer loop
      vertex 82 104.75 -12
      vertex 82 52.25 -12
      vertex 83.3133 52.042 -12
    endloop
  endfacet
  facet normal 0 0 1
    outer loop
      vertex 80.6867 104.958 -12
      vertex 82 52.25 -12
      vertex 82 104.75 -12
    endloop
  endfacet
  facet normal 0 0 1
    outer loop
      vertex 80.6867 104.958 -12
      vertex 80.6867 52.042 -12
      vertex 82 52.25 -12
    endloop
  endfacet
  facet normal 0 0 1
    outer loop
      vertex 79.5019 105.562 -12
      vertex 80.6867 52.042 -12
      vertex 80.6867 104.958 -12
    endloop
  endfacet
  facet normal 0 0 1
    outer loop
      vertex 79.5019 105.562 -12
      vertex 79.5019 51.4383 -12
      vertex 80.6867 52.042 -12
    endloop
  endfacet
  facet normal 0 0 1
    outer loop
      vertex 77.958 107.687 -12
      vertex 52.042 107.687 -12
      vertex 78.5617 106.502 -12
    endloop
  endfacet
  facet normal 0 0 1
    outer loop
      vertex 51.4383 106.502 -12
      vertex 78.5617 106.502 -12
      vertex 52.042 107.687 -12
    endloop
  endfacet
  facet normal 0 0 1
    outer loop
      vertex 52.042 107.687 -12
      vertex 77.958 107.687 -12
      vertex 52.25 109 -12
    endloop
  endfacet
  facet normal 0 0 1
    outer loop
      vertex 78.5617 106.502 -12
      vertex 51.4383 106.502 -12
      vertex 79.5019 105.562 -12
    endloop
  endfacet
  facet normal -0 0 1
    outer loop
      vertex 52.25 109 -12
      vertex 77.958 107.687 -12
      vertex 77.75 109 -12
    endloop
  endfacet
  facet normal 0 0 1
    outer loop
      vertex 79.5019 51.4383 -12
      vertex 52.25 48 -12
      vertex 78.5617 50.4981 -12
    endloop
  endfacet
  facet normal 0 0 1
    outer loop
      vertex 124.2 154.2 -12
      vertex 127.2 151.2 -12
      vertex 127.174 151.592 -12
    endloop
  endfacet
  facet normal 0 0 1
    outer loop
      vertex 86.042 107.687 -12
      vertex 127.2 151.2 -12
      vertex 86.25 109 -12
    endloop
  endfacet
  facet normal 0 0 1
    outer loop
      vertex 124.2 154.2 -12
      vertex 127.174 151.592 -12
      vertex 127.098 151.976 -12
    endloop
  endfacet
  facet normal 0 0 1
    outer loop
      vertex 127.2 151.2 -12
      vertex 86.042 107.687 -12
      vertex 127.2 5.8 -12
    endloop
  endfacet
  facet normal 0 0 1
    outer loop
      vertex 124.2 154.2 -12
      vertex 127.098 151.976 -12
      vertex 126.972 152.348 -12
    endloop
  endfacet
  facet normal -0 0 1
    outer loop
      vertex 86.042 46.6867 -12
      vertex 127.2 5.8 -12
      vertex 86.25 48 -12
    endloop
  endfacet
  facet normal 0 0 1
    outer loop
      vertex 124.2 154.2 -12
      vertex 126.972 152.348 -12
      vertex 126.798 152.7 -12
    endloop
  endfacet
  facet normal -0 0 1
    outer loop
      vertex 85.4383 45.5019 -12
      vertex 127.2 5.8 -12
      vertex 86.042 46.6867 -12
    endloop
  endfacet
  facet normal 0 0 1
    outer loop
      vertex 124.2 154.2 -12
      vertex 126.798 152.7 -12
      vertex 126.58 153.026 -12
    endloop
  endfacet
  facet normal 0 -0 1
    outer loop
      vertex 124.2 2.8 -12
      vertex 127.2 5.8 -12
      vertex 85.4383 45.5019 -12
    endloop
  endfacet
  facet normal 0 0 1
    outer loop
      vertex 124.2 154.2 -12
      vertex 126.58 153.026 -12
      vertex 126.321 153.321 -12
    endloop
  endfacet
  facet normal 0 0 1
    outer loop
      vertex 127.2 5.8 -12
      vertex 124.2 2.8 -12
      vertex 127.174 5.40842 -12
    endloop
  endfacet
  facet normal 0 0 1
    outer loop
      vertex 124.2 154.2 -12
      vertex 126.321 153.321 -12
      vertex 126.026 153.58 -12
    endloop
  endfacet
  facet normal 0 0 1
    outer loop
      vertex 127.174 5.40842 -12
      vertex 124.2 2.8 -12
      vertex 127.098 5.02354 -12
    endloop
  endfacet
  facet normal 0 0 1
    outer loop
      vertex 124.2 154.2 -12
      vertex 126.026 153.58 -12
      vertex 125.7 153.798 -12
    endloop
  endfacet
  facet normal 0 0 1
    outer loop
      vertex 127.098 5.02354 -12
      vertex 124.2 2.8 -12
      vertex 126.972 4.65195 -12
    endloop
  endfacet
  facet normal 0 0 1
    outer loop
      vertex 124.2 154.2 -12
      vertex 125.7 153.798 -12
      vertex 125.348 153.972 -12
    endloop
  endfacet
  facet normal 0 0 1
    outer loop
      vertex 126.972 4.65195 -12
      vertex 124.2 2.8 -12
      vertex 126.798 4.3 -12
    endloop
  endfacet
  facet normal 0 0 1
    outer loop
      vertex 124.2 154.2 -12
      vertex 125.348 153.972 -12
      vertex 124.976 154.098 -12
    endloop
  endfacet
  facet normal 0 0 1
    outer loop
      vertex 126.58 3.97371 -12
      vertex 124.2 2.8 -12
      vertex 126.321 3.67868 -12
    endloop
  endfacet
  facet normal 0 0 1
    outer loop
      vertex 124.2 154.2 -12
      vertex 124.976 154.098 -12
      vertex 124.592 154.174 -12
    endloop
  endfacet
  facet normal 0 0 1
    outer loop
      vertex 126.321 3.67868 -12
      vertex 124.2 2.8 -12
      vertex 126.026 3.41994 -12
    endloop
  endfacet
  facet normal 0 0 1
    outer loop
      vertex 127.2 151.2 -12
      vertex 124.2 154.2 -12
      vertex 85.4383 111.498 -12
    endloop
  endfacet
  facet normal 0 0 1
    outer loop
      vertex 126.026 3.41994 -12
      vertex 124.2 2.8 -12
      vertex 125.7 3.20192 -12
    endloop
  endfacet
  facet normal 0 0 1
    outer loop
      vertex 125.7 3.20192 -12
      vertex 124.2 2.8 -12
      vertex 125.348 3.02836 -12
    endloop
  endfacet
  facet normal 0 0 1
    outer loop
      vertex 127.2 151.2 -12
      vertex 86.042 110.313 -12
      vertex 86.25 109 -12
    endloop
  endfacet
  facet normal 0 0 1
    outer loop
      vertex 127.2 151.2 -12
      vertex 85.4383 111.498 -12
      vertex 86.042 110.313 -12
    endloop
  endfacet
  facet normal 0 0 1
    outer loop
      vertex 124.2 154.2 -12
      vertex 84.4981 112.438 -12
      vertex 85.4383 111.498 -12
    endloop
  endfacet
  facet normal 0 0 1
    outer loop
      vertex 124.2 154.2 -12
      vertex 83.3133 113.042 -12
      vertex 84.4981 112.438 -12
    endloop
  endfacet
  facet normal 0 0 1
    outer loop
      vertex 124.2 154.2 -12
      vertex 82 113.25 -12
      vertex 83.3133 113.042 -12
    endloop
  endfacet
  facet normal 0 0 1
    outer loop
      vertex 124.2 154.2 -12
      vertex 80.6867 113.042 -12
      vertex 82 113.25 -12
    endloop
  endfacet
  facet normal 0 0 1
    outer loop
      vertex 49.3133 113.042 -12
      vertex 80.6867 113.042 -12
      vertex 124.2 154.2 -12
    endloop
  endfacet
  facet normal 0 0 1
    outer loop
      vertex 78.5617 50.4981 -12
      vertex 52.25 48 -12
      vertex 77.958 49.3133 -12
    endloop
  endfacet
  facet normal 0 0 1
    outer loop
      vertex 77.958 110.313 -12
      vertex 52.25 109 -12
      vertex 77.75 109 -12
    endloop
  endfacet
  facet normal 0 0 1
    outer loop
      vertex 52.042 110.313 -12
      vertex 77.958 110.313 -12
      vertex 78.5617 111.498 -12
    endloop
  endfacet
  facet normal 0 0 1
    outer loop
      vertex 51.4383 111.498 -12
      vertex 78.5617 111.498 -12
      vertex 79.5019 112.438 -12
    endloop
  endfacet
  facet normal 0 0 1
    outer loop
      vertex 80.6867 113.042 -12
      vertex 49.3133 113.042 -12
      vertex 79.5019 112.438 -12
    endloop
  endfacet
  facet normal 0 0 1
    outer loop
      vertex 77.958 110.313 -12
      vertex 52.042 110.313 -12
      vertex 52.25 109 -12
    endloop
  endfacet
  facet normal 0 0 1
    outer loop
      vertex 78.5617 111.498 -12
      vertex 51.4383 111.498 -12
      vertex 52.042 110.313 -12
    endloop
  endfacet
  facet normal 0 0 1
    outer loop
      vertex 79.5019 112.438 -12
      vertex 50.4981 112.438 -12
      vertex 51.4383 111.498 -12
    endloop
  endfacet
  facet normal 0 0 1
    outer loop
      vertex 79.5019 112.438 -12
      vertex 49.3133 113.042 -12
      vertex 50.4981 112.438 -12
    endloop
  endfacet
  facet normal -0 0 1
    outer loop
      vertex 5.8 154.2 -12
      vertex 49.3133 113.042 -12
      vertex 124.2 154.2 -12
    endloop
  endfacet
  facet normal 0 0 1
    outer loop
      vertex 49.3133 113.042 -12
      vertex 5.8 154.2 -12
      vertex 48 113.25 -12
    endloop
  endfacet
  facet normal 0 0 1
    outer loop
      vertex 48 113.25 -12
      vertex 5.8 154.2 -12
      vertex 46.6867 113.042 -12
    endloop
  endfacet
  facet normal 0 0 1
    outer loop
      vertex 43.958 110.313 -12
      vertex 2.8 151.2 -12
      vertex 43.75 109 -12
    endloop
  endfacet
  facet normal 0 0 1
    outer loop
      vertex 44.5617 111.498 -12
      vertex 2.8 151.2 -12
      vertex 43.958 110.313 -12
    endloop
  endfacet
  facet normal -0 0 1
    outer loop
      vertex 2.8 151.2 -12
      vertex 44.5617 111.498 -12
      vertex 5.8 154.2 -12
    endloop
  endfacet
  facet normal 0 0 1
    outer loop
      vertex 45.5019 112.438 -12
      vertex 5.8 154.2 -12
      vertex 44.5617 111.498 -12
    endloop
  endfacet
  facet normal 0 0 1
    outer loop
      vertex 46.6867 113.042 -12
      vertex 5.8 154.2 -12
      vertex 45.5019 112.438 -12
    endloop
  endfacet
  facet normal 0 0 1
    outer loop
      vertex 125.348 3.02836 -12
      vertex 124.2 2.8 -12
      vertex 124.976 2.90222 -12
    endloop
  endfacet
  facet normal 0 0 1
    outer loop
      vertex 124.976 2.90222 -12
      vertex 124.2 2.8 -12
      vertex 124.592 2.82566 -12
    endloop
  endfacet
  facet normal 0 0 1
    outer loop
      vertex 126.798 4.3 -12
      vertex 124.2 2.8 -12
      vertex 126.58 3.97371 -12
    endloop
  endfacet
  facet normal -0 0 1
    outer loop
      vertex 84.4981 44.5617 -12
      vertex 124.2 2.8 -12
      vertex 85.4383 45.5019 -12
    endloop
  endfacet
  facet normal -0 0 1
    outer loop
      vertex 83.3133 43.958 -12
      vertex 124.2 2.8 -12
      vertex 84.4981 44.5617 -12
    endloop
  endfacet
  facet normal -0 0 1
    outer loop
      vertex 82 43.75 -12
      vertex 124.2 2.8 -12
      vertex 83.3133 43.958 -12
    endloop
  endfacet
  facet normal 0 0 1
    outer loop
      vertex 80.6867 43.958 -12
      vertex 124.2 2.8 -12
      vertex 82 43.75 -12
    endloop
  endfacet
  facet normal 0 0 1
    outer loop
      vertex 49.3133 43.958 -12
      vertex 80.6867 43.958 -12
      vertex 79.5019 44.5617 -12
    endloop
  endfacet
  facet normal 0 0 1
    outer loop
      vertex 77.958 49.3133 -12
      vertex 52.25 48 -12
      vertex 77.75 48 -12
    endloop
  endfacet
  facet normal 0 0 1
    outer loop
      vertex 77.75 48 -12
      vertex 52.25 48 -12
      vertex 77.958 46.6867 -12
    endloop
  endfacet
  facet normal 0 0 1
    outer loop
      vertex 52.042 46.6867 -12
      vertex 77.958 46.6867 -12
      vertex 52.25 48 -12
    endloop
  endfacet
  facet normal 0 0 1
    outer loop
      vertex 77.958 46.6867 -12
      vertex 52.042 46.6867 -12
      vertex 78.5617 45.5019 -12
    endloop
  endfacet
  facet normal 0 0 1
    outer loop
      vertex 51.4383 45.5019 -12
      vertex 78.5617 45.5019 -12
      vertex 52.042 46.6867 -12
    endloop
  endfacet
  facet normal 0 0 1
    outer loop
      vertex 78.5617 45.5019 -12
      vertex 51.4383 45.5019 -12
      vertex 79.5019 44.5617 -12
    endloop
  endfacet
  facet normal 0 0 1
    outer loop
      vertex 50.4981 44.5617 -12
      vertex 79.5019 44.5617 -12
      vertex 51.4383 45.5019 -12
    endloop
  endfacet
  facet normal 0 0 1
    outer loop
      vertex 49.3133 43.958 -12
      vertex 79.5019 44.5617 -12
      vertex 50.4981 44.5617 -12
    endloop
  endfacet
  facet normal 0 0 1
    outer loop
      vertex 80.6867 43.958 -12
      vertex 49.3133 43.958 -12
      vertex 124.2 2.8 -12
    endloop
  endfacet
  facet normal 0 0 1
    outer loop
      vertex 5.8 2.8 -12
      vertex 49.3133 43.958 -12
      vertex 48 43.75 -12
    endloop
  endfacet
  facet normal 0 0 1
    outer loop
      vertex 5.8 2.8 -12
      vertex 48 43.75 -12
      vertex 46.6867 43.958 -12
    endloop
  endfacet
  facet normal 0 0 1
    outer loop
      vertex 5.8 2.8 -12
      vertex 46.6867 43.958 -12
      vertex 45.5019 44.5617 -12
    endloop
  endfacet
  facet normal 0 0 1
    outer loop
      vertex 2.8 5.8 -12
      vertex 43.958 49.3133 -12
      vertex 2.8 151.2 -12
    endloop
  endfacet
  facet normal 0 0 1
    outer loop
      vertex 49.3133 43.958 -12
      vertex 5.8 2.8 -12
      vertex 124.2 2.8 -12
    endloop
  endfacet
  facet normal 0 0 1
    outer loop
      vertex 44.5617 45.5019 -12
      vertex 5.8 2.8 -12
      vertex 45.5019 44.5617 -12
    endloop
  endfacet
  facet normal 0 0 1
    outer loop
      vertex 2.8 5.8 -12
      vertex 44.5617 45.5019 -12
      vertex 43.958 46.6867 -12
    endloop
  endfacet
  facet normal 0 0 1
    outer loop
      vertex 43.958 49.3133 -12
      vertex 2.8 5.8 -12
      vertex 43.75 48 -12
    endloop
  endfacet
  facet normal 0 0 1
    outer loop
      vertex 2.8 151.2 -12
      vertex 5.8 154.2 -12
      vertex 5.40842 154.174 -12
    endloop
  endfacet
  facet normal 0 0 1
    outer loop
      vertex 43.75 48 -12
      vertex 2.8 5.8 -12
      vertex 43.958 46.6867 -12
    endloop
  endfacet
  facet normal 0 0 1
    outer loop
      vertex 2.8 151.2 -12
      vertex 5.40842 154.174 -12
      vertex 5.02354 154.098 -12
    endloop
  endfacet
  facet normal 0 0 1
    outer loop
      vertex 44.5617 45.5019 -12
      vertex 2.8 5.8 -12
      vertex 5.8 2.8 -12
    endloop
  endfacet
  facet normal 0 0 1
    outer loop
      vertex 2.8 151.2 -12
      vertex 5.02354 154.098 -12
      vertex 4.65195 153.972 -12
    endloop
  endfacet
  facet normal 0 0 1
    outer loop
      vertex 5.8 2.8 -12
      vertex 2.8 5.8 -12
      vertex 5.40842 2.82566 -12
    endloop
  endfacet
  facet normal 0 0 1
    outer loop
      vertex 2.8 151.2 -12
      vertex 4.65195 153.972 -12
      vertex 4.3 153.798 -12
    endloop
  endfacet
  facet normal 0 0 1
    outer loop
      vertex 5.40842 2.82566 -12
      vertex 2.8 5.8 -12
      vertex 5.02354 2.90222 -12
    endloop
  endfacet
  facet normal 0 0 1
    outer loop
      vertex 2.8 151.2 -12
      vertex 4.3 153.798 -12
      vertex 3.97371 153.58 -12
    endloop
  endfacet
  facet normal 0 0 1
    outer loop
      vertex 5.02354 2.90222 -12
      vertex 2.8 5.8 -12
      vertex 4.65195 3.02836 -12
    endloop
  endfacet
  facet normal 0 0 1
    outer loop
      vertex 2.8 151.2 -12
      vertex 3.97371 153.58 -12
      vertex 3.67868 153.321 -12
    endloop
  endfacet
  facet normal 0 0 1
    outer loop
      vertex 4.65195 3.02836 -12
      vertex 2.8 5.8 -12
      vertex 4.3 3.20192 -12
    endloop
  endfacet
  facet normal 0 0 1
    outer loop
      vertex 2.8 151.2 -12
      vertex 3.67868 153.321 -12
      vertex 3.41994 153.026 -12
    endloop
  endfacet
  facet normal 0 0 1
    outer loop
      vertex 4.3 3.20192 -12
      vertex 2.8 5.8 -12
      vertex 3.97371 3.41994 -12
    endloop
  endfacet
  facet normal 0 0 1
    outer loop
      vertex 2.8 151.2 -12
      vertex 3.41994 153.026 -12
      vertex 3.20192 152.7 -12
    endloop
  endfacet
  facet normal 0 0 1
    outer loop
      vertex 3.97371 3.41994 -12
      vertex 2.8 5.8 -12
      vertex 3.67868 3.67868 -12
    endloop
  endfacet
  facet normal 0 0 1
    outer loop
      vertex 2.8 151.2 -12
      vertex 3.20192 152.7 -12
      vertex 3.02836 152.348 -12
    endloop
  endfacet
  facet normal 0 0 1
    outer loop
      vertex 3.67868 3.67868 -12
      vertex 2.8 5.8 -12
      vertex 3.41994 3.97371 -12
    endloop
  endfacet
  facet normal 0 0 1
    outer loop
      vertex 2.8 151.2 -12
      vertex 3.02836 152.348 -12
      vertex 2.90222 151.976 -12
    endloop
  endfacet
  facet normal 0 0 1
    outer loop
      vertex 3.41994 3.97371 -12
      vertex 2.8 5.8 -12
      vertex 3.20192 4.3 -12
    endloop
  endfacet
  facet normal 0 0 1
    outer loop
      vertex 2.8 151.2 -12
      vertex 2.90222 151.976 -12
      vertex 2.82566 151.592 -12
    endloop
  endfacet
  facet normal 0 0 1
    outer loop
      vertex 3.20192 4.3 -12
      vertex 2.8 5.8 -12
      vertex 3.02836 4.65195 -12
    endloop
  endfacet
  facet normal 0 0 1
    outer loop
      vertex 3.02836 4.65195 -12
      vertex 2.8 5.8 -12
      vertex 2.90222 5.02354 -12
    endloop
  endfacet
  facet normal 0 0 1
    outer loop
      vertex 2.90222 5.02354 -12
      vertex 2.8 5.8 -12
      vertex 2.82566 5.40842 -12
    endloop
  endfacet
  facet normal -0.659728 0.751504 0
    outer loop
      vertex 3.97371 153.58 -15
      vertex 3.67868 153.321 -12
      vertex 3.97371 153.58 -12
    endloop
  endfacet
  facet normal -0.659728 0.751504 0
    outer loop
      vertex 3.67868 153.321 -12
      vertex 3.97371 153.58 -15
      vertex 3.67868 153.321 -15
    endloop
  endfacet
  facet normal 0.831265 0.555877 0
    outer loop
      vertex 126.798 152.7 -12
      vertex 126.58 153.026 -15
      vertex 126.58 153.026 -12
    endloop
  endfacet
  facet normal 0.831265 0.555877 0
    outer loop
      vertex 126.58 153.026 -15
      vertex 126.798 152.7 -12
      vertex 126.798 152.7 -15
    endloop
  endfacet
  facet normal 0.947145 0.320807 0
    outer loop
      vertex 127.098 151.976 -12
      vertex 126.972 152.348 -15
      vertex 126.972 152.348 -12
    endloop
  endfacet
  facet normal 0.947145 0.320807 0
    outer loop
      vertex 126.972 152.348 -15
      vertex 127.098 151.976 -12
      vertex 127.098 151.976 -15
    endloop
  endfacet
  facet normal 0.442233 -0.8969 0
    outer loop
      vertex 125.348 3.02836 -15
      vertex 125.7 3.20192 -12
      vertex 125.348 3.02836 -12
    endloop
  endfacet
  facet normal 0.442233 -0.8969 0
    outer loop
      vertex 125.7 3.20192 -12
      vertex 125.348 3.02836 -15
      vertex 125.7 3.20192 -15
    endloop
  endfacet
  facet normal 0.194151 0.980972 -0
    outer loop
      vertex 124.976 154.098 -15
      vertex 124.592 154.174 -12
      vertex 124.976 154.098 -12
    endloop
  endfacet
  facet normal 0.194151 0.980972 0
    outer loop
      vertex 124.592 154.174 -12
      vertex 124.976 154.098 -15
      vertex 124.592 154.174 -15
    endloop
  endfacet
  facet normal -0.980784 -0.195097 0
    outer loop
      vertex 2.90222 5.02354 -15
      vertex 2.82566 5.40842 -12
      vertex 2.82566 5.40842 -15
    endloop
  endfacet
  facet normal -0.980784 -0.195097 0
    outer loop
      vertex 2.82566 5.40842 -12
      vertex 2.90222 5.02354 -15
      vertex 2.90222 5.02354 -12
    endloop
  endfacet
  facet normal 0.751504 -0.659728 0
    outer loop
      vertex 126.321 3.67868 -12
      vertex 126.58 3.97371 -15
      vertex 126.58 3.97371 -12
    endloop
  endfacet
  facet normal 0.751504 -0.659728 0
    outer loop
      vertex 126.58 3.97371 -15
      vertex 126.321 3.67868 -12
      vertex 126.321 3.67868 -15
    endloop
  endfacet
  facet normal 0.997808 0.0661811 0
    outer loop
      vertex 127.2 151.2 -12
      vertex 127.174 151.592 -15
      vertex 127.174 151.592 -12
    endloop
  endfacet
  facet normal 0.997808 0.0661811 0
    outer loop
      vertex 127.174 151.592 -15
      vertex 127.2 151.2 -12
      vertex 127.2 151.2 -15
    endloop
  endfacet
  facet normal -0.443185 0.89643 0
    outer loop
      vertex 4.65195 153.972 -15
      vertex 4.3 153.798 -12
      vertex 4.65195 153.972 -12
    endloop
  endfacet
  facet normal -0.443185 0.89643 0
    outer loop
      vertex 4.3 153.798 -12
      vertex 4.65195 153.972 -15
      vertex 4.3 153.798 -15
    endloop
  endfacet
  facet normal -0.751833 -0.659354 0
    outer loop
      vertex 3.67868 3.67868 -15
      vertex 3.41994 3.97371 -12
      vertex 3.41994 3.97371 -15
    endloop
  endfacet
  facet normal -0.751833 -0.659354 0
    outer loop
      vertex 3.41994 3.97371 -12
      vertex 3.67868 3.67868 -15
      vertex 3.67868 3.67868 -12
    endloop
  endfacet
  facet normal -0.195097 -0.980784 0
    outer loop
      vertex 5.02354 2.90222 -15
      vertex 5.40842 2.82566 -12
      vertex 5.02354 2.90222 -12
    endloop
  endfacet
  facet normal -0.195097 -0.980784 -0
    outer loop
      vertex 5.40842 2.82566 -12
      vertex 5.02354 2.90222 -15
      vertex 5.40842 2.82566 -15
    endloop
  endfacet
  facet normal 0.320807 0.947145 -0
    outer loop
      vertex 125.348 153.972 -15
      vertex 124.976 154.098 -12
      vertex 125.348 153.972 -12
    endloop
  endfacet
  facet normal 0.320807 0.947145 0
    outer loop
      vertex 124.976 154.098 -12
      vertex 125.348 153.972 -15
      vertex 124.976 154.098 -15
    endloop
  endfacet
  facet normal -0.99786 -0.0653892 0
    outer loop
      vertex 2.82566 5.40842 -15
      vertex 2.8 5.8 -12
      vertex 2.8 5.8 -15
    endloop
  endfacet
  facet normal -0.99786 -0.0653892 0
    outer loop
      vertex 2.8 5.8 -12
      vertex 2.82566 5.40842 -15
      vertex 2.82566 5.40842 -12
    endloop
  endfacet
  facet normal 0.0653194 -0.997864 0
    outer loop
      vertex 124.2 2.8 -15
      vertex 124.592 2.82566 -12
      vertex 124.2 2.8 -12
    endloop
  endfacet
  facet normal 0.0653194 -0.997864 0
    outer loop
      vertex 124.592 2.82566 -12
      vertex 124.2 2.8 -15
      vertex 124.592 2.82566 -15
    endloop
  endfacet
  facet normal 0.659392 -0.751799 0
    outer loop
      vertex 126.026 3.41994 -15
      vertex 126.321 3.67868 -12
      vertex 126.026 3.41994 -12
    endloop
  endfacet
  facet normal 0.659392 -0.751799 0
    outer loop
      vertex 126.321 3.67868 -12
      vertex 126.026 3.41994 -15
      vertex 126.321 3.67868 -15
    endloop
  endfacet
  facet normal -0.980698 0.195527 0
    outer loop
      vertex 2.82566 151.592 -15
      vertex 2.90222 151.976 -12
      vertex 2.90222 151.976 -15
    endloop
  endfacet
  facet normal -0.980698 0.195527 0
    outer loop
      vertex 2.90222 151.976 -12
      vertex 2.82566 151.592 -15
      vertex 2.82566 151.592 -12
    endloop
  endfacet
  facet normal -0.659354 -0.751833 0
    outer loop
      vertex 3.67868 3.67868 -15
      vertex 3.97371 3.41994 -12
      vertex 3.67868 3.67868 -12
    endloop
  endfacet
  facet normal -0.659354 -0.751833 -0
    outer loop
      vertex 3.97371 3.41994 -12
      vertex 3.67868 3.67868 -15
      vertex 3.97371 3.41994 -15
    endloop
  endfacet
  facet normal 0.89643 -0.443185 0
    outer loop
      vertex 126.798 4.3 -12
      vertex 126.972 4.65195 -15
      vertex 126.972 4.65195 -12
    endloop
  endfacet
  facet normal 0.89643 -0.443185 0
    outer loop
      vertex 126.972 4.65195 -15
      vertex 126.798 4.3 -12
      vertex 126.798 4.3 -15
    endloop
  endfacet
  facet normal -0.0662518 0.997803 0
    outer loop
      vertex 5.8 154.2 -15
      vertex 5.40842 154.174 -12
      vertex 5.8 154.2 -12
    endloop
  endfacet
  facet normal -0.0662518 0.997803 0
    outer loop
      vertex 5.40842 154.174 -12
      vertex 5.8 154.2 -15
      vertex 5.40842 154.174 -15
    endloop
  endfacet
  facet normal -0.751799 0.659392 0
    outer loop
      vertex 3.41994 153.026 -15
      vertex 3.67868 153.321 -12
      vertex 3.67868 153.321 -15
    endloop
  endfacet
  facet normal -0.751799 0.659392 0
    outer loop
      vertex 3.67868 153.321 -12
      vertex 3.41994 153.026 -15
      vertex 3.41994 153.026 -12
    endloop
  endfacet
  facet normal -0.555535 0.831493 0
    outer loop
      vertex 4.3 153.798 -15
      vertex 3.97371 153.58 -12
      vertex 4.3 153.798 -12
    endloop
  endfacet
  facet normal -0.555535 0.831493 0
    outer loop
      vertex 3.97371 153.58 -12
      vertex 4.3 153.798 -15
      vertex 3.97371 153.58 -15
    endloop
  endfacet
  facet normal 0 0 -1
    outer loop
      vertex 50.4981 51.4383 -15
      vertex 79.5019 51.4383 -15
      vertex 51.4383 50.4981 -15
    endloop
  endfacet
  facet normal 0 0 -1
    outer loop
      vertex 79.5019 105.562 -15
      vertex 52.042 107.687 -15
      vertex 52.25 109 -15
    endloop
  endfacet
  facet normal 0 0 -1
    outer loop
      vertex 79.5019 51.4383 -15
      vertex 50.4981 51.4383 -15
      vertex 79.5019 105.562 -15
    endloop
  endfacet
  facet normal 0 0 -1
    outer loop
      vertex 79.5019 105.562 -15
      vertex 51.4383 106.502 -15
      vertex 52.042 107.687 -15
    endloop
  endfacet
  facet normal 0 0 -1
    outer loop
      vertex 50.4981 105.562 -15
      vertex 79.5019 105.562 -15
      vertex 50.4981 51.4383 -15
    endloop
  endfacet
  facet normal 0 0 -1
    outer loop
      vertex 79.5019 105.562 -15
      vertex 50.4981 105.562 -15
      vertex 51.4383 106.502 -15
    endloop
  endfacet
  facet normal 0 0 -1
    outer loop
      vertex 49.3133 52.042 -15
      vertex 50.4981 105.562 -15
      vertex 50.4981 51.4383 -15
    endloop
  endfacet
  facet normal 0 0 -1
    outer loop
      vertex 49.3133 52.042 -15
      vertex 49.3133 104.958 -15
      vertex 50.4981 105.562 -15
    endloop
  endfacet
  facet normal 0 0 -1
    outer loop
      vertex 48 52.25 -15
      vertex 49.3133 104.958 -15
      vertex 49.3133 52.042 -15
    endloop
  endfacet
  facet normal 0 0 -1
    outer loop
      vertex 48 52.25 -15
      vertex 48 104.75 -15
      vertex 49.3133 104.958 -15
    endloop
  endfacet
  facet normal 0 0 -1
    outer loop
      vertex 46.6867 52.042 -15
      vertex 48 104.75 -15
      vertex 48 52.25 -15
    endloop
  endfacet
  facet normal 0 0 -1
    outer loop
      vertex 46.6867 52.042 -15
      vertex 46.6867 104.958 -15
      vertex 48 104.75 -15
    endloop
  endfacet
  facet normal 0 0 -1
    outer loop
      vertex 45.5019 51.4383 -15
      vertex 46.6867 104.958 -15
      vertex 46.6867 52.042 -15
    endloop
  endfacet
  facet normal 0 0 -1
    outer loop
      vertex 45.5019 51.4383 -15
      vertex 45.5019 105.562 -15
      vertex 46.6867 104.958 -15
    endloop
  endfacet
  facet normal 0 0 -1
    outer loop
      vertex 44.5617 50.4981 -15
      vertex 45.5019 105.562 -15
      vertex 45.5019 51.4383 -15
    endloop
  endfacet
  facet normal 0 0 -1
    outer loop
      vertex 44.5617 50.4981 -15
      vertex 44.5617 106.502 -15
      vertex 45.5019 105.562 -15
    endloop
  endfacet
  facet normal 0 0 -1
    outer loop
      vertex 43.958 49.3133 -15
      vertex 44.5617 106.502 -15
      vertex 44.5617 50.4981 -15
    endloop
  endfacet
  facet normal 0 0 -1
    outer loop
      vertex 43.958 49.3133 -15
      vertex 43.958 107.687 -15
      vertex 44.5617 106.502 -15
    endloop
  endfacet
  facet normal 0 0 -1
    outer loop
      vertex 2.8 5.8 -15
      vertex 43.958 49.3133 -15
      vertex 43.75 48 -15
    endloop
  endfacet
  facet normal -0 0 -1
    outer loop
      vertex 43.958 49.3133 -15
      vertex 2.8 5.8 -15
      vertex 43.958 107.687 -15
    endloop
  endfacet
  facet normal 0 0 -1
    outer loop
      vertex 86.042 107.687 -15
      vertex 127.2 151.2 -15
      vertex 86.042 49.3133 -15
    endloop
  endfacet
  facet normal 0 0 -1
    outer loop
      vertex 127.2 151.2 -15
      vertex 86.042 107.687 -15
      vertex 86.25 109 -15
    endloop
  endfacet
  facet normal 0 0 -1
    outer loop
      vertex 85.4383 50.4981 -15
      vertex 86.042 107.687 -15
      vertex 86.042 49.3133 -15
    endloop
  endfacet
  facet normal 0 0 -1
    outer loop
      vertex 85.4383 50.4981 -15
      vertex 85.4383 106.502 -15
      vertex 86.042 107.687 -15
    endloop
  endfacet
  facet normal 0 0 -1
    outer loop
      vertex 84.4981 51.4383 -15
      vertex 85.4383 106.502 -15
      vertex 85.4383 50.4981 -15
    endloop
  endfacet
  facet normal 0 0 -1
    outer loop
      vertex 84.4981 51.4383 -15
      vertex 84.4981 105.562 -15
      vertex 85.4383 106.502 -15
    endloop
  endfacet
  facet normal 0 0 -1
    outer loop
      vertex 83.3133 52.042 -15
      vertex 84.4981 105.562 -15
      vertex 84.4981 51.4383 -15
    endloop
  endfacet
  facet normal 0 0 -1
    outer loop
      vertex 83.3133 52.042 -15
      vertex 83.3133 104.958 -15
      vertex 84.4981 105.562 -15
    endloop
  endfacet
  facet normal 0 0 -1
    outer loop
      vertex 82 52.25 -15
      vertex 83.3133 104.958 -15
      vertex 83.3133 52.042 -15
    endloop
  endfacet
  facet normal 0 0 -1
    outer loop
      vertex 82 52.25 -15
      vertex 82 104.75 -15
      vertex 83.3133 104.958 -15
    endloop
  endfacet
  facet normal 0 0 -1
    outer loop
      vertex 80.6867 52.042 -15
      vertex 82 104.75 -15
      vertex 82 52.25 -15
    endloop
  endfacet
  facet normal 0 0 -1
    outer loop
      vertex 80.6867 52.042 -15
      vertex 80.6867 104.958 -15
      vertex 82 104.75 -15
    endloop
  endfacet
  facet normal 0 0 -1
    outer loop
      vertex 79.5019 51.4383 -15
      vertex 80.6867 104.958 -15
      vertex 80.6867 52.042 -15
    endloop
  endfacet
  facet normal 0 0 -1
    outer loop
      vertex 79.5019 51.4383 -15
      vertex 79.5019 105.562 -15
      vertex 80.6867 104.958 -15
    endloop
  endfacet
  facet normal 0 0 -1
    outer loop
      vertex 77.958 49.3133 -15
      vertex 52.042 49.3133 -15
      vertex 78.5617 50.4981 -15
    endloop
  endfacet
  facet normal 0 0 -1
    outer loop
      vertex 51.4383 50.4981 -15
      vertex 78.5617 50.4981 -15
      vertex 52.042 49.3133 -15
    endloop
  endfacet
  facet normal 0 0 -1
    outer loop
      vertex 52.042 49.3133 -15
      vertex 77.958 49.3133 -15
      vertex 52.25 48 -15
    endloop
  endfacet
  facet normal 0 0 -1
    outer loop
      vertex 78.5617 50.4981 -15
      vertex 51.4383 50.4981 -15
      vertex 79.5019 51.4383 -15
    endloop
  endfacet
  facet normal 0 0 -1
    outer loop
      vertex 52.25 48 -15
      vertex 77.958 49.3133 -15
      vertex 77.75 48 -15
    endloop
  endfacet
  facet normal 0 0 -1
    outer loop
      vertex 79.5019 105.562 -15
      vertex 52.25 109 -15
      vertex 78.5617 106.502 -15
    endloop
  endfacet
  facet normal 0 0 -1
    outer loop
      vertex 124.2 2.8 -15
      vertex 127.2 5.8 -15
      vertex 127.174 5.40842 -15
    endloop
  endfacet
  facet normal 0 0 -1
    outer loop
      vertex 86.042 49.3133 -15
      vertex 127.2 5.8 -15
      vertex 86.25 48 -15
    endloop
  endfacet
  facet normal 0 0 -1
    outer loop
      vertex 124.2 2.8 -15
      vertex 127.174 5.40842 -15
      vertex 127.098 5.02354 -15
    endloop
  endfacet
  facet normal 0 0 -1
    outer loop
      vertex 127.2 5.8 -15
      vertex 86.042 49.3133 -15
      vertex 127.2 151.2 -15
    endloop
  endfacet
  facet normal 0 0 -1
    outer loop
      vertex 124.2 2.8 -15
      vertex 127.098 5.02354 -15
      vertex 126.972 4.65195 -15
    endloop
  endfacet
  facet normal 0 0 -1
    outer loop
      vertex 86.042 110.313 -15
      vertex 127.2 151.2 -15
      vertex 86.25 109 -15
    endloop
  endfacet
  facet normal 0 0 -1
    outer loop
      vertex 124.2 2.8 -15
      vertex 126.972 4.65195 -15
      vertex 126.798 4.3 -15
    endloop
  endfacet
  facet normal 0 0 -1
    outer loop
      vertex 85.4383 111.498 -15
      vertex 127.2 151.2 -15
      vertex 86.042 110.313 -15
    endloop
  endfacet
  facet normal 0 0 -1
    outer loop
      vertex 124.2 2.8 -15
      vertex 126.798 4.3 -15
      vertex 126.58 3.97371 -15
    endloop
  endfacet
  facet normal 0 -0 -1
    outer loop
      vertex 124.2 154.2 -15
      vertex 127.2 151.2 -15
      vertex 85.4383 111.498 -15
    endloop
  endfacet
  facet normal 0 0 -1
    outer loop
      vertex 124.2 2.8 -15
      vertex 126.58 3.97371 -15
      vertex 126.321 3.67868 -15
    endloop
  endfacet
  facet normal 0 0 -1
    outer loop
      vertex 127.2 151.2 -15
      vertex 124.2 154.2 -15
      vertex 127.174 151.592 -15
    endloop
  endfacet
  facet normal 0 0 -1
    outer loop
      vertex 124.2 2.8 -15
      vertex 126.321 3.67868 -15
      vertex 126.026 3.41994 -15
    endloop
  endfacet
  facet normal 0 0 -1
    outer loop
      vertex 127.174 151.592 -15
      vertex 124.2 154.2 -15
      vertex 127.098 151.976 -15
    endloop
  endfacet
  facet normal 0 0 -1
    outer loop
      vertex 124.2 2.8 -15
      vertex 126.026 3.41994 -15
      vertex 125.7 3.20192 -15
    endloop
  endfacet
  facet normal 0 0 -1
    outer loop
      vertex 127.098 151.976 -15
      vertex 124.2 154.2 -15
      vertex 126.972 152.348 -15
    endloop
  endfacet
  facet normal 0 0 -1
    outer loop
      vertex 124.2 2.8 -15
      vertex 125.7 3.20192 -15
      vertex 125.348 3.02836 -15
    endloop
  endfacet
  facet normal 0 0 -1
    outer loop
      vertex 126.972 152.348 -15
      vertex 124.2 154.2 -15
      vertex 126.798 152.7 -15
    endloop
  endfacet
  facet normal 0 0 -1
    outer loop
      vertex 124.2 2.8 -15
      vertex 125.348 3.02836 -15
      vertex 124.976 2.90222 -15
    endloop
  endfacet
  facet normal 0 0 -1
    outer loop
      vertex 126.58 153.026 -15
      vertex 124.2 154.2 -15
      vertex 126.321 153.321 -15
    endloop
  endfacet
  facet normal 0 0 -1
    outer loop
      vertex 124.2 2.8 -15
      vertex 124.976 2.90222 -15
      vertex 124.592 2.82566 -15
    endloop
  endfacet
  facet normal 0 0 -1
    outer loop
      vertex 126.321 153.321 -15
      vertex 124.2 154.2 -15
      vertex 126.026 153.58 -15
    endloop
  endfacet
  facet normal -0 0 -1
    outer loop
      vertex 127.2 5.8 -15
      vertex 124.2 2.8 -15
      vertex 85.4383 45.5019 -15
    endloop
  endfacet
  facet normal 0 0 -1
    outer loop
      vertex 126.026 153.58 -15
      vertex 124.2 154.2 -15
      vertex 125.7 153.798 -15
    endloop
  endfacet
  facet normal 0 0 -1
    outer loop
      vertex 125.7 153.798 -15
      vertex 124.2 154.2 -15
      vertex 125.348 153.972 -15
    endloop
  endfacet
  facet normal 0 0 -1
    outer loop
      vertex 127.2 5.8 -15
      vertex 86.042 46.6867 -15
      vertex 86.25 48 -15
    endloop
  endfacet
  facet normal 0 0 -1
    outer loop
      vertex 127.2 5.8 -15
      vertex 85.4383 45.5019 -15
      vertex 86.042 46.6867 -15
    endloop
  endfacet
  facet normal 0 0 -1
    outer loop
      vertex 124.2 2.8 -15
      vertex 84.4981 44.5617 -15
      vertex 85.4383 45.5019 -15
    endloop
  endfacet
  facet normal 0 0 -1
    outer loop
      vertex 124.2 2.8 -15
      vertex 83.3133 43.958 -15
      vertex 84.4981 44.5617 -15
    endloop
  endfacet
  facet normal 0 0 -1
    outer loop
      vertex 124.2 2.8 -15
      vertex 82 43.75 -15
      vertex 83.3133 43.958 -15
    endloop
  endfacet
  facet normal 0 0 -1
    outer loop
      vertex 124.2 2.8 -15
      vertex 80.6867 43.958 -15
      vertex 82 43.75 -15
    endloop
  endfacet
  facet normal 0 0 -1
    outer loop
      vertex 49.3133 43.958 -15
      vertex 80.6867 43.958 -15
      vertex 124.2 2.8 -15
    endloop
  endfacet
  facet normal 0 0 -1
    outer loop
      vertex 78.5617 106.502 -15
      vertex 52.25 109 -15
      vertex 77.958 107.687 -15
    endloop
  endfacet
  facet normal 0 0 -1
    outer loop
      vertex 77.958 46.6867 -15
      vertex 52.25 48 -15
      vertex 77.75 48 -15
    endloop
  endfacet
  facet normal 0 0 -1
    outer loop
      vertex 52.042 46.6867 -15
      vertex 77.958 46.6867 -15
      vertex 78.5617 45.5019 -15
    endloop
  endfacet
  facet normal 0 0 -1
    outer loop
      vertex 51.4383 45.5019 -15
      vertex 78.5617 45.5019 -15
      vertex 79.5019 44.5617 -15
    endloop
  endfacet
  facet normal 0 0 -1
    outer loop
      vertex 80.6867 43.958 -15
      vertex 49.3133 43.958 -15
      vertex 79.5019 44.5617 -15
    endloop
  endfacet
  facet normal 0 0 -1
    outer loop
      vertex 77.958 46.6867 -15
      vertex 52.042 46.6867 -15
      vertex 52.25 48 -15
    endloop
  endfacet
  facet normal 0 0 -1
    outer loop
      vertex 78.5617 45.5019 -15
      vertex 51.4383 45.5019 -15
      vertex 52.042 46.6867 -15
    endloop
  endfacet
  facet normal 0 0 -1
    outer loop
      vertex 79.5019 44.5617 -15
      vertex 50.4981 44.5617 -15
      vertex 51.4383 45.5019 -15
    endloop
  endfacet
  facet normal -0 0 -1
    outer loop
      vertex 79.5019 44.5617 -15
      vertex 49.3133 43.958 -15
      vertex 50.4981 44.5617 -15
    endloop
  endfacet
  facet normal 0 0 -1
    outer loop
      vertex 5.8 2.8 -15
      vertex 49.3133 43.958 -15
      vertex 124.2 2.8 -15
    endloop
  endfacet
  facet normal 0 0 -1
    outer loop
      vertex 49.3133 43.958 -15
      vertex 5.8 2.8 -15
      vertex 48 43.75 -15
    endloop
  endfacet
  facet normal -0 0 -1
    outer loop
      vertex 48 43.75 -15
      vertex 5.8 2.8 -15
      vertex 46.6867 43.958 -15
    endloop
  endfacet
  facet normal -0 0 -1
    outer loop
      vertex 43.958 46.6867 -15
      vertex 2.8 5.8 -15
      vertex 43.75 48 -15
    endloop
  endfacet
  facet normal -0 0 -1
    outer loop
      vertex 44.5617 45.5019 -15
      vertex 2.8 5.8 -15
      vertex 43.958 46.6867 -15
    endloop
  endfacet
  facet normal 0 0 -1
    outer loop
      vertex 2.8 5.8 -15
      vertex 44.5617 45.5019 -15
      vertex 5.8 2.8 -15
    endloop
  endfacet
  facet normal -0 0 -1
    outer loop
      vertex 45.5019 44.5617 -15
      vertex 5.8 2.8 -15
      vertex 44.5617 45.5019 -15
    endloop
  endfacet
  facet normal -0 0 -1
    outer loop
      vertex 46.6867 43.958 -15
      vertex 5.8 2.8 -15
      vertex 45.5019 44.5617 -15
    endloop
  endfacet
  facet normal 0 0 -1
    outer loop
      vertex 125.348 153.972 -15
      vertex 124.2 154.2 -15
      vertex 124.976 154.098 -15
    endloop
  endfacet
  facet normal 0 0 -1
    outer loop
      vertex 124.976 154.098 -15
      vertex 124.2 154.2 -15
      vertex 124.592 154.174 -15
    endloop
  endfacet
  facet normal 0 0 -1
    outer loop
      vertex 126.798 152.7 -15
      vertex 124.2 154.2 -15
      vertex 126.58 153.026 -15
    endloop
  endfacet
  facet normal 0 0 -1
    outer loop
      vertex 84.4981 112.438 -15
      vertex 124.2 154.2 -15
      vertex 85.4383 111.498 -15
    endloop
  endfacet
  facet normal 0 0 -1
    outer loop
      vertex 83.3133 113.042 -15
      vertex 124.2 154.2 -15
      vertex 84.4981 112.438 -15
    endloop
  endfacet
  facet normal 0 0 -1
    outer loop
      vertex 82 113.25 -15
      vertex 124.2 154.2 -15
      vertex 83.3133 113.042 -15
    endloop
  endfacet
  facet normal 0 0 -1
    outer loop
      vertex 80.6867 113.042 -15
      vertex 124.2 154.2 -15
      vertex 82 113.25 -15
    endloop
  endfacet
  facet normal 0 0 -1
    outer loop
      vertex 49.3133 113.042 -15
      vertex 80.6867 113.042 -15
      vertex 79.5019 112.438 -15
    endloop
  endfacet
  facet normal 0 0 -1
    outer loop
      vertex 77.958 107.687 -15
      vertex 52.25 109 -15
      vertex 77.75 109 -15
    endloop
  endfacet
  facet normal 0 0 -1
    outer loop
      vertex 77.75 109 -15
      vertex 52.25 109 -15
      vertex 77.958 110.313 -15
    endloop
  endfacet
  facet normal 0 0 -1
    outer loop
      vertex 52.042 110.313 -15
      vertex 77.958 110.313 -15
      vertex 52.25 109 -15
    endloop
  endfacet
  facet normal 0 0 -1
    outer loop
      vertex 77.958 110.313 -15
      vertex 52.042 110.313 -15
      vertex 78.5617 111.498 -15
    endloop
  endfacet
  facet normal 0 0 -1
    outer loop
      vertex 51.4383 111.498 -15
      vertex 78.5617 111.498 -15
      vertex 52.042 110.313 -15
    endloop
  endfacet
  facet normal 0 0 -1
    outer loop
      vertex 78.5617 111.498 -15
      vertex 51.4383 111.498 -15
      vertex 79.5019 112.438 -15
    endloop
  endfacet
  facet normal 0 0 -1
    outer loop
      vertex 50.4981 112.438 -15
      vertex 79.5019 112.438 -15
      vertex 51.4383 111.498 -15
    endloop
  endfacet
  facet normal 0 0 -1
    outer loop
      vertex 49.3133 113.042 -15
      vertex 79.5019 112.438 -15
      vertex 50.4981 112.438 -15
    endloop
  endfacet
  facet normal 0 0 -1
    outer loop
      vertex 80.6867 113.042 -15
      vertex 49.3133 113.042 -15
      vertex 124.2 154.2 -15
    endloop
  endfacet
  facet normal 0 0 -1
    outer loop
      vertex 5.8 154.2 -15
      vertex 49.3133 113.042 -15
      vertex 48 113.25 -15
    endloop
  endfacet
  facet normal 0 0 -1
    outer loop
      vertex 5.8 154.2 -15
      vertex 48 113.25 -15
      vertex 46.6867 113.042 -15
    endloop
  endfacet
  facet normal 0 0 -1
    outer loop
      vertex 5.8 154.2 -15
      vertex 46.6867 113.042 -15
      vertex 45.5019 112.438 -15
    endloop
  endfacet
  facet normal 0 0 -1
    outer loop
      vertex 2.8 151.2 -15
      vertex 43.958 107.687 -15
      vertex 2.8 5.8 -15
    endloop
  endfacet
  facet normal 0 0 -1
    outer loop
      vertex 49.3133 113.042 -15
      vertex 5.8 154.2 -15
      vertex 124.2 154.2 -15
    endloop
  endfacet
  facet normal 0 0 -1
    outer loop
      vertex 44.5617 111.498 -15
      vertex 5.8 154.2 -15
      vertex 45.5019 112.438 -15
    endloop
  endfacet
  facet normal 0 0 -1
    outer loop
      vertex 2.8 151.2 -15
      vertex 44.5617 111.498 -15
      vertex 43.958 110.313 -15
    endloop
  endfacet
  facet normal 0 0 -1
    outer loop
      vertex 43.958 107.687 -15
      vertex 2.8 151.2 -15
      vertex 43.75 109 -15
    endloop
  endfacet
  facet normal 0 0 -1
    outer loop
      vertex 2.8 5.8 -15
      vertex 5.8 2.8 -15
      vertex 5.40842 2.82566 -15
    endloop
  endfacet
  facet normal 0 0 -1
    outer loop
      vertex 43.75 109 -15
      vertex 2.8 151.2 -15
      vertex 43.958 110.313 -15
    endloop
  endfacet
  facet normal 0 0 -1
    outer loop
      vertex 2.8 5.8 -15
      vertex 5.40842 2.82566 -15
      vertex 5.02354 2.90222 -15
    endloop
  endfacet
  facet normal 0 0 -1
    outer loop
      vertex 44.5617 111.498 -15
      vertex 2.8 151.2 -15
      vertex 5.8 154.2 -15
    endloop
  endfacet
  facet normal 0 0 -1
    outer loop
      vertex 2.8 5.8 -15
      vertex 5.02354 2.90222 -15
      vertex 4.65195 3.02836 -15
    endloop
  endfacet
  facet normal 0 0 -1
    outer loop
      vertex 5.8 154.2 -15
      vertex 2.8 151.2 -15
      vertex 5.40842 154.174 -15
    endloop
  endfacet
  facet normal 0 0 -1
    outer loop
      vertex 2.8 5.8 -15
      vertex 4.65195 3.02836 -15
      vertex 4.3 3.20192 -15
    endloop
  endfacet
  facet normal 0 0 -1
    outer loop
      vertex 5.40842 154.174 -15
      vertex 2.8 151.2 -15
      vertex 5.02354 154.098 -15
    endloop
  endfacet
  facet normal 0 0 -1
    outer loop
      vertex 2.8 5.8 -15
      vertex 4.3 3.20192 -15
      vertex 3.97371 3.41994 -15
    endloop
  endfacet
  facet normal 0 0 -1
    outer loop
      vertex 5.02354 154.098 -15
      vertex 2.8 151.2 -15
      vertex 4.65195 153.972 -15
    endloop
  endfacet
  facet normal 0 0 -1
    outer loop
      vertex 2.8 5.8 -15
      vertex 3.97371 3.41994 -15
      vertex 3.67868 3.67868 -15
    endloop
  endfacet
  facet normal 0 0 -1
    outer loop
      vertex 4.65195 153.972 -15
      vertex 2.8 151.2 -15
      vertex 4.3 153.798 -15
    endloop
  endfacet
  facet normal 0 0 -1
    outer loop
      vertex 2.8 5.8 -15
      vertex 3.67868 3.67868 -15
      vertex 3.41994 3.97371 -15
    endloop
  endfacet
  facet normal 0 0 -1
    outer loop
      vertex 4.3 153.798 -15
      vertex 2.8 151.2 -15
      vertex 3.97371 153.58 -15
    endloop
  endfacet
  facet normal 0 0 -1
    outer loop
      vertex 2.8 5.8 -15
      vertex 3.41994 3.97371 -15
      vertex 3.20192 4.3 -15
    endloop
  endfacet
  facet normal 0 0 -1
    outer loop
      vertex 3.97371 153.58 -15
      vertex 2.8 151.2 -15
      vertex 3.67868 153.321 -15
    endloop
  endfacet
  facet normal 0 0 -1
    outer loop
      vertex 2.8 5.8 -15
      vertex 3.20192 4.3 -15
      vertex 3.02836 4.65195 -15
    endloop
  endfacet
  facet normal 0 0 -1
    outer loop
      vertex 3.67868 153.321 -15
      vertex 2.8 151.2 -15
      vertex 3.41994 153.026 -15
    endloop
  endfacet
  facet normal 0 0 -1
    outer loop
      vertex 2.8 5.8 -15
      vertex 3.02836 4.65195 -15
      vertex 2.90222 5.02354 -15
    endloop
  endfacet
  facet normal 0 0 -1
    outer loop
      vertex 3.41994 153.026 -15
      vertex 2.8 151.2 -15
      vertex 3.20192 152.7 -15
    endloop
  endfacet
  facet normal 0 0 -1
    outer loop
      vertex 2.8 5.8 -15
      vertex 2.90222 5.02354 -15
      vertex 2.82566 5.40842 -15
    endloop
  endfacet
  facet normal 0 0 -1
    outer loop
      vertex 3.20192 152.7 -15
      vertex 2.8 151.2 -15
      vertex 3.02836 152.348 -15
    endloop
  endfacet
  facet normal 0 0 -1
    outer loop
      vertex 3.02836 152.348 -15
      vertex 2.8 151.2 -15
      vertex 2.90222 151.976 -15
    endloop
  endfacet
  facet normal 0 0 -1
    outer loop
      vertex 2.90222 151.976 -15
      vertex 2.8 151.2 -15
      vertex 2.82566 151.592 -15
    endloop
  endfacet
  facet normal 0.896455 0.443134 0
    outer loop
      vertex 126.972 152.348 -12
      vertex 126.798 152.7 -15
      vertex 126.798 152.7 -12
    endloop
  endfacet
  facet normal 0.896455 0.443134 0
    outer loop
      vertex 126.798 152.7 -15
      vertex 126.972 152.348 -12
      vertex 126.972 152.348 -15
    endloop
  endfacet
  facet normal -0.947036 0.321127 0
    outer loop
      vertex 2.90222 151.976 -15
      vertex 3.02836 152.348 -12
      vertex 3.02836 152.348 -15
    endloop
  endfacet
  facet normal -0.947036 0.321127 0
    outer loop
      vertex 3.02836 152.348 -12
      vertex 2.90222 151.976 -15
      vertex 2.90222 151.976 -12
    endloop
  endfacet
  facet normal 0.555877 0.831265 -0
    outer loop
      vertex 126.026 153.58 -15
      vertex 125.7 153.798 -12
      vertex 126.026 153.58 -12
    endloop
  endfacet
  facet normal 0.555877 0.831265 0
    outer loop
      vertex 125.7 153.798 -12
      vertex 126.026 153.58 -15
      vertex 125.7 153.798 -15
    endloop
  endfacet
  facet normal -0.55557 -0.83147 0
    outer loop
      vertex 3.97371 3.41994 -15
      vertex 4.3 3.20192 -12
      vertex 3.97371 3.41994 -12
    endloop
  endfacet
  facet normal -0.55557 -0.83147 -0
    outer loop
      vertex 4.3 3.20192 -12
      vertex 3.97371 3.41994 -15
      vertex 4.3 3.20192 -15
    endloop
  endfacet
  facet normal 0.751471 0.659766 0
    outer loop
      vertex 126.58 153.026 -12
      vertex 126.321 153.321 -15
      vertex 126.321 153.321 -12
    endloop
  endfacet
  facet normal 0.751471 0.659766 0
    outer loop
      vertex 126.321 153.321 -15
      vertex 126.58 153.026 -12
      vertex 126.58 153.026 -15
    endloop
  endfacet
  facet normal -0.83147 -0.55557 0
    outer loop
      vertex 3.41994 3.97371 -15
      vertex 3.20192 4.3 -12
      vertex 3.20192 4.3 -15
    endloop
  endfacet
  facet normal -0.83147 -0.55557 0
    outer loop
      vertex 3.20192 4.3 -12
      vertex 3.41994 3.97371 -15
      vertex 3.41994 3.97371 -12
    endloop
  endfacet
  facet normal -0.946928 -0.321444 0
    outer loop
      vertex 3.02836 4.65195 -15
      vertex 2.90222 5.02354 -12
      vertex 2.90222 5.02354 -15
    endloop
  endfacet
  facet normal -0.946928 -0.321444 0
    outer loop
      vertex 2.90222 5.02354 -12
      vertex 3.02836 4.65195 -15
      vertex 3.02836 4.65195 -12
    endloop
  endfacet
  facet normal 0.443134 0.896455 -0
    outer loop
      vertex 125.7 153.798 -15
      vertex 125.348 153.972 -12
      vertex 125.7 153.798 -12
    endloop
  endfacet
  facet normal 0.443134 0.896455 0
    outer loop
      vertex 125.348 153.972 -12
      vertex 125.7 153.798 -15
      vertex 125.348 153.972 -15
    endloop
  endfacet
  facet normal -0.442283 -0.896875 0
    outer loop
      vertex 4.3 3.20192 -15
      vertex 4.65195 3.02836 -12
      vertex 4.3 3.20192 -12
    endloop
  endfacet
  facet normal -0.442283 -0.896875 -0
    outer loop
      vertex 4.65195 3.02836 -12
      vertex 4.3 3.20192 -15
      vertex 4.65195 3.02836 -15
    endloop
  endfacet
endsolid OpenSCAD_Model
