solid OpenSCAD_Model
  facet normal -0.15643 -0.987689 0
    outer loop
      vertex 38 42.25 -15
      vertex 39.3133 42.042 -12
      vertex 38 42.25 -12
    endloop
  endfacet
  facet normal -0.15643 -0.987689 -0
    outer loop
      vertex 39.3133 42.042 -12
      vertex 38 42.25 -15
      vertex 39.3133 42.042 -15
    endloop
  endfacet
  facet normal -0.891002 -0.453999 0
    outer loop
      vertex 42.042 39.3133 -15
      vertex 41.4383 40.4981 -12
      vertex 41.4383 40.4981 -15
    endloop
  endfacet
  facet normal -0.891002 -0.453999 0
    outer loop
      vertex 41.4383 40.4981 -12
      vertex 42.042 39.3133 -15
      vertex 42.042 39.3133 -12
    endloop
  endfacet
  facet normal -0.987689 -0.15643 0
    outer loop
      vertex 42.25 38 -15
      vertex 42.042 39.3133 -12
      vertex 42.042 39.3133 -15
    endloop
  endfacet
  facet normal -0.987689 -0.15643 0
    outer loop
      vertex 42.042 39.3133 -12
      vertex 42.25 38 -15
      vertex 42.25 38 -12
    endloop
  endfacet
  facet normal -0.707107 -0.707107 0
    outer loop
      vertex 41.4383 40.4981 -15
      vertex 40.4981 41.4383 -12
      vertex 40.4981 41.4383 -15
    endloop
  endfacet
  facet normal -0.707107 -0.707107 0
    outer loop
      vertex 40.4981 41.4383 -12
      vertex 41.4383 40.4981 -15
      vertex 41.4383 40.4981 -12
    endloop
  endfacet
  facet normal -0.891002 0.453999 0
    outer loop
      vertex 41.4383 35.5019 -15
      vertex 42.042 36.6867 -12
      vertex 42.042 36.6867 -15
    endloop
  endfacet
  facet normal -0.891002 0.453999 0
    outer loop
      vertex 42.042 36.6867 -12
      vertex 41.4383 35.5019 -15
      vertex 41.4383 35.5019 -12
    endloop
  endfacet
  facet normal -0.453999 0.891002 0
    outer loop
      vertex 40.4981 34.5617 -15
      vertex 39.3133 33.958 -12
      vertex 40.4981 34.5617 -12
    endloop
  endfacet
  facet normal -0.453999 0.891002 0
    outer loop
      vertex 39.3133 33.958 -12
      vertex 40.4981 34.5617 -15
      vertex 39.3133 33.958 -15
    endloop
  endfacet
  facet normal 0.707107 -0.707107 0
    outer loop
      vertex 34.5617 40.4981 -12
      vertex 35.5019 41.4383 -15
      vertex 35.5019 41.4383 -12
    endloop
  endfacet
  facet normal 0.707107 -0.707107 0
    outer loop
      vertex 35.5019 41.4383 -15
      vertex 34.5617 40.4981 -12
      vertex 34.5617 40.4981 -15
    endloop
  endfacet
  facet normal -0.707107 0.707107 0
    outer loop
      vertex 41.4383 35.5019 -15
      vertex 40.4981 34.5617 -12
      vertex 41.4383 35.5019 -12
    endloop
  endfacet
  facet normal -0.707107 0.707107 0
    outer loop
      vertex 40.4981 34.5617 -12
      vertex 41.4383 35.5019 -15
      vertex 40.4981 34.5617 -15
    endloop
  endfacet
  facet normal 0.453999 0.891002 -0
    outer loop
      vertex 36.6867 33.958 -15
      vertex 35.5019 34.5617 -12
      vertex 36.6867 33.958 -12
    endloop
  endfacet
  facet normal 0.453999 0.891002 0
    outer loop
      vertex 35.5019 34.5617 -12
      vertex 36.6867 33.958 -15
      vertex 35.5019 34.5617 -15
    endloop
  endfacet
  facet normal 0.891002 -0.453999 0
    outer loop
      vertex 33.958 39.3133 -12
      vertex 34.5617 40.4981 -15
      vertex 34.5617 40.4981 -12
    endloop
  endfacet
  facet normal 0.891002 -0.453999 0
    outer loop
      vertex 34.5617 40.4981 -15
      vertex 33.958 39.3133 -12
      vertex 33.958 39.3133 -15
    endloop
  endfacet
  facet normal 0.15643 0.987689 -0
    outer loop
      vertex 38 33.75 -15
      vertex 36.6867 33.958 -12
      vertex 38 33.75 -12
    endloop
  endfacet
  facet normal 0.15643 0.987689 0
    outer loop
      vertex 36.6867 33.958 -12
      vertex 38 33.75 -15
      vertex 36.6867 33.958 -15
    endloop
  endfacet
  facet normal -0.15643 0.987689 0
    outer loop
      vertex 39.3133 33.958 -15
      vertex 38 33.75 -12
      vertex 39.3133 33.958 -12
    endloop
  endfacet
  facet normal -0.15643 0.987689 0
    outer loop
      vertex 38 33.75 -12
      vertex 39.3133 33.958 -15
      vertex 38 33.75 -15
    endloop
  endfacet
  facet normal -0.987689 0.15643 0
    outer loop
      vertex 42.042 36.6867 -15
      vertex 42.25 38 -12
      vertex 42.25 38 -15
    endloop
  endfacet
  facet normal -0.987689 0.15643 0
    outer loop
      vertex 42.25 38 -12
      vertex 42.042 36.6867 -15
      vertex 42.042 36.6867 -12
    endloop
  endfacet
  facet normal 0.15643 -0.987689 0
    outer loop
      vertex 36.6867 42.042 -15
      vertex 38 42.25 -12
      vertex 36.6867 42.042 -12
    endloop
  endfacet
  facet normal 0.15643 -0.987689 0
    outer loop
      vertex 38 42.25 -12
      vertex 36.6867 42.042 -15
      vertex 38 42.25 -15
    endloop
  endfacet
  facet normal 0.707107 0.707107 0
    outer loop
      vertex 35.5019 34.5617 -12
      vertex 34.5617 35.5019 -15
      vertex 34.5617 35.5019 -12
    endloop
  endfacet
  facet normal 0.707107 0.707107 0
    outer loop
      vertex 34.5617 35.5019 -15
      vertex 35.5019 34.5617 -12
      vertex 35.5019 34.5617 -15
    endloop
  endfacet
  facet normal 0.453999 -0.891002 0
    outer loop
      vertex 35.5019 41.4383 -15
      vertex 36.6867 42.042 -12
      vertex 35.5019 41.4383 -12
    endloop
  endfacet
  facet normal 0.453999 -0.891002 0
    outer loop
      vertex 36.6867 42.042 -12
      vertex 35.5019 41.4383 -15
      vertex 36.6867 42.042 -15
    endloop
  endfacet
  facet normal 0.987689 0.15643 0
    outer loop
      vertex 33.958 36.6867 -12
      vertex 33.75 38 -15
      vertex 33.75 38 -12
    endloop
  endfacet
  facet normal 0.987689 0.15643 0
    outer loop
      vertex 33.75 38 -15
      vertex 33.958 36.6867 -12
      vertex 33.958 36.6867 -15
    endloop
  endfacet
  facet normal -0.453999 -0.891002 0
    outer loop
      vertex 39.3133 42.042 -15
      vertex 40.4981 41.4383 -12
      vertex 39.3133 42.042 -12
    endloop
  endfacet
  facet normal -0.453999 -0.891002 -0
    outer loop
      vertex 40.4981 41.4383 -12
      vertex 39.3133 42.042 -15
      vertex 40.4981 41.4383 -15
    endloop
  endfacet
  facet normal 0.891002 0.453999 0
    outer loop
      vertex 34.5617 35.5019 -12
      vertex 33.958 36.6867 -15
      vertex 33.958 36.6867 -12
    endloop
  endfacet
  facet normal 0.891002 0.453999 0
    outer loop
      vertex 33.958 36.6867 -15
      vertex 34.5617 35.5019 -12
      vertex 34.5617 35.5019 -15
    endloop
  endfacet
  facet normal 0.987689 -0.15643 0
    outer loop
      vertex 33.75 38 -12
      vertex 33.958 39.3133 -15
      vertex 33.958 39.3133 -12
    endloop
  endfacet
  facet normal 0.987689 -0.15643 0
    outer loop
      vertex 33.958 39.3133 -15
      vertex 33.75 38 -12
      vertex 33.75 38 -15
    endloop
  endfacet
  facet normal -0.15643 -0.987689 0
    outer loop
      vertex 92 42.25 -15
      vertex 93.3133 42.042 -12
      vertex 92 42.25 -12
    endloop
  endfacet
  facet normal -0.15643 -0.987689 -0
    outer loop
      vertex 93.3133 42.042 -12
      vertex 92 42.25 -15
      vertex 93.3133 42.042 -15
    endloop
  endfacet
  facet normal -0.891002 -0.453999 0
    outer loop
      vertex 96.042 39.3133 -15
      vertex 95.4383 40.4981 -12
      vertex 95.4383 40.4981 -15
    endloop
  endfacet
  facet normal -0.891002 -0.453999 0
    outer loop
      vertex 95.4383 40.4981 -12
      vertex 96.042 39.3133 -15
      vertex 96.042 39.3133 -12
    endloop
  endfacet
  facet normal -0.987689 -0.15643 0
    outer loop
      vertex 96.25 38 -15
      vertex 96.042 39.3133 -12
      vertex 96.042 39.3133 -15
    endloop
  endfacet
  facet normal -0.987689 -0.15643 0
    outer loop
      vertex 96.042 39.3133 -12
      vertex 96.25 38 -15
      vertex 96.25 38 -12
    endloop
  endfacet
  facet normal -0.707107 -0.707107 0
    outer loop
      vertex 95.4383 40.4981 -15
      vertex 94.4981 41.4383 -12
      vertex 94.4981 41.4383 -15
    endloop
  endfacet
  facet normal -0.707107 -0.707107 0
    outer loop
      vertex 94.4981 41.4383 -12
      vertex 95.4383 40.4981 -15
      vertex 95.4383 40.4981 -12
    endloop
  endfacet
  facet normal -0.891002 0.453999 0
    outer loop
      vertex 95.4383 35.5019 -15
      vertex 96.042 36.6867 -12
      vertex 96.042 36.6867 -15
    endloop
  endfacet
  facet normal -0.891002 0.453999 0
    outer loop
      vertex 96.042 36.6867 -12
      vertex 95.4383 35.5019 -15
      vertex 95.4383 35.5019 -12
    endloop
  endfacet
  facet normal -0.453999 0.891002 0
    outer loop
      vertex 94.4981 34.5617 -15
      vertex 93.3133 33.958 -12
      vertex 94.4981 34.5617 -12
    endloop
  endfacet
  facet normal -0.453999 0.891002 0
    outer loop
      vertex 93.3133 33.958 -12
      vertex 94.4981 34.5617 -15
      vertex 93.3133 33.958 -15
    endloop
  endfacet
  facet normal 0.707107 -0.707107 0
    outer loop
      vertex 88.5617 40.4981 -12
      vertex 89.5019 41.4383 -15
      vertex 89.5019 41.4383 -12
    endloop
  endfacet
  facet normal 0.707107 -0.707107 0
    outer loop
      vertex 89.5019 41.4383 -15
      vertex 88.5617 40.4981 -12
      vertex 88.5617 40.4981 -15
    endloop
  endfacet
  facet normal -0.707107 0.707107 0
    outer loop
      vertex 95.4383 35.5019 -15
      vertex 94.4981 34.5617 -12
      vertex 95.4383 35.5019 -12
    endloop
  endfacet
  facet normal -0.707107 0.707107 0
    outer loop
      vertex 94.4981 34.5617 -12
      vertex 95.4383 35.5019 -15
      vertex 94.4981 34.5617 -15
    endloop
  endfacet
  facet normal 0.453999 0.891002 -0
    outer loop
      vertex 90.6867 33.958 -15
      vertex 89.5019 34.5617 -12
      vertex 90.6867 33.958 -12
    endloop
  endfacet
  facet normal 0.453999 0.891002 0
    outer loop
      vertex 89.5019 34.5617 -12
      vertex 90.6867 33.958 -15
      vertex 89.5019 34.5617 -15
    endloop
  endfacet
  facet normal 0.891002 -0.453999 0
    outer loop
      vertex 87.958 39.3133 -12
      vertex 88.5617 40.4981 -15
      vertex 88.5617 40.4981 -12
    endloop
  endfacet
  facet normal 0.891002 -0.453999 0
    outer loop
      vertex 88.5617 40.4981 -15
      vertex 87.958 39.3133 -12
      vertex 87.958 39.3133 -15
    endloop
  endfacet
  facet normal 0.15643 0.987689 -0
    outer loop
      vertex 92 33.75 -15
      vertex 90.6867 33.958 -12
      vertex 92 33.75 -12
    endloop
  endfacet
  facet normal 0.15643 0.987689 0
    outer loop
      vertex 90.6867 33.958 -12
      vertex 92 33.75 -15
      vertex 90.6867 33.958 -15
    endloop
  endfacet
  facet normal -0.15643 0.987689 0
    outer loop
      vertex 93.3133 33.958 -15
      vertex 92 33.75 -12
      vertex 93.3133 33.958 -12
    endloop
  endfacet
  facet normal -0.15643 0.987689 0
    outer loop
      vertex 92 33.75 -12
      vertex 93.3133 33.958 -15
      vertex 92 33.75 -15
    endloop
  endfacet
  facet normal -0.987689 0.15643 0
    outer loop
      vertex 96.042 36.6867 -15
      vertex 96.25 38 -12
      vertex 96.25 38 -15
    endloop
  endfacet
  facet normal -0.987689 0.15643 0
    outer loop
      vertex 96.25 38 -12
      vertex 96.042 36.6867 -15
      vertex 96.042 36.6867 -12
    endloop
  endfacet
  facet normal 0.15643 -0.987689 0
    outer loop
      vertex 90.6867 42.042 -15
      vertex 92 42.25 -12
      vertex 90.6867 42.042 -12
    endloop
  endfacet
  facet normal 0.15643 -0.987689 0
    outer loop
      vertex 92 42.25 -12
      vertex 90.6867 42.042 -15
      vertex 92 42.25 -15
    endloop
  endfacet
  facet normal 0.707107 0.707107 -0
    outer loop
      vertex 89.5019 34.5617 -15
      vertex 88.5617 35.5019 -12
      vertex 89.5019 34.5617 -12
    endloop
  endfacet
  facet normal 0.707107 0.707107 0
    outer loop
      vertex 88.5617 35.5019 -12
      vertex 89.5019 34.5617 -15
      vertex 88.5617 35.5019 -15
    endloop
  endfacet
  facet normal 0.453999 -0.891002 0
    outer loop
      vertex 89.5019 41.4383 -15
      vertex 90.6867 42.042 -12
      vertex 89.5019 41.4383 -12
    endloop
  endfacet
  facet normal 0.453999 -0.891002 0
    outer loop
      vertex 90.6867 42.042 -12
      vertex 89.5019 41.4383 -15
      vertex 90.6867 42.042 -15
    endloop
  endfacet
  facet normal 0.987689 0.15643 0
    outer loop
      vertex 87.958 36.6867 -12
      vertex 87.75 38 -15
      vertex 87.75 38 -12
    endloop
  endfacet
  facet normal 0.987689 0.15643 0
    outer loop
      vertex 87.75 38 -15
      vertex 87.958 36.6867 -12
      vertex 87.958 36.6867 -15
    endloop
  endfacet
  facet normal -0.453999 -0.891002 0
    outer loop
      vertex 93.3133 42.042 -15
      vertex 94.4981 41.4383 -12
      vertex 93.3133 42.042 -12
    endloop
  endfacet
  facet normal -0.453999 -0.891002 -0
    outer loop
      vertex 94.4981 41.4383 -12
      vertex 93.3133 42.042 -15
      vertex 94.4981 41.4383 -15
    endloop
  endfacet
  facet normal 0.891002 0.453999 0
    outer loop
      vertex 88.5617 35.5019 -12
      vertex 87.958 36.6867 -15
      vertex 87.958 36.6867 -12
    endloop
  endfacet
  facet normal 0.891002 0.453999 0
    outer loop
      vertex 87.958 36.6867 -15
      vertex 88.5617 35.5019 -12
      vertex 88.5617 35.5019 -15
    endloop
  endfacet
  facet normal 0.987689 -0.15643 0
    outer loop
      vertex 87.75 38 -12
      vertex 87.958 39.3133 -15
      vertex 87.958 39.3133 -12
    endloop
  endfacet
  facet normal 0.987689 -0.15643 0
    outer loop
      vertex 87.958 39.3133 -15
      vertex 87.75 38 -12
      vertex 87.75 38 -15
    endloop
  endfacet
  facet normal -0.15643 -0.987689 0
    outer loop
      vertex 38 123.25 -15
      vertex 39.3133 123.042 -12
      vertex 38 123.25 -12
    endloop
  endfacet
  facet normal -0.15643 -0.987689 -0
    outer loop
      vertex 39.3133 123.042 -12
      vertex 38 123.25 -15
      vertex 39.3133 123.042 -15
    endloop
  endfacet
  facet normal -0.891033 -0.453938 0
    outer loop
      vertex 42.042 120.313 -15
      vertex 41.4383 121.498 -12
      vertex 41.4383 121.498 -15
    endloop
  endfacet
  facet normal -0.891033 -0.453938 0
    outer loop
      vertex 41.4383 121.498 -12
      vertex 42.042 120.313 -15
      vertex 42.042 120.313 -12
    endloop
  endfacet
  facet normal -0.987684 -0.156465 0
    outer loop
      vertex 42.25 119 -15
      vertex 42.042 120.313 -12
      vertex 42.042 120.313 -15
    endloop
  endfacet
  facet normal -0.987684 -0.156465 0
    outer loop
      vertex 42.042 120.313 -12
      vertex 42.25 119 -15
      vertex 42.25 119 -12
    endloop
  endfacet
  facet normal -0.707032 -0.707182 0
    outer loop
      vertex 41.4383 121.498 -15
      vertex 40.4981 122.438 -12
      vertex 40.4981 122.438 -15
    endloop
  endfacet
  facet normal -0.707032 -0.707182 0
    outer loop
      vertex 40.4981 122.438 -12
      vertex 41.4383 121.498 -15
      vertex 41.4383 121.498 -12
    endloop
  endfacet
  facet normal -0.891033 0.453938 0
    outer loop
      vertex 41.4383 116.502 -15
      vertex 42.042 117.687 -12
      vertex 42.042 117.687 -15
    endloop
  endfacet
  facet normal -0.891033 0.453938 0
    outer loop
      vertex 42.042 117.687 -12
      vertex 41.4383 116.502 -15
      vertex 41.4383 116.502 -12
    endloop
  endfacet
  facet normal -0.454178 0.890911 0
    outer loop
      vertex 40.4981 115.562 -15
      vertex 39.3133 114.958 -12
      vertex 40.4981 115.562 -12
    endloop
  endfacet
  facet normal -0.454178 0.890911 0
    outer loop
      vertex 39.3133 114.958 -12
      vertex 40.4981 115.562 -15
      vertex 39.3133 114.958 -15
    endloop
  endfacet
  facet normal 0.707032 -0.707182 0
    outer loop
      vertex 34.5617 121.498 -12
      vertex 35.5019 122.438 -15
      vertex 35.5019 122.438 -12
    endloop
  endfacet
  facet normal 0.707032 -0.707182 0
    outer loop
      vertex 35.5019 122.438 -15
      vertex 34.5617 121.498 -12
      vertex 34.5617 121.498 -15
    endloop
  endfacet
  facet normal -0.707032 0.707182 0
    outer loop
      vertex 40.4981 115.562 -15
      vertex 41.4383 116.502 -12
      vertex 41.4383 116.502 -15
    endloop
  endfacet
  facet normal -0.707032 0.707182 0
    outer loop
      vertex 41.4383 116.502 -12
      vertex 40.4981 115.562 -15
      vertex 40.4981 115.562 -12
    endloop
  endfacet
  facet normal 0.454178 -0.890911 0
    outer loop
      vertex 35.5019 122.438 -15
      vertex 36.6867 123.042 -12
      vertex 35.5019 122.438 -12
    endloop
  endfacet
  facet normal 0.454178 -0.890911 0
    outer loop
      vertex 36.6867 123.042 -12
      vertex 35.5019 122.438 -15
      vertex 36.6867 123.042 -15
    endloop
  endfacet
  facet normal 0.454178 0.890911 -0
    outer loop
      vertex 36.6867 114.958 -15
      vertex 35.5019 115.562 -12
      vertex 36.6867 114.958 -12
    endloop
  endfacet
  facet normal 0.454178 0.890911 0
    outer loop
      vertex 35.5019 115.562 -12
      vertex 36.6867 114.958 -15
      vertex 35.5019 115.562 -15
    endloop
  endfacet
  facet normal 0.891033 -0.453938 0
    outer loop
      vertex 33.958 120.313 -12
      vertex 34.5617 121.498 -15
      vertex 34.5617 121.498 -12
    endloop
  endfacet
  facet normal 0.891033 -0.453938 0
    outer loop
      vertex 34.5617 121.498 -15
      vertex 33.958 120.313 -12
      vertex 33.958 120.313 -15
    endloop
  endfacet
  facet normal 0.15643 0.987689 -0
    outer loop
      vertex 38 114.75 -15
      vertex 36.6867 114.958 -12
      vertex 38 114.75 -12
    endloop
  endfacet
  facet normal 0.15643 0.987689 0
    outer loop
      vertex 36.6867 114.958 -12
      vertex 38 114.75 -15
      vertex 36.6867 114.958 -15
    endloop
  endfacet
  facet normal -0.15643 0.987689 0
    outer loop
      vertex 39.3133 114.958 -15
      vertex 38 114.75 -12
      vertex 39.3133 114.958 -12
    endloop
  endfacet
  facet normal -0.15643 0.987689 0
    outer loop
      vertex 38 114.75 -12
      vertex 39.3133 114.958 -15
      vertex 38 114.75 -15
    endloop
  endfacet
  facet normal -0.987684 0.156465 0
    outer loop
      vertex 42.042 117.687 -15
      vertex 42.25 119 -12
      vertex 42.25 119 -15
    endloop
  endfacet
  facet normal -0.987684 0.156465 0
    outer loop
      vertex 42.25 119 -12
      vertex 42.042 117.687 -15
      vertex 42.042 117.687 -12
    endloop
  endfacet
  facet normal 0.15643 -0.987689 0
    outer loop
      vertex 36.6867 123.042 -15
      vertex 38 123.25 -12
      vertex 36.6867 123.042 -12
    endloop
  endfacet
  facet normal 0.15643 -0.987689 0
    outer loop
      vertex 38 123.25 -12
      vertex 36.6867 123.042 -15
      vertex 38 123.25 -15
    endloop
  endfacet
  facet normal 0.707032 0.707182 0
    outer loop
      vertex 35.5019 115.562 -12
      vertex 34.5617 116.502 -15
      vertex 34.5617 116.502 -12
    endloop
  endfacet
  facet normal 0.707032 0.707182 0
    outer loop
      vertex 34.5617 116.502 -15
      vertex 35.5019 115.562 -12
      vertex 35.5019 115.562 -15
    endloop
  endfacet
  facet normal 0.987684 0.156465 0
    outer loop
      vertex 33.958 117.687 -12
      vertex 33.75 119 -15
      vertex 33.75 119 -12
    endloop
  endfacet
  facet normal 0.987684 0.156465 0
    outer loop
      vertex 33.75 119 -15
      vertex 33.958 117.687 -12
      vertex 33.958 117.687 -15
    endloop
  endfacet
  facet normal -0.454178 -0.890911 0
    outer loop
      vertex 39.3133 123.042 -15
      vertex 40.4981 122.438 -12
      vertex 39.3133 123.042 -12
    endloop
  endfacet
  facet normal -0.454178 -0.890911 -0
    outer loop
      vertex 40.4981 122.438 -12
      vertex 39.3133 123.042 -15
      vertex 40.4981 122.438 -15
    endloop
  endfacet
  facet normal 0.891033 0.453938 0
    outer loop
      vertex 34.5617 116.502 -12
      vertex 33.958 117.687 -15
      vertex 33.958 117.687 -12
    endloop
  endfacet
  facet normal 0.891033 0.453938 0
    outer loop
      vertex 33.958 117.687 -15
      vertex 34.5617 116.502 -12
      vertex 34.5617 116.502 -15
    endloop
  endfacet
  facet normal 0.987684 -0.156465 0
    outer loop
      vertex 33.75 119 -12
      vertex 33.958 120.313 -15
      vertex 33.958 120.313 -12
    endloop
  endfacet
  facet normal 0.987684 -0.156465 0
    outer loop
      vertex 33.958 120.313 -15
      vertex 33.75 119 -12
      vertex 33.75 119 -15
    endloop
  endfacet
  facet normal -0.15643 -0.987689 0
    outer loop
      vertex 92 123.25 -15
      vertex 93.3133 123.042 -12
      vertex 92 123.25 -12
    endloop
  endfacet
  facet normal -0.15643 -0.987689 -0
    outer loop
      vertex 93.3133 123.042 -12
      vertex 92 123.25 -15
      vertex 93.3133 123.042 -15
    endloop
  endfacet
  facet normal -0.891033 -0.453938 0
    outer loop
      vertex 96.042 120.313 -15
      vertex 95.4383 121.498 -12
      vertex 95.4383 121.498 -15
    endloop
  endfacet
  facet normal -0.891033 -0.453938 0
    outer loop
      vertex 95.4383 121.498 -12
      vertex 96.042 120.313 -15
      vertex 96.042 120.313 -12
    endloop
  endfacet
  facet normal -0.987684 -0.156465 0
    outer loop
      vertex 96.25 119 -15
      vertex 96.042 120.313 -12
      vertex 96.042 120.313 -15
    endloop
  endfacet
  facet normal -0.987684 -0.156465 0
    outer loop
      vertex 96.042 120.313 -12
      vertex 96.25 119 -15
      vertex 96.25 119 -12
    endloop
  endfacet
  facet normal -0.707032 -0.707182 0
    outer loop
      vertex 95.4383 121.498 -15
      vertex 94.4981 122.438 -12
      vertex 94.4981 122.438 -15
    endloop
  endfacet
  facet normal -0.707032 -0.707182 0
    outer loop
      vertex 94.4981 122.438 -12
      vertex 95.4383 121.498 -15
      vertex 95.4383 121.498 -12
    endloop
  endfacet
  facet normal -0.891033 0.453938 0
    outer loop
      vertex 95.4383 116.502 -15
      vertex 96.042 117.687 -12
      vertex 96.042 117.687 -15
    endloop
  endfacet
  facet normal -0.891033 0.453938 0
    outer loop
      vertex 96.042 117.687 -12
      vertex 95.4383 116.502 -15
      vertex 95.4383 116.502 -12
    endloop
  endfacet
  facet normal -0.454178 0.890911 0
    outer loop
      vertex 94.4981 115.562 -15
      vertex 93.3133 114.958 -12
      vertex 94.4981 115.562 -12
    endloop
  endfacet
  facet normal -0.454178 0.890911 0
    outer loop
      vertex 93.3133 114.958 -12
      vertex 94.4981 115.562 -15
      vertex 93.3133 114.958 -15
    endloop
  endfacet
  facet normal 0.707032 -0.707182 0
    outer loop
      vertex 88.5617 121.498 -12
      vertex 89.5019 122.438 -15
      vertex 89.5019 122.438 -12
    endloop
  endfacet
  facet normal 0.707032 -0.707182 0
    outer loop
      vertex 89.5019 122.438 -15
      vertex 88.5617 121.498 -12
      vertex 88.5617 121.498 -15
    endloop
  endfacet
  facet normal -0.707032 0.707182 0
    outer loop
      vertex 94.4981 115.562 -15
      vertex 95.4383 116.502 -12
      vertex 95.4383 116.502 -15
    endloop
  endfacet
  facet normal -0.707032 0.707182 0
    outer loop
      vertex 95.4383 116.502 -12
      vertex 94.4981 115.562 -15
      vertex 94.4981 115.562 -12
    endloop
  endfacet
  facet normal 0.454178 0.890911 -0
    outer loop
      vertex 90.6867 114.958 -15
      vertex 89.5019 115.562 -12
      vertex 90.6867 114.958 -12
    endloop
  endfacet
  facet normal 0.454178 0.890911 0
    outer loop
      vertex 89.5019 115.562 -12
      vertex 90.6867 114.958 -15
      vertex 89.5019 115.562 -15
    endloop
  endfacet
  facet normal 0.891033 -0.453938 0
    outer loop
      vertex 87.958 120.313 -12
      vertex 88.5617 121.498 -15
      vertex 88.5617 121.498 -12
    endloop
  endfacet
  facet normal 0.891033 -0.453938 0
    outer loop
      vertex 88.5617 121.498 -15
      vertex 87.958 120.313 -12
      vertex 87.958 120.313 -15
    endloop
  endfacet
  facet normal 0.15643 0.987689 -0
    outer loop
      vertex 92 114.75 -15
      vertex 90.6867 114.958 -12
      vertex 92 114.75 -12
    endloop
  endfacet
  facet normal 0.15643 0.987689 0
    outer loop
      vertex 90.6867 114.958 -12
      vertex 92 114.75 -15
      vertex 90.6867 114.958 -15
    endloop
  endfacet
  facet normal -0.15643 0.987689 0
    outer loop
      vertex 93.3133 114.958 -15
      vertex 92 114.75 -12
      vertex 93.3133 114.958 -12
    endloop
  endfacet
  facet normal -0.15643 0.987689 0
    outer loop
      vertex 92 114.75 -12
      vertex 93.3133 114.958 -15
      vertex 92 114.75 -15
    endloop
  endfacet
  facet normal -0.987684 0.156465 0
    outer loop
      vertex 96.042 117.687 -15
      vertex 96.25 119 -12
      vertex 96.25 119 -15
    endloop
  endfacet
  facet normal -0.987684 0.156465 0
    outer loop
      vertex 96.25 119 -12
      vertex 96.042 117.687 -15
      vertex 96.042 117.687 -12
    endloop
  endfacet
  facet normal 0.15643 -0.987689 0
    outer loop
      vertex 90.6867 123.042 -15
      vertex 92 123.25 -12
      vertex 90.6867 123.042 -12
    endloop
  endfacet
  facet normal 0.15643 -0.987689 0
    outer loop
      vertex 92 123.25 -12
      vertex 90.6867 123.042 -15
      vertex 92 123.25 -15
    endloop
  endfacet
  facet normal 0.707032 0.707182 0
    outer loop
      vertex 89.5019 115.562 -12
      vertex 88.5617 116.502 -15
      vertex 88.5617 116.502 -12
    endloop
  endfacet
  facet normal 0.707032 0.707182 0
    outer loop
      vertex 88.5617 116.502 -15
      vertex 89.5019 115.562 -12
      vertex 89.5019 115.562 -15
    endloop
  endfacet
  facet normal 0.454178 -0.890911 0
    outer loop
      vertex 89.5019 122.438 -15
      vertex 90.6867 123.042 -12
      vertex 89.5019 122.438 -12
    endloop
  endfacet
  facet normal 0.454178 -0.890911 0
    outer loop
      vertex 90.6867 123.042 -12
      vertex 89.5019 122.438 -15
      vertex 90.6867 123.042 -15
    endloop
  endfacet
  facet normal 0.987684 0.156465 0
    outer loop
      vertex 87.958 117.687 -12
      vertex 87.75 119 -15
      vertex 87.75 119 -12
    endloop
  endfacet
  facet normal 0.987684 0.156465 0
    outer loop
      vertex 87.75 119 -15
      vertex 87.958 117.687 -12
      vertex 87.958 117.687 -15
    endloop
  endfacet
  facet normal -0.454178 -0.890911 0
    outer loop
      vertex 93.3133 123.042 -15
      vertex 94.4981 122.438 -12
      vertex 93.3133 123.042 -12
    endloop
  endfacet
  facet normal -0.454178 -0.890911 -0
    outer loop
      vertex 94.4981 122.438 -12
      vertex 93.3133 123.042 -15
      vertex 94.4981 122.438 -15
    endloop
  endfacet
  facet normal 0.891033 0.453938 0
    outer loop
      vertex 88.5617 116.502 -12
      vertex 87.958 117.687 -15
      vertex 87.958 117.687 -12
    endloop
  endfacet
  facet normal 0.891033 0.453938 0
    outer loop
      vertex 87.958 117.687 -15
      vertex 88.5617 116.502 -12
      vertex 88.5617 116.502 -15
    endloop
  endfacet
  facet normal 0.987684 -0.156465 0
    outer loop
      vertex 87.75 119 -12
      vertex 87.958 120.313 -15
      vertex 87.958 120.313 -12
    endloop
  endfacet
  facet normal 0.987684 -0.156465 0
    outer loop
      vertex 87.958 120.313 -15
      vertex 87.75 119 -12
      vertex 87.75 119 -15
    endloop
  endfacet
  facet normal 0.831493 -0.555535 0
    outer loop
      vertex 126.58 3.97371 -12
      vertex 126.798 4.3 -15
      vertex 126.798 4.3 -12
    endloop
  endfacet
  facet normal 0.831493 -0.555535 0
    outer loop
      vertex 126.798 4.3 -15
      vertex 126.58 3.97371 -12
      vertex 126.58 3.97371 -15
    endloop
  endfacet
  facet normal 1 -0 0
    outer loop
      vertex 127.2 5.8 -12
      vertex 127.2 151.2 -15
      vertex 127.2 151.2 -12
    endloop
  endfacet
  facet normal 1 0 0
    outer loop
      vertex 127.2 151.2 -15
      vertex 127.2 5.8 -12
      vertex 127.2 5.8 -15
    endloop
  endfacet
  facet normal 0.947037 -0.321125 0
    outer loop
      vertex 126.972 4.65195 -12
      vertex 127.098 5.02354 -15
      vertex 127.098 5.02354 -12
    endloop
  endfacet
  facet normal 0.947037 -0.321125 0
    outer loop
      vertex 127.098 5.02354 -15
      vertex 126.972 4.65195 -12
      vertex 126.972 4.65195 -15
    endloop
  endfacet
  facet normal 0 0 -1
    outer loop
      vertex 40.4981 41.4383 -15
      vertex 89.5019 41.4383 -15
      vertex 41.4383 40.4981 -15
    endloop
  endfacet
  facet normal 0 0 -1
    outer loop
      vertex 89.5019 115.562 -15
      vertex 42.042 117.687 -15
      vertex 42.25 119 -15
    endloop
  endfacet
  facet normal 0 0 -1
    outer loop
      vertex 89.5019 41.4383 -15
      vertex 40.4981 41.4383 -15
      vertex 89.5019 115.562 -15
    endloop
  endfacet
  facet normal 0 0 -1
    outer loop
      vertex 89.5019 115.562 -15
      vertex 41.4383 116.502 -15
      vertex 42.042 117.687 -15
    endloop
  endfacet
  facet normal 0 0 -1
    outer loop
      vertex 40.4981 115.562 -15
      vertex 89.5019 115.562 -15
      vertex 40.4981 41.4383 -15
    endloop
  endfacet
  facet normal 0 0 -1
    outer loop
      vertex 89.5019 115.562 -15
      vertex 40.4981 115.562 -15
      vertex 41.4383 116.502 -15
    endloop
  endfacet
  facet normal 0 0 -1
    outer loop
      vertex 39.3133 42.042 -15
      vertex 40.4981 115.562 -15
      vertex 40.4981 41.4383 -15
    endloop
  endfacet
  facet normal 0 0 -1
    outer loop
      vertex 39.3133 42.042 -15
      vertex 39.3133 114.958 -15
      vertex 40.4981 115.562 -15
    endloop
  endfacet
  facet normal 0 0 -1
    outer loop
      vertex 38 42.25 -15
      vertex 39.3133 114.958 -15
      vertex 39.3133 42.042 -15
    endloop
  endfacet
  facet normal 0 0 -1
    outer loop
      vertex 38 42.25 -15
      vertex 38 114.75 -15
      vertex 39.3133 114.958 -15
    endloop
  endfacet
  facet normal 0 0 -1
    outer loop
      vertex 36.6867 42.042 -15
      vertex 38 114.75 -15
      vertex 38 42.25 -15
    endloop
  endfacet
  facet normal 0 0 -1
    outer loop
      vertex 36.6867 42.042 -15
      vertex 36.6867 114.958 -15
      vertex 38 114.75 -15
    endloop
  endfacet
  facet normal 0 0 -1
    outer loop
      vertex 35.5019 41.4383 -15
      vertex 36.6867 114.958 -15
      vertex 36.6867 42.042 -15
    endloop
  endfacet
  facet normal 0 0 -1
    outer loop
      vertex 35.5019 41.4383 -15
      vertex 35.5019 115.562 -15
      vertex 36.6867 114.958 -15
    endloop
  endfacet
  facet normal 0 0 -1
    outer loop
      vertex 34.5617 40.4981 -15
      vertex 35.5019 115.562 -15
      vertex 35.5019 41.4383 -15
    endloop
  endfacet
  facet normal 0 0 -1
    outer loop
      vertex 34.5617 40.4981 -15
      vertex 34.5617 116.502 -15
      vertex 35.5019 115.562 -15
    endloop
  endfacet
  facet normal 0 0 -1
    outer loop
      vertex 33.958 39.3133 -15
      vertex 34.5617 116.502 -15
      vertex 34.5617 40.4981 -15
    endloop
  endfacet
  facet normal 0 0 -1
    outer loop
      vertex 33.958 39.3133 -15
      vertex 33.958 117.687 -15
      vertex 34.5617 116.502 -15
    endloop
  endfacet
  facet normal 0 0 -1
    outer loop
      vertex 2.8 5.8 -15
      vertex 33.958 39.3133 -15
      vertex 33.75 38 -15
    endloop
  endfacet
  facet normal -0 0 -1
    outer loop
      vertex 33.958 39.3133 -15
      vertex 2.8 5.8 -15
      vertex 33.958 117.687 -15
    endloop
  endfacet
  facet normal 0 0 -1
    outer loop
      vertex 96.042 117.687 -15
      vertex 127.2 151.2 -15
      vertex 96.042 39.3133 -15
    endloop
  endfacet
  facet normal 0 0 -1
    outer loop
      vertex 127.2 151.2 -15
      vertex 96.042 117.687 -15
      vertex 96.25 119 -15
    endloop
  endfacet
  facet normal 0 0 -1
    outer loop
      vertex 95.4383 40.4981 -15
      vertex 96.042 117.687 -15
      vertex 96.042 39.3133 -15
    endloop
  endfacet
  facet normal 0 0 -1
    outer loop
      vertex 95.4383 40.4981 -15
      vertex 95.4383 116.502 -15
      vertex 96.042 117.687 -15
    endloop
  endfacet
  facet normal 0 0 -1
    outer loop
      vertex 94.4981 41.4383 -15
      vertex 95.4383 116.502 -15
      vertex 95.4383 40.4981 -15
    endloop
  endfacet
  facet normal 0 0 -1
    outer loop
      vertex 94.4981 41.4383 -15
      vertex 94.4981 115.562 -15
      vertex 95.4383 116.502 -15
    endloop
  endfacet
  facet normal 0 0 -1
    outer loop
      vertex 93.3133 42.042 -15
      vertex 94.4981 115.562 -15
      vertex 94.4981 41.4383 -15
    endloop
  endfacet
  facet normal 0 0 -1
    outer loop
      vertex 93.3133 42.042 -15
      vertex 93.3133 114.958 -15
      vertex 94.4981 115.562 -15
    endloop
  endfacet
  facet normal 0 0 -1
    outer loop
      vertex 92 42.25 -15
      vertex 93.3133 114.958 -15
      vertex 93.3133 42.042 -15
    endloop
  endfacet
  facet normal 0 0 -1
    outer loop
      vertex 92 42.25 -15
      vertex 92 114.75 -15
      vertex 93.3133 114.958 -15
    endloop
  endfacet
  facet normal 0 0 -1
    outer loop
      vertex 90.6867 42.042 -15
      vertex 92 114.75 -15
      vertex 92 42.25 -15
    endloop
  endfacet
  facet normal 0 0 -1
    outer loop
      vertex 90.6867 42.042 -15
      vertex 90.6867 114.958 -15
      vertex 92 114.75 -15
    endloop
  endfacet
  facet normal 0 0 -1
    outer loop
      vertex 89.5019 41.4383 -15
      vertex 90.6867 114.958 -15
      vertex 90.6867 42.042 -15
    endloop
  endfacet
  facet normal 0 0 -1
    outer loop
      vertex 89.5019 41.4383 -15
      vertex 89.5019 115.562 -15
      vertex 90.6867 114.958 -15
    endloop
  endfacet
  facet normal 0 0 -1
    outer loop
      vertex 87.958 39.3133 -15
      vertex 42.042 39.3133 -15
      vertex 88.5617 40.4981 -15
    endloop
  endfacet
  facet normal 0 0 -1
    outer loop
      vertex 41.4383 40.4981 -15
      vertex 88.5617 40.4981 -15
      vertex 42.042 39.3133 -15
    endloop
  endfacet
  facet normal 0 0 -1
    outer loop
      vertex 42.042 39.3133 -15
      vertex 87.958 39.3133 -15
      vertex 42.25 38 -15
    endloop
  endfacet
  facet normal 0 0 -1
    outer loop
      vertex 88.5617 40.4981 -15
      vertex 41.4383 40.4981 -15
      vertex 89.5019 41.4383 -15
    endloop
  endfacet
  facet normal 0 0 -1
    outer loop
      vertex 42.25 38 -15
      vertex 87.958 39.3133 -15
      vertex 87.75 38 -15
    endloop
  endfacet
  facet normal 0 0 -1
    outer loop
      vertex 89.5019 115.562 -15
      vertex 42.25 119 -15
      vertex 88.5617 116.502 -15
    endloop
  endfacet
  facet normal 0 0 -1
    outer loop
      vertex 124.2 2.8 -15
      vertex 127.2 5.8 -15
      vertex 127.174 5.40842 -15
    endloop
  endfacet
  facet normal 0 0 -1
    outer loop
      vertex 96.042 39.3133 -15
      vertex 127.2 5.8 -15
      vertex 96.25 38 -15
    endloop
  endfacet
  facet normal 0 0 -1
    outer loop
      vertex 124.2 2.8 -15
      vertex 127.174 5.40842 -15
      vertex 127.098 5.02354 -15
    endloop
  endfacet
  facet normal 0 0 -1
    outer loop
      vertex 127.2 5.8 -15
      vertex 96.042 39.3133 -15
      vertex 127.2 151.2 -15
    endloop
  endfacet
  facet normal 0 0 -1
    outer loop
      vertex 124.2 2.8 -15
      vertex 127.098 5.02354 -15
      vertex 126.972 4.65195 -15
    endloop
  endfacet
  facet normal 0 0 -1
    outer loop
      vertex 96.042 120.313 -15
      vertex 127.2 151.2 -15
      vertex 96.25 119 -15
    endloop
  endfacet
  facet normal 0 0 -1
    outer loop
      vertex 124.2 2.8 -15
      vertex 126.972 4.65195 -15
      vertex 126.798 4.3 -15
    endloop
  endfacet
  facet normal 0 0 -1
    outer loop
      vertex 95.4383 121.498 -15
      vertex 127.2 151.2 -15
      vertex 96.042 120.313 -15
    endloop
  endfacet
  facet normal 0 0 -1
    outer loop
      vertex 124.2 2.8 -15
      vertex 126.798 4.3 -15
      vertex 126.58 3.97371 -15
    endloop
  endfacet
  facet normal 0 -0 -1
    outer loop
      vertex 124.2 154.2 -15
      vertex 127.2 151.2 -15
      vertex 95.4383 121.498 -15
    endloop
  endfacet
  facet normal 0 0 -1
    outer loop
      vertex 124.2 2.8 -15
      vertex 126.58 3.97371 -15
      vertex 126.321 3.67868 -15
    endloop
  endfacet
  facet normal 0 0 -1
    outer loop
      vertex 127.2 151.2 -15
      vertex 124.2 154.2 -15
      vertex 127.174 151.592 -15
    endloop
  endfacet
  facet normal 0 0 -1
    outer loop
      vertex 124.2 2.8 -15
      vertex 126.321 3.67868 -15
      vertex 126.026 3.41994 -15
    endloop
  endfacet
  facet normal 0 0 -1
    outer loop
      vertex 127.174 151.592 -15
      vertex 124.2 154.2 -15
      vertex 127.098 151.976 -15
    endloop
  endfacet
  facet normal 0 0 -1
    outer loop
      vertex 124.2 2.8 -15
      vertex 126.026 3.41994 -15
      vertex 125.7 3.20192 -15
    endloop
  endfacet
  facet normal 0 0 -1
    outer loop
      vertex 127.098 151.976 -15
      vertex 124.2 154.2 -15
      vertex 126.972 152.348 -15
    endloop
  endfacet
  facet normal 0 0 -1
    outer loop
      vertex 124.2 2.8 -15
      vertex 125.7 3.20192 -15
      vertex 125.348 3.02836 -15
    endloop
  endfacet
  facet normal 0 0 -1
    outer loop
      vertex 126.972 152.348 -15
      vertex 124.2 154.2 -15
      vertex 126.798 152.7 -15
    endloop
  endfacet
  facet normal 0 0 -1
    outer loop
      vertex 124.2 2.8 -15
      vertex 125.348 3.02836 -15
      vertex 124.976 2.90222 -15
    endloop
  endfacet
  facet normal 0 0 -1
    outer loop
      vertex 126.798 152.7 -15
      vertex 124.2 154.2 -15
      vertex 126.58 153.026 -15
    endloop
  endfacet
  facet normal 0 0 -1
    outer loop
      vertex 124.2 2.8 -15
      vertex 124.976 2.90222 -15
      vertex 124.592 2.82566 -15
    endloop
  endfacet
  facet normal 0 0 -1
    outer loop
      vertex 126.321 153.321 -15
      vertex 124.2 154.2 -15
      vertex 126.026 153.58 -15
    endloop
  endfacet
  facet normal -0 0 -1
    outer loop
      vertex 127.2 5.8 -15
      vertex 124.2 2.8 -15
      vertex 95.4383 35.5019 -15
    endloop
  endfacet
  facet normal 0 0 -1
    outer loop
      vertex 126.026 153.58 -15
      vertex 124.2 154.2 -15
      vertex 125.7 153.798 -15
    endloop
  endfacet
  facet normal 0 0 -1
    outer loop
      vertex 125.7 153.798 -15
      vertex 124.2 154.2 -15
      vertex 125.348 153.972 -15
    endloop
  endfacet
  facet normal 0 0 -1
    outer loop
      vertex 127.2 5.8 -15
      vertex 96.042 36.6867 -15
      vertex 96.25 38 -15
    endloop
  endfacet
  facet normal 0 0 -1
    outer loop
      vertex 127.2 5.8 -15
      vertex 95.4383 35.5019 -15
      vertex 96.042 36.6867 -15
    endloop
  endfacet
  facet normal 0 0 -1
    outer loop
      vertex 124.2 2.8 -15
      vertex 94.4981 34.5617 -15
      vertex 95.4383 35.5019 -15
    endloop
  endfacet
  facet normal 0 0 -1
    outer loop
      vertex 124.2 2.8 -15
      vertex 93.3133 33.958 -15
      vertex 94.4981 34.5617 -15
    endloop
  endfacet
  facet normal 0 0 -1
    outer loop
      vertex 124.2 2.8 -15
      vertex 92 33.75 -15
      vertex 93.3133 33.958 -15
    endloop
  endfacet
  facet normal 0 0 -1
    outer loop
      vertex 124.2 2.8 -15
      vertex 90.6867 33.958 -15
      vertex 92 33.75 -15
    endloop
  endfacet
  facet normal 0 0 -1
    outer loop
      vertex 39.3133 33.958 -15
      vertex 90.6867 33.958 -15
      vertex 124.2 2.8 -15
    endloop
  endfacet
  facet normal 0 0 -1
    outer loop
      vertex 88.5617 116.502 -15
      vertex 42.25 119 -15
      vertex 87.958 117.687 -15
    endloop
  endfacet
  facet normal 0 0 -1
    outer loop
      vertex 87.958 36.6867 -15
      vertex 42.25 38 -15
      vertex 87.75 38 -15
    endloop
  endfacet
  facet normal 0 0 -1
    outer loop
      vertex 42.042 36.6867 -15
      vertex 87.958 36.6867 -15
      vertex 88.5617 35.5019 -15
    endloop
  endfacet
  facet normal 0 0 -1
    outer loop
      vertex 41.4383 35.5019 -15
      vertex 88.5617 35.5019 -15
      vertex 89.5019 34.5617 -15
    endloop
  endfacet
  facet normal 0 0 -1
    outer loop
      vertex 90.6867 33.958 -15
      vertex 39.3133 33.958 -15
      vertex 89.5019 34.5617 -15
    endloop
  endfacet
  facet normal 0 0 -1
    outer loop
      vertex 87.958 36.6867 -15
      vertex 42.042 36.6867 -15
      vertex 42.25 38 -15
    endloop
  endfacet
  facet normal 0 0 -1
    outer loop
      vertex 88.5617 35.5019 -15
      vertex 41.4383 35.5019 -15
      vertex 42.042 36.6867 -15
    endloop
  endfacet
  facet normal 0 0 -1
    outer loop
      vertex 89.5019 34.5617 -15
      vertex 40.4981 34.5617 -15
      vertex 41.4383 35.5019 -15
    endloop
  endfacet
  facet normal -0 0 -1
    outer loop
      vertex 89.5019 34.5617 -15
      vertex 39.3133 33.958 -15
      vertex 40.4981 34.5617 -15
    endloop
  endfacet
  facet normal 0 0 -1
    outer loop
      vertex 5.8 2.8 -15
      vertex 39.3133 33.958 -15
      vertex 124.2 2.8 -15
    endloop
  endfacet
  facet normal 0 0 -1
    outer loop
      vertex 39.3133 33.958 -15
      vertex 5.8 2.8 -15
      vertex 38 33.75 -15
    endloop
  endfacet
  facet normal -0 0 -1
    outer loop
      vertex 33.958 36.6867 -15
      vertex 2.8 5.8 -15
      vertex 33.75 38 -15
    endloop
  endfacet
  facet normal -0 0 -1
    outer loop
      vertex 34.5617 35.5019 -15
      vertex 2.8 5.8 -15
      vertex 33.958 36.6867 -15
    endloop
  endfacet
  facet normal 0 0 -1
    outer loop
      vertex 2.8 5.8 -15
      vertex 34.5617 35.5019 -15
      vertex 5.8 2.8 -15
    endloop
  endfacet
  facet normal -0 0 -1
    outer loop
      vertex 35.5019 34.5617 -15
      vertex 5.8 2.8 -15
      vertex 34.5617 35.5019 -15
    endloop
  endfacet
  facet normal -0 0 -1
    outer loop
      vertex 36.6867 33.958 -15
      vertex 5.8 2.8 -15
      vertex 35.5019 34.5617 -15
    endloop
  endfacet
  facet normal -0 0 -1
    outer loop
      vertex 38 33.75 -15
      vertex 5.8 2.8 -15
      vertex 36.6867 33.958 -15
    endloop
  endfacet
  facet normal 0 0 -1
    outer loop
      vertex 125.348 153.972 -15
      vertex 124.2 154.2 -15
      vertex 124.976 154.098 -15
    endloop
  endfacet
  facet normal 0 0 -1
    outer loop
      vertex 124.976 154.098 -15
      vertex 124.2 154.2 -15
      vertex 124.592 154.174 -15
    endloop
  endfacet
  facet normal 0 0 -1
    outer loop
      vertex 126.58 153.026 -15
      vertex 124.2 154.2 -15
      vertex 126.321 153.321 -15
    endloop
  endfacet
  facet normal 0 0 -1
    outer loop
      vertex 94.4981 122.438 -15
      vertex 124.2 154.2 -15
      vertex 95.4383 121.498 -15
    endloop
  endfacet
  facet normal 0 0 -1
    outer loop
      vertex 93.3133 123.042 -15
      vertex 124.2 154.2 -15
      vertex 94.4981 122.438 -15
    endloop
  endfacet
  facet normal 0 0 -1
    outer loop
      vertex 92 123.25 -15
      vertex 124.2 154.2 -15
      vertex 93.3133 123.042 -15
    endloop
  endfacet
  facet normal 0 0 -1
    outer loop
      vertex 90.6867 123.042 -15
      vertex 124.2 154.2 -15
      vertex 92 123.25 -15
    endloop
  endfacet
  facet normal 0 0 -1
    outer loop
      vertex 39.3133 123.042 -15
      vertex 90.6867 123.042 -15
      vertex 89.5019 122.438 -15
    endloop
  endfacet
  facet normal 0 0 -1
    outer loop
      vertex 87.958 117.687 -15
      vertex 42.25 119 -15
      vertex 87.75 119 -15
    endloop
  endfacet
  facet normal 0 0 -1
    outer loop
      vertex 87.75 119 -15
      vertex 42.25 119 -15
      vertex 87.958 120.313 -15
    endloop
  endfacet
  facet normal 0 0 -1
    outer loop
      vertex 42.042 120.313 -15
      vertex 87.958 120.313 -15
      vertex 42.25 119 -15
    endloop
  endfacet
  facet normal 0 0 -1
    outer loop
      vertex 87.958 120.313 -15
      vertex 42.042 120.313 -15
      vertex 88.5617 121.498 -15
    endloop
  endfacet
  facet normal 0 0 -1
    outer loop
      vertex 41.4383 121.498 -15
      vertex 88.5617 121.498 -15
      vertex 42.042 120.313 -15
    endloop
  endfacet
  facet normal 0 0 -1
    outer loop
      vertex 88.5617 121.498 -15
      vertex 41.4383 121.498 -15
      vertex 89.5019 122.438 -15
    endloop
  endfacet
  facet normal 0 0 -1
    outer loop
      vertex 40.4981 122.438 -15
      vertex 89.5019 122.438 -15
      vertex 41.4383 121.498 -15
    endloop
  endfacet
  facet normal 0 0 -1
    outer loop
      vertex 39.3133 123.042 -15
      vertex 89.5019 122.438 -15
      vertex 40.4981 122.438 -15
    endloop
  endfacet
  facet normal 0 0 -1
    outer loop
      vertex 90.6867 123.042 -15
      vertex 39.3133 123.042 -15
      vertex 124.2 154.2 -15
    endloop
  endfacet
  facet normal 0 0 -1
    outer loop
      vertex 5.8 154.2 -15
      vertex 39.3133 123.042 -15
      vertex 38 123.25 -15
    endloop
  endfacet
  facet normal 0 0 -1
    outer loop
      vertex 5.8 154.2 -15
      vertex 38 123.25 -15
      vertex 36.6867 123.042 -15
    endloop
  endfacet
  facet normal 0 0 -1
    outer loop
      vertex 2.8 151.2 -15
      vertex 33.958 117.687 -15
      vertex 2.8 5.8 -15
    endloop
  endfacet
  facet normal 0 0 -1
    outer loop
      vertex 39.3133 123.042 -15
      vertex 5.8 154.2 -15
      vertex 124.2 154.2 -15
    endloop
  endfacet
  facet normal 0 0 -1
    outer loop
      vertex 35.5019 122.438 -15
      vertex 5.8 154.2 -15
      vertex 36.6867 123.042 -15
    endloop
  endfacet
  facet normal 0 0 -1
    outer loop
      vertex 34.5617 121.498 -15
      vertex 5.8 154.2 -15
      vertex 35.5019 122.438 -15
    endloop
  endfacet
  facet normal 0 0 -1
    outer loop
      vertex 2.8 151.2 -15
      vertex 34.5617 121.498 -15
      vertex 33.958 120.313 -15
    endloop
  endfacet
  facet normal 0 0 -1
    outer loop
      vertex 33.958 117.687 -15
      vertex 2.8 151.2 -15
      vertex 33.75 119 -15
    endloop
  endfacet
  facet normal 0 0 -1
    outer loop
      vertex 2.8 5.8 -15
      vertex 5.8 2.8 -15
      vertex 5.40842 2.82566 -15
    endloop
  endfacet
  facet normal 0 0 -1
    outer loop
      vertex 33.75 119 -15
      vertex 2.8 151.2 -15
      vertex 33.958 120.313 -15
    endloop
  endfacet
  facet normal 0 0 -1
    outer loop
      vertex 2.8 5.8 -15
      vertex 5.40842 2.82566 -15
      vertex 5.02354 2.90222 -15
    endloop
  endfacet
  facet normal 0 0 -1
    outer loop
      vertex 34.5617 121.498 -15
      vertex 2.8 151.2 -15
      vertex 5.8 154.2 -15
    endloop
  endfacet
  facet normal 0 0 -1
    outer loop
      vertex 2.8 5.8 -15
      vertex 5.02354 2.90222 -15
      vertex 4.65195 3.02836 -15
    endloop
  endfacet
  facet normal 0 0 -1
    outer loop
      vertex 5.8 154.2 -15
      vertex 2.8 151.2 -15
      vertex 5.40842 154.174 -15
    endloop
  endfacet
  facet normal 0 0 -1
    outer loop
      vertex 2.8 5.8 -15
      vertex 4.65195 3.02836 -15
      vertex 4.3 3.20192 -15
    endloop
  endfacet
  facet normal 0 0 -1
    outer loop
      vertex 5.40842 154.174 -15
      vertex 2.8 151.2 -15
      vertex 5.02354 154.098 -15
    endloop
  endfacet
  facet normal 0 0 -1
    outer loop
      vertex 2.8 5.8 -15
      vertex 4.3 3.20192 -15
      vertex 3.97371 3.41994 -15
    endloop
  endfacet
  facet normal 0 0 -1
    outer loop
      vertex 5.02354 154.098 -15
      vertex 2.8 151.2 -15
      vertex 4.65195 153.972 -15
    endloop
  endfacet
  facet normal 0 0 -1
    outer loop
      vertex 2.8 5.8 -15
      vertex 3.97371 3.41994 -15
      vertex 3.67868 3.67868 -15
    endloop
  endfacet
  facet normal 0 0 -1
    outer loop
      vertex 4.65195 153.972 -15
      vertex 2.8 151.2 -15
      vertex 4.3 153.798 -15
    endloop
  endfacet
  facet normal 0 0 -1
    outer loop
      vertex 2.8 5.8 -15
      vertex 3.67868 3.67868 -15
      vertex 3.41994 3.97371 -15
    endloop
  endfacet
  facet normal 0 0 -1
    outer loop
      vertex 4.3 153.798 -15
      vertex 2.8 151.2 -15
      vertex 3.97371 153.58 -15
    endloop
  endfacet
  facet normal 0 0 -1
    outer loop
      vertex 2.8 5.8 -15
      vertex 3.41994 3.97371 -15
      vertex 3.20192 4.3 -15
    endloop
  endfacet
  facet normal 0 0 -1
    outer loop
      vertex 3.97371 153.58 -15
      vertex 2.8 151.2 -15
      vertex 3.67868 153.321 -15
    endloop
  endfacet
  facet normal 0 0 -1
    outer loop
      vertex 2.8 5.8 -15
      vertex 3.20192 4.3 -15
      vertex 3.02836 4.65195 -15
    endloop
  endfacet
  facet normal 0 0 -1
    outer loop
      vertex 3.67868 153.321 -15
      vertex 2.8 151.2 -15
      vertex 3.41994 153.026 -15
    endloop
  endfacet
  facet normal 0 0 -1
    outer loop
      vertex 2.8 5.8 -15
      vertex 3.02836 4.65195 -15
      vertex 2.90222 5.02354 -15
    endloop
  endfacet
  facet normal 0 0 -1
    outer loop
      vertex 3.41994 153.026 -15
      vertex 2.8 151.2 -15
      vertex 3.20192 152.7 -15
    endloop
  endfacet
  facet normal 0 0 -1
    outer loop
      vertex 2.8 5.8 -15
      vertex 2.90222 5.02354 -15
      vertex 2.82566 5.40842 -15
    endloop
  endfacet
  facet normal 0 0 -1
    outer loop
      vertex 3.20192 152.7 -15
      vertex 2.8 151.2 -15
      vertex 3.02836 152.348 -15
    endloop
  endfacet
  facet normal 0 0 -1
    outer loop
      vertex 3.02836 152.348 -15
      vertex 2.8 151.2 -15
      vertex 2.90222 151.976 -15
    endloop
  endfacet
  facet normal 0 0 -1
    outer loop
      vertex 2.90222 151.976 -15
      vertex 2.8 151.2 -15
      vertex 2.82566 151.592 -15
    endloop
  endfacet
  facet normal -1 0 0
    outer loop
      vertex 2.8 5.8 -15
      vertex 2.8 151.2 -12
      vertex 2.8 151.2 -15
    endloop
  endfacet
  facet normal -1 -0 0
    outer loop
      vertex 2.8 151.2 -12
      vertex 2.8 5.8 -15
      vertex 2.8 5.8 -12
    endloop
  endfacet
  facet normal 0.997803 -0.0662518 0
    outer loop
      vertex 127.174 5.40842 -12
      vertex 127.2 5.8 -15
      vertex 127.2 5.8 -12
    endloop
  endfacet
  facet normal 0.997803 -0.0662518 0
    outer loop
      vertex 127.2 5.8 -15
      vertex 127.174 5.40842 -12
      vertex 127.174 5.40842 -15
    endloop
  endfacet
  facet normal -0.831241 0.555912 0
    outer loop
      vertex 3.20192 152.7 -15
      vertex 3.41994 153.026 -12
      vertex 3.41994 153.026 -15
    endloop
  endfacet
  facet normal -0.831241 0.555912 0
    outer loop
      vertex 3.41994 153.026 -12
      vertex 3.20192 152.7 -15
      vertex 3.20192 152.7 -12
    endloop
  endfacet
  facet normal 0 -1 0
    outer loop
      vertex 5.8 2.8 -15
      vertex 124.2 2.8 -12
      vertex 5.8 2.8 -12
    endloop
  endfacet
  facet normal 0 -1 -0
    outer loop
      vertex 124.2 2.8 -12
      vertex 5.8 2.8 -15
      vertex 124.2 2.8 -15
    endloop
  endfacet
  facet normal 0.981056 -0.193723 0
    outer loop
      vertex 127.098 5.02354 -12
      vertex 127.174 5.40842 -15
      vertex 127.174 5.40842 -12
    endloop
  endfacet
  facet normal 0.981056 -0.193723 0
    outer loop
      vertex 127.174 5.40842 -15
      vertex 127.098 5.02354 -12
      vertex 127.098 5.02354 -15
    endloop
  endfacet
  facet normal 0.980972 0.194151 0
    outer loop
      vertex 127.174 151.592 -12
      vertex 127.098 151.976 -15
      vertex 127.098 151.976 -12
    endloop
  endfacet
  facet normal 0.980972 0.194151 0
    outer loop
      vertex 127.098 151.976 -15
      vertex 127.174 151.592 -12
      vertex 127.174 151.592 -15
    endloop
  endfacet
  facet normal -0.997864 0.0653194 0
    outer loop
      vertex 2.8 151.2 -15
      vertex 2.82566 151.592 -12
      vertex 2.82566 151.592 -15
    endloop
  endfacet
  facet normal -0.997864 0.0653194 0
    outer loop
      vertex 2.82566 151.592 -12
      vertex 2.8 151.2 -15
      vertex 2.8 151.2 -12
    endloop
  endfacet
  facet normal 0 1 -0
    outer loop
      vertex 124.2 154.2 -15
      vertex 5.8 154.2 -12
      vertex 124.2 154.2 -12
    endloop
  endfacet
  facet normal 0 1 0
    outer loop
      vertex 5.8 154.2 -12
      vertex 124.2 154.2 -15
      vertex 5.8 154.2 -15
    endloop
  endfacet
  facet normal 0.659766 0.751471 -0
    outer loop
      vertex 126.321 153.321 -15
      vertex 126.026 153.58 -12
      vertex 126.321 153.321 -12
    endloop
  endfacet
  facet normal 0.659766 0.751471 0
    outer loop
      vertex 126.026 153.58 -12
      vertex 126.321 153.321 -15
      vertex 126.026 153.58 -15
    endloop
  endfacet
  facet normal -0.0653892 -0.99786 0
    outer loop
      vertex 5.40842 2.82566 -15
      vertex 5.8 2.8 -12
      vertex 5.40842 2.82566 -12
    endloop
  endfacet
  facet normal -0.0653892 -0.99786 -0
    outer loop
      vertex 5.8 2.8 -12
      vertex 5.40842 2.82566 -15
      vertex 5.8 2.8 -15
    endloop
  endfacet
  facet normal -0.193723 0.981056 0
    outer loop
      vertex 5.40842 154.174 -15
      vertex 5.02354 154.098 -12
      vertex 5.40842 154.174 -12
    endloop
  endfacet
  facet normal -0.193723 0.981056 0
    outer loop
      vertex 5.02354 154.098 -12
      vertex 5.40842 154.174 -15
      vertex 5.02354 154.098 -15
    endloop
  endfacet
  facet normal -0.321125 0.947037 0
    outer loop
      vertex 5.02354 154.098 -15
      vertex 4.65195 153.972 -12
      vertex 5.02354 154.098 -12
    endloop
  endfacet
  facet normal -0.321125 0.947037 0
    outer loop
      vertex 4.65195 153.972 -12
      vertex 5.02354 154.098 -15
      vertex 4.65195 153.972 -15
    endloop
  endfacet
  facet normal -0.321444 -0.946928 0
    outer loop
      vertex 4.65195 3.02836 -15
      vertex 5.02354 2.90222 -12
      vertex 4.65195 3.02836 -12
    endloop
  endfacet
  facet normal -0.321444 -0.946928 -0
    outer loop
      vertex 5.02354 2.90222 -12
      vertex 4.65195 3.02836 -15
      vertex 5.02354 2.90222 -15
    endloop
  endfacet
  facet normal -0.8969 0.442233 0
    outer loop
      vertex 3.02836 152.348 -15
      vertex 3.20192 152.7 -12
      vertex 3.20192 152.7 -15
    endloop
  endfacet
  facet normal -0.8969 0.442233 0
    outer loop
      vertex 3.20192 152.7 -12
      vertex 3.02836 152.348 -15
      vertex 3.02836 152.348 -12
    endloop
  endfacet
  facet normal 0.555912 -0.831241 0
    outer loop
      vertex 125.7 3.20192 -15
      vertex 126.026 3.41994 -12
      vertex 125.7 3.20192 -12
    endloop
  endfacet
  facet normal 0.555912 -0.831241 0
    outer loop
      vertex 126.026 3.41994 -12
      vertex 125.7 3.20192 -15
      vertex 126.026 3.41994 -15
    endloop
  endfacet
  facet normal 0.321127 -0.947036 0
    outer loop
      vertex 124.976 2.90222 -15
      vertex 125.348 3.02836 -12
      vertex 124.976 2.90222 -12
    endloop
  endfacet
  facet normal 0.321127 -0.947036 0
    outer loop
      vertex 125.348 3.02836 -12
      vertex 124.976 2.90222 -15
      vertex 125.348 3.02836 -15
    endloop
  endfacet
  facet normal 0.195527 -0.980698 0
    outer loop
      vertex 124.592 2.82566 -15
      vertex 124.976 2.90222 -12
      vertex 124.592 2.82566 -12
    endloop
  endfacet
  facet normal 0.195527 -0.980698 0
    outer loop
      vertex 124.976 2.90222 -12
      vertex 124.592 2.82566 -15
      vertex 124.976 2.90222 -15
    endloop
  endfacet
  facet normal -0.896875 -0.442283 0
    outer loop
      vertex 3.20192 4.3 -15
      vertex 3.02836 4.65195 -12
      vertex 3.02836 4.65195 -15
    endloop
  endfacet
  facet normal -0.896875 -0.442283 0
    outer loop
      vertex 3.02836 4.65195 -12
      vertex 3.20192 4.3 -15
      vertex 3.20192 4.3 -12
    endloop
  endfacet
  facet normal 0 0 1
    outer loop
      vertex 40.4981 115.562 -12
      vertex 89.5019 115.562 -12
      vertex 41.4383 116.502 -12
    endloop
  endfacet
  facet normal 0 0 1
    outer loop
      vertex 89.5019 41.4383 -12
      vertex 42.042 39.3133 -12
      vertex 42.25 38 -12
    endloop
  endfacet
  facet normal 0 0 1
    outer loop
      vertex 89.5019 115.562 -12
      vertex 40.4981 115.562 -12
      vertex 89.5019 41.4383 -12
    endloop
  endfacet
  facet normal 0 0 1
    outer loop
      vertex 89.5019 41.4383 -12
      vertex 41.4383 40.4981 -12
      vertex 42.042 39.3133 -12
    endloop
  endfacet
  facet normal 0 0 1
    outer loop
      vertex 40.4981 41.4383 -12
      vertex 89.5019 41.4383 -12
      vertex 40.4981 115.562 -12
    endloop
  endfacet
  facet normal 0 0 1
    outer loop
      vertex 89.5019 41.4383 -12
      vertex 40.4981 41.4383 -12
      vertex 41.4383 40.4981 -12
    endloop
  endfacet
  facet normal -0 0 1
    outer loop
      vertex 39.3133 114.958 -12
      vertex 40.4981 41.4383 -12
      vertex 40.4981 115.562 -12
    endloop
  endfacet
  facet normal 0 0 1
    outer loop
      vertex 39.3133 114.958 -12
      vertex 39.3133 42.042 -12
      vertex 40.4981 41.4383 -12
    endloop
  endfacet
  facet normal -0 0 1
    outer loop
      vertex 38 114.75 -12
      vertex 39.3133 42.042 -12
      vertex 39.3133 114.958 -12
    endloop
  endfacet
  facet normal 0 0 1
    outer loop
      vertex 38 114.75 -12
      vertex 38 42.25 -12
      vertex 39.3133 42.042 -12
    endloop
  endfacet
  facet normal 0 0 1
    outer loop
      vertex 36.6867 114.958 -12
      vertex 38 42.25 -12
      vertex 38 114.75 -12
    endloop
  endfacet
  facet normal 0 0 1
    outer loop
      vertex 36.6867 114.958 -12
      vertex 36.6867 42.042 -12
      vertex 38 42.25 -12
    endloop
  endfacet
  facet normal 0 0 1
    outer loop
      vertex 35.5019 115.562 -12
      vertex 36.6867 42.042 -12
      vertex 36.6867 114.958 -12
    endloop
  endfacet
  facet normal 0 0 1
    outer loop
      vertex 35.5019 115.562 -12
      vertex 35.5019 41.4383 -12
      vertex 36.6867 42.042 -12
    endloop
  endfacet
  facet normal 0 0 1
    outer loop
      vertex 34.5617 116.502 -12
      vertex 35.5019 41.4383 -12
      vertex 35.5019 115.562 -12
    endloop
  endfacet
  facet normal 0 0 1
    outer loop
      vertex 34.5617 116.502 -12
      vertex 34.5617 40.4981 -12
      vertex 35.5019 41.4383 -12
    endloop
  endfacet
  facet normal 0 0 1
    outer loop
      vertex 33.958 117.687 -12
      vertex 34.5617 40.4981 -12
      vertex 34.5617 116.502 -12
    endloop
  endfacet
  facet normal 0 0 1
    outer loop
      vertex 33.958 117.687 -12
      vertex 33.958 39.3133 -12
      vertex 34.5617 40.4981 -12
    endloop
  endfacet
  facet normal 0 0 1
    outer loop
      vertex 2.8 151.2 -12
      vertex 33.958 117.687 -12
      vertex 33.75 119 -12
    endloop
  endfacet
  facet normal 0 0 1
    outer loop
      vertex 33.958 117.687 -12
      vertex 2.8 151.2 -12
      vertex 33.958 39.3133 -12
    endloop
  endfacet
  facet normal -0 0 1
    outer loop
      vertex 96.042 39.3133 -12
      vertex 127.2 5.8 -12
      vertex 96.042 117.687 -12
    endloop
  endfacet
  facet normal 0 0 1
    outer loop
      vertex 127.2 5.8 -12
      vertex 96.042 39.3133 -12
      vertex 96.25 38 -12
    endloop
  endfacet
  facet normal -0 0 1
    outer loop
      vertex 95.4383 116.502 -12
      vertex 96.042 39.3133 -12
      vertex 96.042 117.687 -12
    endloop
  endfacet
  facet normal 0 0 1
    outer loop
      vertex 95.4383 116.502 -12
      vertex 95.4383 40.4981 -12
      vertex 96.042 39.3133 -12
    endloop
  endfacet
  facet normal -0 0 1
    outer loop
      vertex 94.4981 115.562 -12
      vertex 95.4383 40.4981 -12
      vertex 95.4383 116.502 -12
    endloop
  endfacet
  facet normal 0 0 1
    outer loop
      vertex 94.4981 115.562 -12
      vertex 94.4981 41.4383 -12
      vertex 95.4383 40.4981 -12
    endloop
  endfacet
  facet normal -0 0 1
    outer loop
      vertex 93.3133 114.958 -12
      vertex 94.4981 41.4383 -12
      vertex 94.4981 115.562 -12
    endloop
  endfacet
  facet normal 0 0 1
    outer loop
      vertex 93.3133 114.958 -12
      vertex 93.3133 42.042 -12
      vertex 94.4981 41.4383 -12
    endloop
  endfacet
  facet normal -0 0 1
    outer loop
      vertex 92 114.75 -12
      vertex 93.3133 42.042 -12
      vertex 93.3133 114.958 -12
    endloop
  endfacet
  facet normal 0 0 1
    outer loop
      vertex 92 114.75 -12
      vertex 92 42.25 -12
      vertex 93.3133 42.042 -12
    endloop
  endfacet
  facet normal 0 0 1
    outer loop
      vertex 90.6867 114.958 -12
      vertex 92 42.25 -12
      vertex 92 114.75 -12
    endloop
  endfacet
  facet normal 0 0 1
    outer loop
      vertex 90.6867 114.958 -12
      vertex 90.6867 42.042 -12
      vertex 92 42.25 -12
    endloop
  endfacet
  facet normal 0 0 1
    outer loop
      vertex 89.5019 115.562 -12
      vertex 90.6867 42.042 -12
      vertex 90.6867 114.958 -12
    endloop
  endfacet
  facet normal 0 0 1
    outer loop
      vertex 89.5019 115.562 -12
      vertex 89.5019 41.4383 -12
      vertex 90.6867 42.042 -12
    endloop
  endfacet
  facet normal 0 0 1
    outer loop
      vertex 87.958 117.687 -12
      vertex 42.042 117.687 -12
      vertex 88.5617 116.502 -12
    endloop
  endfacet
  facet normal 0 0 1
    outer loop
      vertex 41.4383 116.502 -12
      vertex 88.5617 116.502 -12
      vertex 42.042 117.687 -12
    endloop
  endfacet
  facet normal 0 0 1
    outer loop
      vertex 42.042 117.687 -12
      vertex 87.958 117.687 -12
      vertex 42.25 119 -12
    endloop
  endfacet
  facet normal 0 0 1
    outer loop
      vertex 88.5617 116.502 -12
      vertex 41.4383 116.502 -12
      vertex 89.5019 115.562 -12
    endloop
  endfacet
  facet normal -0 0 1
    outer loop
      vertex 42.25 119 -12
      vertex 87.958 117.687 -12
      vertex 87.75 119 -12
    endloop
  endfacet
  facet normal 0 0 1
    outer loop
      vertex 89.5019 41.4383 -12
      vertex 42.25 38 -12
      vertex 88.5617 40.4981 -12
    endloop
  endfacet
  facet normal 0 0 1
    outer loop
      vertex 124.2 154.2 -12
      vertex 127.2 151.2 -12
      vertex 127.174 151.592 -12
    endloop
  endfacet
  facet normal 0 0 1
    outer loop
      vertex 96.042 117.687 -12
      vertex 127.2 151.2 -12
      vertex 96.25 119 -12
    endloop
  endfacet
  facet normal 0 0 1
    outer loop
      vertex 124.2 154.2 -12
      vertex 127.174 151.592 -12
      vertex 127.098 151.976 -12
    endloop
  endfacet
  facet normal 0 0 1
    outer loop
      vertex 127.2 151.2 -12
      vertex 96.042 117.687 -12
      vertex 127.2 5.8 -12
    endloop
  endfacet
  facet normal 0 0 1
    outer loop
      vertex 124.2 154.2 -12
      vertex 127.098 151.976 -12
      vertex 126.972 152.348 -12
    endloop
  endfacet
  facet normal -0 0 1
    outer loop
      vertex 96.042 36.6867 -12
      vertex 127.2 5.8 -12
      vertex 96.25 38 -12
    endloop
  endfacet
  facet normal 0 0 1
    outer loop
      vertex 124.2 154.2 -12
      vertex 126.972 152.348 -12
      vertex 126.798 152.7 -12
    endloop
  endfacet
  facet normal -0 0 1
    outer loop
      vertex 95.4383 35.5019 -12
      vertex 127.2 5.8 -12
      vertex 96.042 36.6867 -12
    endloop
  endfacet
  facet normal 0 0 1
    outer loop
      vertex 124.2 154.2 -12
      vertex 126.798 152.7 -12
      vertex 126.58 153.026 -12
    endloop
  endfacet
  facet normal 0 -0 1
    outer loop
      vertex 124.2 2.8 -12
      vertex 127.2 5.8 -12
      vertex 95.4383 35.5019 -12
    endloop
  endfacet
  facet normal 0 0 1
    outer loop
      vertex 124.2 154.2 -12
      vertex 126.58 153.026 -12
      vertex 126.321 153.321 -12
    endloop
  endfacet
  facet normal 0 0 1
    outer loop
      vertex 127.2 5.8 -12
      vertex 124.2 2.8 -12
      vertex 127.174 5.40842 -12
    endloop
  endfacet
  facet normal 0 0 1
    outer loop
      vertex 124.2 154.2 -12
      vertex 126.321 153.321 -12
      vertex 126.026 153.58 -12
    endloop
  endfacet
  facet normal 0 0 1
    outer loop
      vertex 127.174 5.40842 -12
      vertex 124.2 2.8 -12
      vertex 127.098 5.02354 -12
    endloop
  endfacet
  facet normal 0 0 1
    outer loop
      vertex 124.2 154.2 -12
      vertex 126.026 153.58 -12
      vertex 125.7 153.798 -12
    endloop
  endfacet
  facet normal 0 0 1
    outer loop
      vertex 127.098 5.02354 -12
      vertex 124.2 2.8 -12
      vertex 126.972 4.65195 -12
    endloop
  endfacet
  facet normal 0 0 1
    outer loop
      vertex 124.2 154.2 -12
      vertex 125.7 153.798 -12
      vertex 125.348 153.972 -12
    endloop
  endfacet
  facet normal 0 0 1
    outer loop
      vertex 126.972 4.65195 -12
      vertex 124.2 2.8 -12
      vertex 126.798 4.3 -12
    endloop
  endfacet
  facet normal 0 0 1
    outer loop
      vertex 124.2 154.2 -12
      vertex 125.348 153.972 -12
      vertex 124.976 154.098 -12
    endloop
  endfacet
  facet normal 0 0 1
    outer loop
      vertex 126.798 4.3 -12
      vertex 124.2 2.8 -12
      vertex 126.58 3.97371 -12
    endloop
  endfacet
  facet normal 0 0 1
    outer loop
      vertex 124.2 154.2 -12
      vertex 124.976 154.098 -12
      vertex 124.592 154.174 -12
    endloop
  endfacet
  facet normal 0 0 1
    outer loop
      vertex 126.321 3.67868 -12
      vertex 124.2 2.8 -12
      vertex 126.026 3.41994 -12
    endloop
  endfacet
  facet normal 0 0 1
    outer loop
      vertex 127.2 151.2 -12
      vertex 124.2 154.2 -12
      vertex 95.4383 121.498 -12
    endloop
  endfacet
  facet normal 0 0 1
    outer loop
      vertex 126.026 3.41994 -12
      vertex 124.2 2.8 -12
      vertex 125.7 3.20192 -12
    endloop
  endfacet
  facet normal 0 0 1
    outer loop
      vertex 125.7 3.20192 -12
      vertex 124.2 2.8 -12
      vertex 125.348 3.02836 -12
    endloop
  endfacet
  facet normal 0 0 1
    outer loop
      vertex 127.2 151.2 -12
      vertex 96.042 120.313 -12
      vertex 96.25 119 -12
    endloop
  endfacet
  facet normal 0 0 1
    outer loop
      vertex 127.2 151.2 -12
      vertex 95.4383 121.498 -12
      vertex 96.042 120.313 -12
    endloop
  endfacet
  facet normal 0 0 1
    outer loop
      vertex 124.2 154.2 -12
      vertex 94.4981 122.438 -12
      vertex 95.4383 121.498 -12
    endloop
  endfacet
  facet normal 0 0 1
    outer loop
      vertex 124.2 154.2 -12
      vertex 93.3133 123.042 -12
      vertex 94.4981 122.438 -12
    endloop
  endfacet
  facet normal 0 0 1
    outer loop
      vertex 124.2 154.2 -12
      vertex 92 123.25 -12
      vertex 93.3133 123.042 -12
    endloop
  endfacet
  facet normal 0 0 1
    outer loop
      vertex 124.2 154.2 -12
      vertex 90.6867 123.042 -12
      vertex 92 123.25 -12
    endloop
  endfacet
  facet normal 0 0 1
    outer loop
      vertex 39.3133 123.042 -12
      vertex 90.6867 123.042 -12
      vertex 124.2 154.2 -12
    endloop
  endfacet
  facet normal 0 0 1
    outer loop
      vertex 88.5617 40.4981 -12
      vertex 42.25 38 -12
      vertex 87.958 39.3133 -12
    endloop
  endfacet
  facet normal 0 0 1
    outer loop
      vertex 87.958 120.313 -12
      vertex 42.25 119 -12
      vertex 87.75 119 -12
    endloop
  endfacet
  facet normal 0 0 1
    outer loop
      vertex 42.042 120.313 -12
      vertex 87.958 120.313 -12
      vertex 88.5617 121.498 -12
    endloop
  endfacet
  facet normal 0 0 1
    outer loop
      vertex 41.4383 121.498 -12
      vertex 88.5617 121.498 -12
      vertex 89.5019 122.438 -12
    endloop
  endfacet
  facet normal 0 0 1
    outer loop
      vertex 90.6867 123.042 -12
      vertex 39.3133 123.042 -12
      vertex 89.5019 122.438 -12
    endloop
  endfacet
  facet normal 0 0 1
    outer loop
      vertex 87.958 120.313 -12
      vertex 42.042 120.313 -12
      vertex 42.25 119 -12
    endloop
  endfacet
  facet normal 0 0 1
    outer loop
      vertex 88.5617 121.498 -12
      vertex 41.4383 121.498 -12
      vertex 42.042 120.313 -12
    endloop
  endfacet
  facet normal 0 0 1
    outer loop
      vertex 89.5019 122.438 -12
      vertex 40.4981 122.438 -12
      vertex 41.4383 121.498 -12
    endloop
  endfacet
  facet normal 0 0 1
    outer loop
      vertex 89.5019 122.438 -12
      vertex 39.3133 123.042 -12
      vertex 40.4981 122.438 -12
    endloop
  endfacet
  facet normal -0 0 1
    outer loop
      vertex 5.8 154.2 -12
      vertex 39.3133 123.042 -12
      vertex 124.2 154.2 -12
    endloop
  endfacet
  facet normal 0 0 1
    outer loop
      vertex 39.3133 123.042 -12
      vertex 5.8 154.2 -12
      vertex 38 123.25 -12
    endloop
  endfacet
  facet normal 0 0 1
    outer loop
      vertex 33.958 120.313 -12
      vertex 2.8 151.2 -12
      vertex 33.75 119 -12
    endloop
  endfacet
  facet normal 0 0 1
    outer loop
      vertex 34.5617 121.498 -12
      vertex 2.8 151.2 -12
      vertex 33.958 120.313 -12
    endloop
  endfacet
  facet normal -0 0 1
    outer loop
      vertex 2.8 151.2 -12
      vertex 34.5617 121.498 -12
      vertex 5.8 154.2 -12
    endloop
  endfacet
  facet normal 0 0 1
    outer loop
      vertex 35.5019 122.438 -12
      vertex 5.8 154.2 -12
      vertex 34.5617 121.498 -12
    endloop
  endfacet
  facet normal 0 0 1
    outer loop
      vertex 36.6867 123.042 -12
      vertex 5.8 154.2 -12
      vertex 35.5019 122.438 -12
    endloop
  endfacet
  facet normal 0 0 1
    outer loop
      vertex 38 123.25 -12
      vertex 5.8 154.2 -12
      vertex 36.6867 123.042 -12
    endloop
  endfacet
  facet normal 0 0 1
    outer loop
      vertex 125.348 3.02836 -12
      vertex 124.2 2.8 -12
      vertex 124.976 2.90222 -12
    endloop
  endfacet
  facet normal 0 0 1
    outer loop
      vertex 124.976 2.90222 -12
      vertex 124.2 2.8 -12
      vertex 124.592 2.82566 -12
    endloop
  endfacet
  facet normal 0 0 1
    outer loop
      vertex 126.58 3.97371 -12
      vertex 124.2 2.8 -12
      vertex 126.321 3.67868 -12
    endloop
  endfacet
  facet normal -0 0 1
    outer loop
      vertex 94.4981 34.5617 -12
      vertex 124.2 2.8 -12
      vertex 95.4383 35.5019 -12
    endloop
  endfacet
  facet normal -0 0 1
    outer loop
      vertex 93.3133 33.958 -12
      vertex 124.2 2.8 -12
      vertex 94.4981 34.5617 -12
    endloop
  endfacet
  facet normal -0 0 1
    outer loop
      vertex 92 33.75 -12
      vertex 124.2 2.8 -12
      vertex 93.3133 33.958 -12
    endloop
  endfacet
  facet normal 0 0 1
    outer loop
      vertex 90.6867 33.958 -12
      vertex 124.2 2.8 -12
      vertex 92 33.75 -12
    endloop
  endfacet
  facet normal 0 0 1
    outer loop
      vertex 39.3133 33.958 -12
      vertex 90.6867 33.958 -12
      vertex 89.5019 34.5617 -12
    endloop
  endfacet
  facet normal 0 0 1
    outer loop
      vertex 87.958 39.3133 -12
      vertex 42.25 38 -12
      vertex 87.75 38 -12
    endloop
  endfacet
  facet normal 0 0 1
    outer loop
      vertex 87.75 38 -12
      vertex 42.25 38 -12
      vertex 87.958 36.6867 -12
    endloop
  endfacet
  facet normal 0 0 1
    outer loop
      vertex 42.042 36.6867 -12
      vertex 87.958 36.6867 -12
      vertex 42.25 38 -12
    endloop
  endfacet
  facet normal 0 0 1
    outer loop
      vertex 87.958 36.6867 -12
      vertex 42.042 36.6867 -12
      vertex 88.5617 35.5019 -12
    endloop
  endfacet
  facet normal 0 0 1
    outer loop
      vertex 41.4383 35.5019 -12
      vertex 88.5617 35.5019 -12
      vertex 42.042 36.6867 -12
    endloop
  endfacet
  facet normal 0 0 1
    outer loop
      vertex 88.5617 35.5019 -12
      vertex 41.4383 35.5019 -12
      vertex 89.5019 34.5617 -12
    endloop
  endfacet
  facet normal 0 0 1
    outer loop
      vertex 40.4981 34.5617 -12
      vertex 89.5019 34.5617 -12
      vertex 41.4383 35.5019 -12
    endloop
  endfacet
  facet normal 0 0 1
    outer loop
      vertex 39.3133 33.958 -12
      vertex 89.5019 34.5617 -12
      vertex 40.4981 34.5617 -12
    endloop
  endfacet
  facet normal 0 0 1
    outer loop
      vertex 90.6867 33.958 -12
      vertex 39.3133 33.958 -12
      vertex 124.2 2.8 -12
    endloop
  endfacet
  facet normal 0 0 1
    outer loop
      vertex 5.8 2.8 -12
      vertex 39.3133 33.958 -12
      vertex 38 33.75 -12
    endloop
  endfacet
  facet normal 0 0 1
    outer loop
      vertex 5.8 2.8 -12
      vertex 38 33.75 -12
      vertex 36.6867 33.958 -12
    endloop
  endfacet
  facet normal 0 0 1
    outer loop
      vertex 2.8 5.8 -12
      vertex 33.958 39.3133 -12
      vertex 2.8 151.2 -12
    endloop
  endfacet
  facet normal 0 0 1
    outer loop
      vertex 39.3133 33.958 -12
      vertex 5.8 2.8 -12
      vertex 124.2 2.8 -12
    endloop
  endfacet
  facet normal 0 0 1
    outer loop
      vertex 35.5019 34.5617 -12
      vertex 5.8 2.8 -12
      vertex 36.6867 33.958 -12
    endloop
  endfacet
  facet normal 0 0 1
    outer loop
      vertex 34.5617 35.5019 -12
      vertex 5.8 2.8 -12
      vertex 35.5019 34.5617 -12
    endloop
  endfacet
  facet normal 0 0 1
    outer loop
      vertex 2.8 5.8 -12
      vertex 34.5617 35.5019 -12
      vertex 33.958 36.6867 -12
    endloop
  endfacet
  facet normal 0 0 1
    outer loop
      vertex 33.958 39.3133 -12
      vertex 2.8 5.8 -12
      vertex 33.75 38 -12
    endloop
  endfacet
  facet normal 0 0 1
    outer loop
      vertex 2.8 151.2 -12
      vertex 5.8 154.2 -12
      vertex 5.40842 154.174 -12
    endloop
  endfacet
  facet normal 0 0 1
    outer loop
      vertex 33.75 38 -12
      vertex 2.8 5.8 -12
      vertex 33.958 36.6867 -12
    endloop
  endfacet
  facet normal 0 0 1
    outer loop
      vertex 2.8 151.2 -12
      vertex 5.40842 154.174 -12
      vertex 5.02354 154.098 -12
    endloop
  endfacet
  facet normal 0 0 1
    outer loop
      vertex 34.5617 35.5019 -12
      vertex 2.8 5.8 -12
      vertex 5.8 2.8 -12
    endloop
  endfacet
  facet normal 0 0 1
    outer loop
      vertex 2.8 151.2 -12
      vertex 5.02354 154.098 -12
      vertex 4.65195 153.972 -12
    endloop
  endfacet
  facet normal 0 0 1
    outer loop
      vertex 5.8 2.8 -12
      vertex 2.8 5.8 -12
      vertex 5.40842 2.82566 -12
    endloop
  endfacet
  facet normal 0 0 1
    outer loop
      vertex 2.8 151.2 -12
      vertex 4.65195 153.972 -12
      vertex 4.3 153.798 -12
    endloop
  endfacet
  facet normal 0 0 1
    outer loop
      vertex 5.40842 2.82566 -12
      vertex 2.8 5.8 -12
      vertex 5.02354 2.90222 -12
    endloop
  endfacet
  facet normal 0 0 1
    outer loop
      vertex 2.8 151.2 -12
      vertex 4.3 153.798 -12
      vertex 3.97371 153.58 -12
    endloop
  endfacet
  facet normal 0 0 1
    outer loop
      vertex 5.02354 2.90222 -12
      vertex 2.8 5.8 -12
      vertex 4.65195 3.02836 -12
    endloop
  endfacet
  facet normal 0 0 1
    outer loop
      vertex 2.8 151.2 -12
      vertex 3.97371 153.58 -12
      vertex 3.67868 153.321 -12
    endloop
  endfacet
  facet normal 0 0 1
    outer loop
      vertex 4.65195 3.02836 -12
      vertex 2.8 5.8 -12
      vertex 4.3 3.20192 -12
    endloop
  endfacet
  facet normal 0 0 1
    outer loop
      vertex 2.8 151.2 -12
      vertex 3.67868 153.321 -12
      vertex 3.41994 153.026 -12
    endloop
  endfacet
  facet normal 0 0 1
    outer loop
      vertex 4.3 3.20192 -12
      vertex 2.8 5.8 -12
      vertex 3.97371 3.41994 -12
    endloop
  endfacet
  facet normal 0 0 1
    outer loop
      vertex 2.8 151.2 -12
      vertex 3.41994 153.026 -12
      vertex 3.20192 152.7 -12
    endloop
  endfacet
  facet normal 0 0 1
    outer loop
      vertex 3.97371 3.41994 -12
      vertex 2.8 5.8 -12
      vertex 3.67868 3.67868 -12
    endloop
  endfacet
  facet normal 0 0 1
    outer loop
      vertex 2.8 151.2 -12
      vertex 3.20192 152.7 -12
      vertex 3.02836 152.348 -12
    endloop
  endfacet
  facet normal 0 0 1
    outer loop
      vertex 3.67868 3.67868 -12
      vertex 2.8 5.8 -12
      vertex 3.41994 3.97371 -12
    endloop
  endfacet
  facet normal 0 0 1
    outer loop
      vertex 2.8 151.2 -12
      vertex 3.02836 152.348 -12
      vertex 2.90222 151.976 -12
    endloop
  endfacet
  facet normal 0 0 1
    outer loop
      vertex 3.41994 3.97371 -12
      vertex 2.8 5.8 -12
      vertex 3.20192 4.3 -12
    endloop
  endfacet
  facet normal 0 0 1
    outer loop
      vertex 2.8 151.2 -12
      vertex 2.90222 151.976 -12
      vertex 2.82566 151.592 -12
    endloop
  endfacet
  facet normal 0 0 1
    outer loop
      vertex 3.20192 4.3 -12
      vertex 2.8 5.8 -12
      vertex 3.02836 4.65195 -12
    endloop
  endfacet
  facet normal 0 0 1
    outer loop
      vertex 3.02836 4.65195 -12
      vertex 2.8 5.8 -12
      vertex 2.90222 5.02354 -12
    endloop
  endfacet
  facet normal 0 0 1
    outer loop
      vertex 2.90222 5.02354 -12
      vertex 2.8 5.8 -12
      vertex 2.82566 5.40842 -12
    endloop
  endfacet
  facet normal -0.659728 0.751504 0
    outer loop
      vertex 3.97371 153.58 -15
      vertex 3.67868 153.321 -12
      vertex 3.97371 153.58 -12
    endloop
  endfacet
  facet normal -0.659728 0.751504 0
    outer loop
      vertex 3.67868 153.321 -12
      vertex 3.97371 153.58 -15
      vertex 3.67868 153.321 -15
    endloop
  endfacet
  facet normal 0.831265 0.555877 0
    outer loop
      vertex 126.798 152.7 -12
      vertex 126.58 153.026 -15
      vertex 126.58 153.026 -12
    endloop
  endfacet
  facet normal 0.831265 0.555877 0
    outer loop
      vertex 126.58 153.026 -15
      vertex 126.798 152.7 -12
      vertex 126.798 152.7 -15
    endloop
  endfacet
  facet normal 0.947145 0.320807 0
    outer loop
      vertex 127.098 151.976 -12
      vertex 126.972 152.348 -15
      vertex 126.972 152.348 -12
    endloop
  endfacet
  facet normal 0.947145 0.320807 0
    outer loop
      vertex 126.972 152.348 -15
      vertex 127.098 151.976 -12
      vertex 127.098 151.976 -15
    endloop
  endfacet
  facet normal -0.555535 0.831493 0
    outer loop
      vertex 4.3 153.798 -15
      vertex 3.97371 153.58 -12
      vertex 4.3 153.798 -12
    endloop
  endfacet
  facet normal -0.555535 0.831493 0
    outer loop
      vertex 3.97371 153.58 -12
      vertex 4.3 153.798 -15
      vertex 3.97371 153.58 -15
    endloop
  endfacet
  facet normal 0.194151 0.980972 -0
    outer loop
      vertex 124.976 154.098 -15
      vertex 124.592 154.174 -12
      vertex 124.976 154.098 -12
    endloop
  endfacet
  facet normal 0.194151 0.980972 0
    outer loop
      vertex 124.592 154.174 -12
      vertex 124.976 154.098 -15
      vertex 124.592 154.174 -15
    endloop
  endfacet
  facet normal -0.980784 -0.195097 0
    outer loop
      vertex 2.90222 5.02354 -15
      vertex 2.82566 5.40842 -12
      vertex 2.82566 5.40842 -15
    endloop
  endfacet
  facet normal -0.980784 -0.195097 0
    outer loop
      vertex 2.82566 5.40842 -12
      vertex 2.90222 5.02354 -15
      vertex 2.90222 5.02354 -12
    endloop
  endfacet
  facet normal 0.751504 -0.659728 0
    outer loop
      vertex 126.321 3.67868 -12
      vertex 126.58 3.97371 -15
      vertex 126.58 3.97371 -12
    endloop
  endfacet
  facet normal 0.751504 -0.659728 0
    outer loop
      vertex 126.58 3.97371 -15
      vertex 126.321 3.67868 -12
      vertex 126.321 3.67868 -15
    endloop
  endfacet
  facet normal 0.997808 0.0661811 0
    outer loop
      vertex 127.2 151.2 -12
      vertex 127.174 151.592 -15
      vertex 127.174 151.592 -12
    endloop
  endfacet
  facet normal 0.997808 0.0661811 0
    outer loop
      vertex 127.174 151.592 -15
      vertex 127.2 151.2 -12
      vertex 127.2 151.2 -15
    endloop
  endfacet
  facet normal -0.443185 0.89643 0
    outer loop
      vertex 4.65195 153.972 -15
      vertex 4.3 153.798 -12
      vertex 4.65195 153.972 -12
    endloop
  endfacet
  facet normal -0.443185 0.89643 0
    outer loop
      vertex 4.3 153.798 -12
      vertex 4.65195 153.972 -15
      vertex 4.3 153.798 -15
    endloop
  endfacet
  facet normal -0.751833 -0.659354 0
    outer loop
      vertex 3.67868 3.67868 -15
      vertex 3.41994 3.97371 -12
      vertex 3.41994 3.97371 -15
    endloop
  endfacet
  facet normal -0.751833 -0.659354 0
    outer loop
      vertex 3.41994 3.97371 -12
      vertex 3.67868 3.67868 -15
      vertex 3.67868 3.67868 -12
    endloop
  endfacet
  facet normal -0.195097 -0.980784 0
    outer loop
      vertex 5.02354 2.90222 -15
      vertex 5.40842 2.82566 -12
      vertex 5.02354 2.90222 -12
    endloop
  endfacet
  facet normal -0.195097 -0.980784 -0
    outer loop
      vertex 5.40842 2.82566 -12
      vertex 5.02354 2.90222 -15
      vertex 5.40842 2.82566 -15
    endloop
  endfacet
  facet normal 0.320807 0.947145 -0
    outer loop
      vertex 125.348 153.972 -15
      vertex 124.976 154.098 -12
      vertex 125.348 153.972 -12
    endloop
  endfacet
  facet normal 0.320807 0.947145 0
    outer loop
      vertex 124.976 154.098 -12
      vertex 125.348 153.972 -15
      vertex 124.976 154.098 -15
    endloop
  endfacet
  facet normal -0.99786 -0.0653892 0
    outer loop
      vertex 2.82566 5.40842 -15
      vertex 2.8 5.8 -12
      vertex 2.8 5.8 -15
    endloop
  endfacet
  facet normal -0.99786 -0.0653892 0
    outer loop
      vertex 2.8 5.8 -12
      vertex 2.82566 5.40842 -15
      vertex 2.82566 5.40842 -12
    endloop
  endfacet
  facet normal 0.0653194 -0.997864 0
    outer loop
      vertex 124.2 2.8 -15
      vertex 124.592 2.82566 -12
      vertex 124.2 2.8 -12
    endloop
  endfacet
  facet normal 0.0653194 -0.997864 0
    outer loop
      vertex 124.592 2.82566 -12
      vertex 124.2 2.8 -15
      vertex 124.592 2.82566 -15
    endloop
  endfacet
  facet normal 0.659392 -0.751799 0
    outer loop
      vertex 126.026 3.41994 -15
      vertex 126.321 3.67868 -12
      vertex 126.026 3.41994 -12
    endloop
  endfacet
  facet normal 0.659392 -0.751799 0
    outer loop
      vertex 126.321 3.67868 -12
      vertex 126.026 3.41994 -15
      vertex 126.321 3.67868 -15
    endloop
  endfacet
  facet normal -0.980698 0.195527 0
    outer loop
      vertex 2.82566 151.592 -15
      vertex 2.90222 151.976 -12
      vertex 2.90222 151.976 -15
    endloop
  endfacet
  facet normal -0.980698 0.195527 0
    outer loop
      vertex 2.90222 151.976 -12
      vertex 2.82566 151.592 -15
      vertex 2.82566 151.592 -12
    endloop
  endfacet
  facet normal -0.659354 -0.751833 0
    outer loop
      vertex 3.67868 3.67868 -15
      vertex 3.97371 3.41994 -12
      vertex 3.67868 3.67868 -12
    endloop
  endfacet
  facet normal -0.659354 -0.751833 -0
    outer loop
      vertex 3.97371 3.41994 -12
      vertex 3.67868 3.67868 -15
      vertex 3.97371 3.41994 -15
    endloop
  endfacet
  facet normal 0.0661811 0.997808 -0
    outer loop
      vertex 124.592 154.174 -15
      vertex 124.2 154.2 -12
      vertex 124.592 154.174 -12
    endloop
  endfacet
  facet normal 0.0661811 0.997808 0
    outer loop
      vertex 124.2 154.2 -12
      vertex 124.592 154.174 -15
      vertex 124.2 154.2 -15
    endloop
  endfacet
  facet normal 0.442233 -0.8969 0
    outer loop
      vertex 125.348 3.02836 -15
      vertex 125.7 3.20192 -12
      vertex 125.348 3.02836 -12
    endloop
  endfacet
  facet normal 0.442233 -0.8969 0
    outer loop
      vertex 125.7 3.20192 -12
      vertex 125.348 3.02836 -15
      vertex 125.7 3.20192 -15
    endloop
  endfacet
  facet normal 0.89643 -0.443185 0
    outer loop
      vertex 126.798 4.3 -12
      vertex 126.972 4.65195 -15
      vertex 126.972 4.65195 -12
    endloop
  endfacet
  facet normal 0.89643 -0.443185 0
    outer loop
      vertex 126.972 4.65195 -15
      vertex 126.798 4.3 -12
      vertex 126.798 4.3 -15
    endloop
  endfacet
  facet normal -0.0662518 0.997803 0
    outer loop
      vertex 5.8 154.2 -15
      vertex 5.40842 154.174 -12
      vertex 5.8 154.2 -12
    endloop
  endfacet
  facet normal -0.0662518 0.997803 0
    outer loop
      vertex 5.40842 154.174 -12
      vertex 5.8 154.2 -15
      vertex 5.40842 154.174 -15
    endloop
  endfacet
  facet normal -0.751799 0.659392 0
    outer loop
      vertex 3.41994 153.026 -15
      vertex 3.67868 153.321 -12
      vertex 3.67868 153.321 -15
    endloop
  endfacet
  facet normal -0.751799 0.659392 0
    outer loop
      vertex 3.67868 153.321 -12
      vertex 3.41994 153.026 -15
      vertex 3.41994 153.026 -12
    endloop
  endfacet
  facet normal 0.896455 0.443134 0
    outer loop
      vertex 126.972 152.348 -12
      vertex 126.798 152.7 -15
      vertex 126.798 152.7 -12
    endloop
  endfacet
  facet normal 0.896455 0.443134 0
    outer loop
      vertex 126.798 152.7 -15
      vertex 126.972 152.348 -12
      vertex 126.972 152.348 -15
    endloop
  endfacet
  facet normal -0.947036 0.321127 0
    outer loop
      vertex 2.90222 151.976 -15
      vertex 3.02836 152.348 -12
      vertex 3.02836 152.348 -15
    endloop
  endfacet
  facet normal -0.947036 0.321127 0
    outer loop
      vertex 3.02836 152.348 -12
      vertex 2.90222 151.976 -15
      vertex 2.90222 151.976 -12
    endloop
  endfacet
  facet normal 0.555877 0.831265 -0
    outer loop
      vertex 126.026 153.58 -15
      vertex 125.7 153.798 -12
      vertex 126.026 153.58 -12
    endloop
  endfacet
  facet normal 0.555877 0.831265 0
    outer loop
      vertex 125.7 153.798 -12
      vertex 126.026 153.58 -15
      vertex 125.7 153.798 -15
    endloop
  endfacet
  facet normal -0.55557 -0.83147 0
    outer loop
      vertex 3.97371 3.41994 -15
      vertex 4.3 3.20192 -12
      vertex 3.97371 3.41994 -12
    endloop
  endfacet
  facet normal -0.55557 -0.83147 -0
    outer loop
      vertex 4.3 3.20192 -12
      vertex 3.97371 3.41994 -15
      vertex 4.3 3.20192 -15
    endloop
  endfacet
  facet normal 0.751471 0.659766 0
    outer loop
      vertex 126.58 153.026 -12
      vertex 126.321 153.321 -15
      vertex 126.321 153.321 -12
    endloop
  endfacet
  facet normal 0.751471 0.659766 0
    outer loop
      vertex 126.321 153.321 -15
      vertex 126.58 153.026 -12
      vertex 126.58 153.026 -15
    endloop
  endfacet
  facet normal -0.83147 -0.55557 0
    outer loop
      vertex 3.41994 3.97371 -15
      vertex 3.20192 4.3 -12
      vertex 3.20192 4.3 -15
    endloop
  endfacet
  facet normal -0.83147 -0.55557 0
    outer loop
      vertex 3.20192 4.3 -12
      vertex 3.41994 3.97371 -15
      vertex 3.41994 3.97371 -12
    endloop
  endfacet
  facet normal -0.946928 -0.321444 0
    outer loop
      vertex 3.02836 4.65195 -15
      vertex 2.90222 5.02354 -12
      vertex 2.90222 5.02354 -15
    endloop
  endfacet
  facet normal -0.946928 -0.321444 0
    outer loop
      vertex 2.90222 5.02354 -12
      vertex 3.02836 4.65195 -15
      vertex 3.02836 4.65195 -12
    endloop
  endfacet
  facet normal 0.443134 0.896455 -0
    outer loop
      vertex 125.7 153.798 -15
      vertex 125.348 153.972 -12
      vertex 125.7 153.798 -12
    endloop
  endfacet
  facet normal 0.443134 0.896455 0
    outer loop
      vertex 125.348 153.972 -12
      vertex 125.7 153.798 -15
      vertex 125.348 153.972 -15
    endloop
  endfacet
  facet normal -0.442283 -0.896875 0
    outer loop
      vertex 4.3 3.20192 -15
      vertex 4.65195 3.02836 -12
      vertex 4.3 3.20192 -12
    endloop
  endfacet
  facet normal -0.442283 -0.896875 -0
    outer loop
      vertex 4.65195 3.02836 -12
      vertex 4.3 3.20192 -15
      vertex 4.65195 3.02836 -15
    endloop
  endfacet
endsolid OpenSCAD_Model
