solid OpenSCAD_Model
  facet normal -0.156428 -0.987689 0
    outer loop
      vertex 8 12.25 -15
      vertex 9.31332 12.042 -12
      vertex 8 12.25 -12
    endloop
  endfacet
  facet normal -0.156428 -0.987689 -0
    outer loop
      vertex 9.31332 12.042 -12
      vertex 8 12.25 -15
      vertex 9.31332 12.042 -15
    endloop
  endfacet
  facet normal -0.890999 -0.454005 0
    outer loop
      vertex 12.042 9.31332 -15
      vertex 11.4383 10.4981 -12
      vertex 11.4383 10.4981 -15
    endloop
  endfacet
  facet normal -0.890999 -0.454005 0
    outer loop
      vertex 11.4383 10.4981 -12
      vertex 12.042 9.31332 -15
      vertex 12.042 9.31332 -12
    endloop
  endfacet
  facet normal -0.987689 -0.156428 0
    outer loop
      vertex 12.25 8 -15
      vertex 12.042 9.31332 -12
      vertex 12.042 9.31332 -15
    endloop
  endfacet
  facet normal -0.987689 -0.156428 0
    outer loop
      vertex 12.042 9.31332 -12
      vertex 12.25 8 -15
      vertex 12.25 8 -12
    endloop
  endfacet
  facet normal -0.707107 -0.707107 0
    outer loop
      vertex 11.4383 10.4981 -15
      vertex 10.4981 11.4383 -12
      vertex 10.4981 11.4383 -15
    endloop
  endfacet
  facet normal -0.707107 -0.707107 0
    outer loop
      vertex 10.4981 11.4383 -12
      vertex 11.4383 10.4981 -15
      vertex 11.4383 10.4981 -12
    endloop
  endfacet
  facet normal -0.890998 0.454008 0
    outer loop
      vertex 11.4383 5.50191 -15
      vertex 12.042 6.68668 -12
      vertex 12.042 6.68668 -15
    endloop
  endfacet
  facet normal -0.890998 0.454008 0
    outer loop
      vertex 12.042 6.68668 -12
      vertex 11.4383 5.50191 -15
      vertex 11.4383 5.50191 -12
    endloop
  endfacet
  facet normal -0.453987 0.891008 0
    outer loop
      vertex 10.4981 4.56168 -15
      vertex 9.31332 3.95801 -12
      vertex 10.4981 4.56168 -12
    endloop
  endfacet
  facet normal -0.453987 0.891008 0
    outer loop
      vertex 9.31332 3.95801 -12
      vertex 10.4981 4.56168 -15
      vertex 9.31332 3.95801 -15
    endloop
  endfacet
  facet normal 0.707096 -0.707118 0
    outer loop
      vertex 4.56168 10.4981 -12
      vertex 5.50191 11.4383 -15
      vertex 5.50191 11.4383 -12
    endloop
  endfacet
  facet normal 0.707096 -0.707118 0
    outer loop
      vertex 5.50191 11.4383 -15
      vertex 4.56168 10.4981 -12
      vertex 4.56168 10.4981 -15
    endloop
  endfacet
  facet normal -0.707118 0.707096 0
    outer loop
      vertex 10.4981 4.56168 -15
      vertex 11.4383 5.50191 -12
      vertex 11.4383 5.50191 -15
    endloop
  endfacet
  facet normal -0.707118 0.707096 0
    outer loop
      vertex 11.4383 5.50191 -12
      vertex 10.4981 4.56168 -15
      vertex 10.4981 4.56168 -12
    endloop
  endfacet
  facet normal 0.45399 0.891007 -0
    outer loop
      vertex 6.68668 3.95801 -15
      vertex 5.50191 4.56168 -12
      vertex 6.68668 3.95801 -12
    endloop
  endfacet
  facet normal 0.45399 0.891007 0
    outer loop
      vertex 5.50191 4.56168 -12
      vertex 6.68668 3.95801 -15
      vertex 5.50191 4.56168 -15
    endloop
  endfacet
  facet normal 0.891008 -0.453987 0
    outer loop
      vertex 3.95801 9.31332 -12
      vertex 4.56168 10.4981 -15
      vertex 4.56168 10.4981 -12
    endloop
  endfacet
  facet normal 0.891008 -0.453987 0
    outer loop
      vertex 4.56168 10.4981 -15
      vertex 3.95801 9.31332 -12
      vertex 3.95801 9.31332 -15
    endloop
  endfacet
  facet normal 0.156435 0.987688 -0
    outer loop
      vertex 8 3.75 -15
      vertex 6.68668 3.95801 -12
      vertex 8 3.75 -12
    endloop
  endfacet
  facet normal 0.156435 0.987688 0
    outer loop
      vertex 6.68668 3.95801 -12
      vertex 8 3.75 -15
      vertex 6.68668 3.95801 -15
    endloop
  endfacet
  facet normal -0.156435 0.987688 0
    outer loop
      vertex 9.31332 3.95801 -15
      vertex 8 3.75 -12
      vertex 9.31332 3.95801 -12
    endloop
  endfacet
  facet normal -0.156435 0.987688 0
    outer loop
      vertex 8 3.75 -12
      vertex 9.31332 3.95801 -15
      vertex 8 3.75 -15
    endloop
  endfacet
  facet normal -0.987689 0.156428 0
    outer loop
      vertex 12.042 6.68668 -15
      vertex 12.25 8 -12
      vertex 12.25 8 -15
    endloop
  endfacet
  facet normal -0.987689 0.156428 0
    outer loop
      vertex 12.25 8 -12
      vertex 12.042 6.68668 -15
      vertex 12.042 6.68668 -12
    endloop
  endfacet
  facet normal 0.156428 -0.987689 0
    outer loop
      vertex 6.68668 12.042 -15
      vertex 8 12.25 -12
      vertex 6.68668 12.042 -12
    endloop
  endfacet
  facet normal 0.156428 -0.987689 0
    outer loop
      vertex 8 12.25 -12
      vertex 6.68668 12.042 -15
      vertex 8 12.25 -15
    endloop
  endfacet
  facet normal 0.707107 0.707107 0
    outer loop
      vertex 5.50191 4.56168 -12
      vertex 4.56168 5.50191 -15
      vertex 4.56168 5.50191 -12
    endloop
  endfacet
  facet normal 0.707107 0.707107 0
    outer loop
      vertex 4.56168 5.50191 -15
      vertex 5.50191 4.56168 -12
      vertex 5.50191 4.56168 -15
    endloop
  endfacet
  facet normal 0.454008 -0.890998 0
    outer loop
      vertex 5.50191 11.4383 -15
      vertex 6.68668 12.042 -12
      vertex 5.50191 11.4383 -12
    endloop
  endfacet
  facet normal 0.454008 -0.890998 0
    outer loop
      vertex 6.68668 12.042 -12
      vertex 5.50191 11.4383 -15
      vertex 6.68668 12.042 -15
    endloop
  endfacet
  facet normal 0.987688 0.156435 0
    outer loop
      vertex 3.95801 6.68668 -12
      vertex 3.75 8 -15
      vertex 3.75 8 -12
    endloop
  endfacet
  facet normal 0.987688 0.156435 0
    outer loop
      vertex 3.75 8 -15
      vertex 3.95801 6.68668 -12
      vertex 3.95801 6.68668 -15
    endloop
  endfacet
  facet normal -0.454005 -0.890999 0
    outer loop
      vertex 9.31332 12.042 -15
      vertex 10.4981 11.4383 -12
      vertex 9.31332 12.042 -12
    endloop
  endfacet
  facet normal -0.454005 -0.890999 -0
    outer loop
      vertex 10.4981 11.4383 -12
      vertex 9.31332 12.042 -15
      vertex 10.4981 11.4383 -15
    endloop
  endfacet
  facet normal 0.891007 0.45399 0
    outer loop
      vertex 4.56168 5.50191 -12
      vertex 3.95801 6.68668 -15
      vertex 3.95801 6.68668 -12
    endloop
  endfacet
  facet normal 0.891007 0.45399 0
    outer loop
      vertex 3.95801 6.68668 -15
      vertex 4.56168 5.50191 -12
      vertex 4.56168 5.50191 -15
    endloop
  endfacet
  facet normal 0.987688 -0.156435 0
    outer loop
      vertex 3.75 8 -12
      vertex 3.95801 9.31332 -15
      vertex 3.95801 9.31332 -12
    endloop
  endfacet
  facet normal 0.987688 -0.156435 0
    outer loop
      vertex 3.95801 9.31332 -15
      vertex 3.75 8 -12
      vertex 3.75 8 -15
    endloop
  endfacet
  facet normal -0.156465 -0.987684 0
    outer loop
      vertex 122 12.25 -15
      vertex 123.313 12.042 -12
      vertex 122 12.25 -12
    endloop
  endfacet
  facet normal -0.156465 -0.987684 -0
    outer loop
      vertex 123.313 12.042 -12
      vertex 122 12.25 -15
      vertex 123.313 12.042 -15
    endloop
  endfacet
  facet normal -0.890908 -0.454184 0
    outer loop
      vertex 126.042 9.31332 -15
      vertex 125.438 10.4981 -12
      vertex 125.438 10.4981 -15
    endloop
  endfacet
  facet normal -0.890908 -0.454184 0
    outer loop
      vertex 125.438 10.4981 -12
      vertex 126.042 9.31332 -15
      vertex 126.042 9.31332 -12
    endloop
  endfacet
  facet normal -0.987689 -0.156428 0
    outer loop
      vertex 126.25 8 -15
      vertex 126.042 9.31332 -12
      vertex 126.042 9.31332 -15
    endloop
  endfacet
  facet normal -0.987689 -0.156428 0
    outer loop
      vertex 126.042 9.31332 -12
      vertex 126.25 8 -15
      vertex 126.25 8 -12
    endloop
  endfacet
  facet normal -0.707182 -0.707032 0
    outer loop
      vertex 124.498 11.4383 -15
      vertex 125.438 10.4981 -12
      vertex 124.498 11.4383 -12
    endloop
  endfacet
  facet normal -0.707182 -0.707032 -0
    outer loop
      vertex 125.438 10.4981 -12
      vertex 124.498 11.4383 -15
      vertex 125.438 10.4981 -15
    endloop
  endfacet
  facet normal -0.890906 0.454187 0
    outer loop
      vertex 125.438 5.50191 -15
      vertex 126.042 6.68668 -12
      vertex 126.042 6.68668 -15
    endloop
  endfacet
  facet normal -0.890906 0.454187 0
    outer loop
      vertex 126.042 6.68668 -12
      vertex 125.438 5.50191 -15
      vertex 125.438 5.50191 -12
    endloop
  endfacet
  facet normal -0.45392 0.891042 0
    outer loop
      vertex 124.498 4.56168 -15
      vertex 123.313 3.95801 -12
      vertex 124.498 4.56168 -12
    endloop
  endfacet
  facet normal -0.45392 0.891042 0
    outer loop
      vertex 123.313 3.95801 -12
      vertex 124.498 4.56168 -15
      vertex 123.313 3.95801 -15
    endloop
  endfacet
  facet normal 0.707182 -0.707032 0
    outer loop
      vertex 118.562 10.4981 -15
      vertex 119.502 11.4383 -12
      vertex 118.562 10.4981 -12
    endloop
  endfacet
  facet normal 0.707182 -0.707032 0
    outer loop
      vertex 119.502 11.4383 -12
      vertex 118.562 10.4981 -15
      vertex 119.502 11.4383 -15
    endloop
  endfacet
  facet normal -0.707193 0.70702 0
    outer loop
      vertex 125.438 5.50191 -15
      vertex 124.498 4.56168 -12
      vertex 125.438 5.50191 -12
    endloop
  endfacet
  facet normal -0.707193 0.70702 0
    outer loop
      vertex 124.498 4.56168 -12
      vertex 125.438 5.50191 -15
      vertex 124.498 4.56168 -15
    endloop
  endfacet
  facet normal 0.453938 -0.891033 0
    outer loop
      vertex 119.502 11.4383 -15
      vertex 120.687 12.042 -12
      vertex 119.502 11.4383 -12
    endloop
  endfacet
  facet normal 0.453938 -0.891033 0
    outer loop
      vertex 120.687 12.042 -12
      vertex 119.502 11.4383 -15
      vertex 120.687 12.042 -15
    endloop
  endfacet
  facet normal 0.45392 0.891042 -0
    outer loop
      vertex 120.687 3.95801 -15
      vertex 119.502 4.56168 -12
      vertex 120.687 3.95801 -12
    endloop
  endfacet
  facet normal 0.45392 0.891042 0
    outer loop
      vertex 119.502 4.56168 -12
      vertex 120.687 3.95801 -15
      vertex 119.502 4.56168 -15
    endloop
  endfacet
  facet normal 0.890908 -0.454184 0
    outer loop
      vertex 117.958 9.31332 -12
      vertex 118.562 10.4981 -15
      vertex 118.562 10.4981 -12
    endloop
  endfacet
  facet normal 0.890908 -0.454184 0
    outer loop
      vertex 118.562 10.4981 -15
      vertex 117.958 9.31332 -12
      vertex 117.958 9.31332 -15
    endloop
  endfacet
  facet normal 0.156472 0.987682 -0
    outer loop
      vertex 122 3.75 -15
      vertex 120.687 3.95801 -12
      vertex 122 3.75 -12
    endloop
  endfacet
  facet normal 0.156472 0.987682 0
    outer loop
      vertex 120.687 3.95801 -12
      vertex 122 3.75 -15
      vertex 120.687 3.95801 -15
    endloop
  endfacet
  facet normal -0.156472 0.987682 0
    outer loop
      vertex 123.313 3.95801 -15
      vertex 122 3.75 -12
      vertex 123.313 3.95801 -12
    endloop
  endfacet
  facet normal -0.156472 0.987682 0
    outer loop
      vertex 122 3.75 -12
      vertex 123.313 3.95801 -15
      vertex 122 3.75 -15
    endloop
  endfacet
  facet normal -0.987689 0.156428 0
    outer loop
      vertex 126.042 6.68668 -15
      vertex 126.25 8 -12
      vertex 126.25 8 -15
    endloop
  endfacet
  facet normal -0.987689 0.156428 0
    outer loop
      vertex 126.25 8 -12
      vertex 126.042 6.68668 -15
      vertex 126.042 6.68668 -12
    endloop
  endfacet
  facet normal 0.156465 -0.987684 0
    outer loop
      vertex 120.687 12.042 -15
      vertex 122 12.25 -12
      vertex 120.687 12.042 -12
    endloop
  endfacet
  facet normal 0.156465 -0.987684 0
    outer loop
      vertex 122 12.25 -12
      vertex 120.687 12.042 -15
      vertex 122 12.25 -15
    endloop
  endfacet
  facet normal 0.707193 0.70702 -0
    outer loop
      vertex 119.502 4.56168 -15
      vertex 118.562 5.50191 -12
      vertex 119.502 4.56168 -12
    endloop
  endfacet
  facet normal 0.707193 0.70702 0
    outer loop
      vertex 118.562 5.50191 -12
      vertex 119.502 4.56168 -15
      vertex 118.562 5.50191 -15
    endloop
  endfacet
  facet normal 0.987689 0.156428 0
    outer loop
      vertex 117.958 6.68668 -12
      vertex 117.75 8 -15
      vertex 117.75 8 -12
    endloop
  endfacet
  facet normal 0.987689 0.156428 0
    outer loop
      vertex 117.75 8 -15
      vertex 117.958 6.68668 -12
      vertex 117.958 6.68668 -15
    endloop
  endfacet
  facet normal -0.453938 -0.891033 0
    outer loop
      vertex 123.313 12.042 -15
      vertex 124.498 11.4383 -12
      vertex 123.313 12.042 -12
    endloop
  endfacet
  facet normal -0.453938 -0.891033 -0
    outer loop
      vertex 124.498 11.4383 -12
      vertex 123.313 12.042 -15
      vertex 124.498 11.4383 -15
    endloop
  endfacet
  facet normal 0.890906 0.454187 0
    outer loop
      vertex 118.562 5.50191 -12
      vertex 117.958 6.68668 -15
      vertex 117.958 6.68668 -12
    endloop
  endfacet
  facet normal 0.890906 0.454187 0
    outer loop
      vertex 117.958 6.68668 -15
      vertex 118.562 5.50191 -12
      vertex 118.562 5.50191 -15
    endloop
  endfacet
  facet normal 0.987689 -0.156428 0
    outer loop
      vertex 117.75 8 -12
      vertex 117.958 9.31332 -15
      vertex 117.958 9.31332 -12
    endloop
  endfacet
  facet normal 0.987689 -0.156428 0
    outer loop
      vertex 117.958 9.31332 -15
      vertex 117.75 8 -12
      vertex 117.75 8 -15
    endloop
  endfacet
  facet normal -0.156428 -0.987689 0
    outer loop
      vertex 8 153.25 -15
      vertex 9.31332 153.042 -12
      vertex 8 153.25 -12
    endloop
  endfacet
  facet normal -0.156428 -0.987689 -0
    outer loop
      vertex 9.31332 153.042 -12
      vertex 8 153.25 -15
      vertex 9.31332 153.042 -15
    endloop
  endfacet
  facet normal -0.891033 -0.453938 0
    outer loop
      vertex 12.042 150.313 -15
      vertex 11.4383 151.498 -12
      vertex 11.4383 151.498 -15
    endloop
  endfacet
  facet normal -0.891033 -0.453938 0
    outer loop
      vertex 11.4383 151.498 -12
      vertex 12.042 150.313 -15
      vertex 12.042 150.313 -12
    endloop
  endfacet
  facet normal -0.987684 -0.156465 0
    outer loop
      vertex 12.25 149 -15
      vertex 12.042 150.313 -12
      vertex 12.042 150.313 -15
    endloop
  endfacet
  facet normal -0.987684 -0.156465 0
    outer loop
      vertex 12.042 150.313 -12
      vertex 12.25 149 -15
      vertex 12.25 149 -12
    endloop
  endfacet
  facet normal -0.707032 -0.707182 0
    outer loop
      vertex 10.4981 152.438 -15
      vertex 11.4383 151.498 -12
      vertex 10.4981 152.438 -12
    endloop
  endfacet
  facet normal -0.707032 -0.707182 -0
    outer loop
      vertex 11.4383 151.498 -12
      vertex 10.4981 152.438 -15
      vertex 11.4383 151.498 -15
    endloop
  endfacet
  facet normal -0.891033 0.453938 0
    outer loop
      vertex 11.4383 146.502 -15
      vertex 12.042 147.687 -12
      vertex 12.042 147.687 -15
    endloop
  endfacet
  facet normal -0.891033 0.453938 0
    outer loop
      vertex 12.042 147.687 -12
      vertex 11.4383 146.502 -15
      vertex 11.4383 146.502 -12
    endloop
  endfacet
  facet normal -0.454184 0.890908 0
    outer loop
      vertex 10.4981 145.562 -15
      vertex 9.31332 144.958 -12
      vertex 10.4981 145.562 -12
    endloop
  endfacet
  facet normal -0.454184 0.890908 0
    outer loop
      vertex 9.31332 144.958 -12
      vertex 10.4981 145.562 -15
      vertex 9.31332 144.958 -15
    endloop
  endfacet
  facet normal 0.70702 -0.707193 0
    outer loop
      vertex 4.56168 151.498 -15
      vertex 5.50191 152.438 -12
      vertex 4.56168 151.498 -12
    endloop
  endfacet
  facet normal 0.70702 -0.707193 0
    outer loop
      vertex 5.50191 152.438 -12
      vertex 4.56168 151.498 -15
      vertex 5.50191 152.438 -15
    endloop
  endfacet
  facet normal -0.707032 0.707182 0
    outer loop
      vertex 11.4383 146.502 -15
      vertex 10.4981 145.562 -12
      vertex 11.4383 146.502 -12
    endloop
  endfacet
  facet normal -0.707032 0.707182 0
    outer loop
      vertex 10.4981 145.562 -12
      vertex 11.4383 146.502 -15
      vertex 10.4981 145.562 -15
    endloop
  endfacet
  facet normal 0.454187 -0.890906 0
    outer loop
      vertex 5.50191 152.438 -15
      vertex 6.68668 153.042 -12
      vertex 5.50191 152.438 -12
    endloop
  endfacet
  facet normal 0.454187 -0.890906 0
    outer loop
      vertex 6.68668 153.042 -12
      vertex 5.50191 152.438 -15
      vertex 6.68668 153.042 -15
    endloop
  endfacet
  facet normal 0.454187 0.890906 -0
    outer loop
      vertex 6.68668 144.958 -15
      vertex 5.50191 145.562 -12
      vertex 6.68668 144.958 -12
    endloop
  endfacet
  facet normal 0.454187 0.890906 0
    outer loop
      vertex 5.50191 145.562 -12
      vertex 6.68668 144.958 -15
      vertex 5.50191 145.562 -15
    endloop
  endfacet
  facet normal 0.891042 -0.45392 0
    outer loop
      vertex 3.95801 150.313 -12
      vertex 4.56168 151.498 -15
      vertex 4.56168 151.498 -12
    endloop
  endfacet
  facet normal 0.891042 -0.45392 0
    outer loop
      vertex 4.56168 151.498 -15
      vertex 3.95801 150.313 -12
      vertex 3.95801 150.313 -15
    endloop
  endfacet
  facet normal 0.156428 0.987689 -0
    outer loop
      vertex 8 144.75 -15
      vertex 6.68668 144.958 -12
      vertex 8 144.75 -12
    endloop
  endfacet
  facet normal 0.156428 0.987689 0
    outer loop
      vertex 6.68668 144.958 -12
      vertex 8 144.75 -15
      vertex 6.68668 144.958 -15
    endloop
  endfacet
  facet normal -0.156428 0.987689 0
    outer loop
      vertex 9.31332 144.958 -15
      vertex 8 144.75 -12
      vertex 9.31332 144.958 -12
    endloop
  endfacet
  facet normal -0.156428 0.987689 0
    outer loop
      vertex 8 144.75 -12
      vertex 9.31332 144.958 -15
      vertex 8 144.75 -15
    endloop
  endfacet
  facet normal -0.987684 0.156465 0
    outer loop
      vertex 12.042 147.687 -15
      vertex 12.25 149 -12
      vertex 12.25 149 -15
    endloop
  endfacet
  facet normal -0.987684 0.156465 0
    outer loop
      vertex 12.25 149 -12
      vertex 12.042 147.687 -15
      vertex 12.042 147.687 -12
    endloop
  endfacet
  facet normal 0.156428 -0.987689 0
    outer loop
      vertex 6.68668 153.042 -15
      vertex 8 153.25 -12
      vertex 6.68668 153.042 -12
    endloop
  endfacet
  facet normal 0.156428 -0.987689 0
    outer loop
      vertex 8 153.25 -12
      vertex 6.68668 153.042 -15
      vertex 8 153.25 -15
    endloop
  endfacet
  facet normal 0.70702 0.707193 -0
    outer loop
      vertex 5.50191 145.562 -15
      vertex 4.56168 146.502 -12
      vertex 5.50191 145.562 -12
    endloop
  endfacet
  facet normal 0.70702 0.707193 0
    outer loop
      vertex 4.56168 146.502 -12
      vertex 5.50191 145.562 -15
      vertex 4.56168 146.502 -15
    endloop
  endfacet
  facet normal 0.987682 0.156472 0
    outer loop
      vertex 3.95801 147.687 -12
      vertex 3.75 149 -15
      vertex 3.75 149 -12
    endloop
  endfacet
  facet normal 0.987682 0.156472 0
    outer loop
      vertex 3.75 149 -15
      vertex 3.95801 147.687 -12
      vertex 3.95801 147.687 -15
    endloop
  endfacet
  facet normal -0.454184 -0.890908 0
    outer loop
      vertex 9.31332 153.042 -15
      vertex 10.4981 152.438 -12
      vertex 9.31332 153.042 -12
    endloop
  endfacet
  facet normal -0.454184 -0.890908 -0
    outer loop
      vertex 10.4981 152.438 -12
      vertex 9.31332 153.042 -15
      vertex 10.4981 152.438 -15
    endloop
  endfacet
  facet normal 0.891042 0.45392 0
    outer loop
      vertex 4.56168 146.502 -12
      vertex 3.95801 147.687 -15
      vertex 3.95801 147.687 -12
    endloop
  endfacet
  facet normal 0.891042 0.45392 0
    outer loop
      vertex 3.95801 147.687 -15
      vertex 4.56168 146.502 -12
      vertex 4.56168 146.502 -15
    endloop
  endfacet
  facet normal 0.987682 -0.156472 0
    outer loop
      vertex 3.75 149 -12
      vertex 3.95801 150.313 -15
      vertex 3.95801 150.313 -12
    endloop
  endfacet
  facet normal 0.987682 -0.156472 0
    outer loop
      vertex 3.95801 150.313 -15
      vertex 3.75 149 -12
      vertex 3.75 149 -15
    endloop
  endfacet
  facet normal -0.156465 -0.987684 0
    outer loop
      vertex 122 153.25 -15
      vertex 123.313 153.042 -12
      vertex 122 153.25 -12
    endloop
  endfacet
  facet normal -0.156465 -0.987684 -0
    outer loop
      vertex 123.313 153.042 -12
      vertex 122 153.25 -15
      vertex 123.313 153.042 -15
    endloop
  endfacet
  facet normal -0.890942 -0.454117 0
    outer loop
      vertex 126.042 150.313 -15
      vertex 125.438 151.498 -12
      vertex 125.438 151.498 -15
    endloop
  endfacet
  facet normal -0.890942 -0.454117 0
    outer loop
      vertex 125.438 151.498 -12
      vertex 126.042 150.313 -15
      vertex 126.042 150.313 -12
    endloop
  endfacet
  facet normal -0.987684 -0.156465 0
    outer loop
      vertex 126.25 149 -15
      vertex 126.042 150.313 -12
      vertex 126.042 150.313 -15
    endloop
  endfacet
  facet normal -0.987684 -0.156465 0
    outer loop
      vertex 126.042 150.313 -12
      vertex 126.25 149 -15
      vertex 126.25 149 -12
    endloop
  endfacet
  facet normal -0.707107 -0.707107 0
    outer loop
      vertex 124.498 152.438 -15
      vertex 125.438 151.498 -12
      vertex 124.498 152.438 -12
    endloop
  endfacet
  facet normal -0.707107 -0.707107 -0
    outer loop
      vertex 125.438 151.498 -12
      vertex 124.498 152.438 -15
      vertex 125.438 151.498 -15
    endloop
  endfacet
  facet normal -0.890942 0.454117 0
    outer loop
      vertex 125.438 146.502 -15
      vertex 126.042 147.687 -12
      vertex 126.042 147.687 -15
    endloop
  endfacet
  facet normal -0.890942 0.454117 0
    outer loop
      vertex 126.042 147.687 -12
      vertex 125.438 146.502 -15
      vertex 125.438 146.502 -12
    endloop
  endfacet
  facet normal -0.454117 0.890942 0
    outer loop
      vertex 124.498 145.562 -15
      vertex 123.313 144.958 -12
      vertex 124.498 145.562 -12
    endloop
  endfacet
  facet normal -0.454117 0.890942 0
    outer loop
      vertex 123.313 144.958 -12
      vertex 124.498 145.562 -15
      vertex 123.313 144.958 -15
    endloop
  endfacet
  facet normal 0.707107 -0.707107 0
    outer loop
      vertex 118.562 151.498 -15
      vertex 119.502 152.438 -12
      vertex 118.562 151.498 -12
    endloop
  endfacet
  facet normal 0.707107 -0.707107 0
    outer loop
      vertex 119.502 152.438 -12
      vertex 118.562 151.498 -15
      vertex 119.502 152.438 -15
    endloop
  endfacet
  facet normal -0.707107 0.707107 0
    outer loop
      vertex 125.438 146.502 -15
      vertex 124.498 145.562 -12
      vertex 125.438 146.502 -12
    endloop
  endfacet
  facet normal -0.707107 0.707107 0
    outer loop
      vertex 124.498 145.562 -12
      vertex 125.438 146.502 -15
      vertex 124.498 145.562 -15
    endloop
  endfacet
  facet normal 0.454117 -0.890942 0
    outer loop
      vertex 119.502 152.438 -15
      vertex 120.687 153.042 -12
      vertex 119.502 152.438 -12
    endloop
  endfacet
  facet normal 0.454117 -0.890942 0
    outer loop
      vertex 120.687 153.042 -12
      vertex 119.502 152.438 -15
      vertex 120.687 153.042 -15
    endloop
  endfacet
  facet normal 0.454117 0.890942 -0
    outer loop
      vertex 120.687 144.958 -15
      vertex 119.502 145.562 -12
      vertex 120.687 144.958 -12
    endloop
  endfacet
  facet normal 0.454117 0.890942 0
    outer loop
      vertex 119.502 145.562 -12
      vertex 120.687 144.958 -15
      vertex 119.502 145.562 -15
    endloop
  endfacet
  facet normal 0.890942 -0.454117 0
    outer loop
      vertex 117.958 150.313 -12
      vertex 118.562 151.498 -15
      vertex 118.562 151.498 -12
    endloop
  endfacet
  facet normal 0.890942 -0.454117 0
    outer loop
      vertex 118.562 151.498 -15
      vertex 117.958 150.313 -12
      vertex 117.958 150.313 -15
    endloop
  endfacet
  facet normal 0.156465 0.987684 -0
    outer loop
      vertex 122 144.75 -15
      vertex 120.687 144.958 -12
      vertex 122 144.75 -12
    endloop
  endfacet
  facet normal 0.156465 0.987684 0
    outer loop
      vertex 120.687 144.958 -12
      vertex 122 144.75 -15
      vertex 120.687 144.958 -15
    endloop
  endfacet
  facet normal -0.156465 0.987684 0
    outer loop
      vertex 123.313 144.958 -15
      vertex 122 144.75 -12
      vertex 123.313 144.958 -12
    endloop
  endfacet
  facet normal -0.156465 0.987684 0
    outer loop
      vertex 122 144.75 -12
      vertex 123.313 144.958 -15
      vertex 122 144.75 -15
    endloop
  endfacet
  facet normal -0.987684 0.156465 0
    outer loop
      vertex 126.042 147.687 -15
      vertex 126.25 149 -12
      vertex 126.25 149 -15
    endloop
  endfacet
  facet normal -0.987684 0.156465 0
    outer loop
      vertex 126.25 149 -12
      vertex 126.042 147.687 -15
      vertex 126.042 147.687 -12
    endloop
  endfacet
  facet normal 0.156465 -0.987684 0
    outer loop
      vertex 120.687 153.042 -15
      vertex 122 153.25 -12
      vertex 120.687 153.042 -12
    endloop
  endfacet
  facet normal 0.156465 -0.987684 0
    outer loop
      vertex 122 153.25 -12
      vertex 120.687 153.042 -15
      vertex 122 153.25 -15
    endloop
  endfacet
  facet normal 0.707107 0.707107 -0
    outer loop
      vertex 119.502 145.562 -15
      vertex 118.562 146.502 -12
      vertex 119.502 145.562 -12
    endloop
  endfacet
  facet normal 0.707107 0.707107 0
    outer loop
      vertex 118.562 146.502 -12
      vertex 119.502 145.562 -15
      vertex 118.562 146.502 -15
    endloop
  endfacet
  facet normal 0.987684 0.156465 0
    outer loop
      vertex 117.958 147.687 -12
      vertex 117.75 149 -15
      vertex 117.75 149 -12
    endloop
  endfacet
  facet normal 0.987684 0.156465 0
    outer loop
      vertex 117.75 149 -15
      vertex 117.958 147.687 -12
      vertex 117.958 147.687 -15
    endloop
  endfacet
  facet normal -0.454117 -0.890942 0
    outer loop
      vertex 123.313 153.042 -15
      vertex 124.498 152.438 -12
      vertex 123.313 153.042 -12
    endloop
  endfacet
  facet normal -0.454117 -0.890942 -0
    outer loop
      vertex 124.498 152.438 -12
      vertex 123.313 153.042 -15
      vertex 124.498 152.438 -15
    endloop
  endfacet
  facet normal 0.890942 0.454117 0
    outer loop
      vertex 118.562 146.502 -12
      vertex 117.958 147.687 -15
      vertex 117.958 147.687 -12
    endloop
  endfacet
  facet normal 0.890942 0.454117 0
    outer loop
      vertex 117.958 147.687 -15
      vertex 118.562 146.502 -12
      vertex 118.562 146.502 -15
    endloop
  endfacet
  facet normal 0.987684 -0.156465 0
    outer loop
      vertex 117.75 149 -12
      vertex 117.958 150.313 -15
      vertex 117.958 150.313 -12
    endloop
  endfacet
  facet normal 0.987684 -0.156465 0
    outer loop
      vertex 117.958 150.313 -15
      vertex 117.75 149 -12
      vertex 117.75 149 -15
    endloop
  endfacet
  facet normal 0.831493 -0.555535 0
    outer loop
      vertex 126.58 3.97371 -12
      vertex 126.798 4.3 -15
      vertex 126.798 4.3 -12
    endloop
  endfacet
  facet normal 0.831493 -0.555535 0
    outer loop
      vertex 126.798 4.3 -15
      vertex 126.58 3.97371 -12
      vertex 126.58 3.97371 -15
    endloop
  endfacet
  facet normal 1 -0 0
    outer loop
      vertex 127.2 5.8 -12
      vertex 127.2 151.2 -15
      vertex 127.2 151.2 -12
    endloop
  endfacet
  facet normal 1 0 0
    outer loop
      vertex 127.2 151.2 -15
      vertex 127.2 5.8 -12
      vertex 127.2 5.8 -15
    endloop
  endfacet
  facet normal 0.947037 -0.321125 0
    outer loop
      vertex 126.972 4.65195 -12
      vertex 127.098 5.02354 -15
      vertex 127.098 5.02354 -12
    endloop
  endfacet
  facet normal 0.947037 -0.321125 0
    outer loop
      vertex 127.098 5.02354 -15
      vertex 126.972 4.65195 -12
      vertex 126.972 4.65195 -15
    endloop
  endfacet
  facet normal -1 0 0
    outer loop
      vertex 2.8 5.8 -15
      vertex 2.8 151.2 -12
      vertex 2.8 151.2 -15
    endloop
  endfacet
  facet normal -1 -0 0
    outer loop
      vertex 2.8 151.2 -12
      vertex 2.8 5.8 -15
      vertex 2.8 5.8 -12
    endloop
  endfacet
  facet normal 0.997803 -0.0662518 0
    outer loop
      vertex 127.174 5.40842 -12
      vertex 127.2 5.8 -15
      vertex 127.2 5.8 -12
    endloop
  endfacet
  facet normal 0.997803 -0.0662518 0
    outer loop
      vertex 127.2 5.8 -15
      vertex 127.174 5.40842 -12
      vertex 127.174 5.40842 -15
    endloop
  endfacet
  facet normal -0.831241 0.555912 0
    outer loop
      vertex 3.20192 152.7 -15
      vertex 3.41994 153.026 -12
      vertex 3.41994 153.026 -15
    endloop
  endfacet
  facet normal -0.831241 0.555912 0
    outer loop
      vertex 3.41994 153.026 -12
      vertex 3.20192 152.7 -15
      vertex 3.20192 152.7 -12
    endloop
  endfacet
  facet normal 0 -1 0
    outer loop
      vertex 5.8 2.8 -15
      vertex 124.2 2.8 -12
      vertex 5.8 2.8 -12
    endloop
  endfacet
  facet normal 0 -1 -0
    outer loop
      vertex 124.2 2.8 -12
      vertex 5.8 2.8 -15
      vertex 124.2 2.8 -15
    endloop
  endfacet
  facet normal 0.0661811 0.997808 -0
    outer loop
      vertex 124.592 154.174 -15
      vertex 124.2 154.2 -12
      vertex 124.592 154.174 -12
    endloop
  endfacet
  facet normal 0.0661811 0.997808 0
    outer loop
      vertex 124.2 154.2 -12
      vertex 124.592 154.174 -15
      vertex 124.2 154.2 -15
    endloop
  endfacet
  facet normal 0.981056 -0.193723 0
    outer loop
      vertex 127.098 5.02354 -12
      vertex 127.174 5.40842 -15
      vertex 127.174 5.40842 -12
    endloop
  endfacet
  facet normal 0.981056 -0.193723 0
    outer loop
      vertex 127.174 5.40842 -15
      vertex 127.098 5.02354 -12
      vertex 127.098 5.02354 -15
    endloop
  endfacet
  facet normal 0.980972 0.194151 0
    outer loop
      vertex 127.174 151.592 -12
      vertex 127.098 151.976 -15
      vertex 127.098 151.976 -12
    endloop
  endfacet
  facet normal 0.980972 0.194151 0
    outer loop
      vertex 127.098 151.976 -15
      vertex 127.174 151.592 -12
      vertex 127.174 151.592 -15
    endloop
  endfacet
  facet normal -0.997864 0.0653194 0
    outer loop
      vertex 2.8 151.2 -15
      vertex 2.82566 151.592 -12
      vertex 2.82566 151.592 -15
    endloop
  endfacet
  facet normal -0.997864 0.0653194 0
    outer loop
      vertex 2.82566 151.592 -12
      vertex 2.8 151.2 -15
      vertex 2.8 151.2 -12
    endloop
  endfacet
  facet normal 0 1 -0
    outer loop
      vertex 124.2 154.2 -15
      vertex 5.8 154.2 -12
      vertex 124.2 154.2 -12
    endloop
  endfacet
  facet normal 0 1 0
    outer loop
      vertex 5.8 154.2 -12
      vertex 124.2 154.2 -15
      vertex 5.8 154.2 -15
    endloop
  endfacet
  facet normal 0.659766 0.751471 -0
    outer loop
      vertex 126.321 153.321 -15
      vertex 126.026 153.58 -12
      vertex 126.321 153.321 -12
    endloop
  endfacet
  facet normal 0.659766 0.751471 0
    outer loop
      vertex 126.026 153.58 -12
      vertex 126.321 153.321 -15
      vertex 126.026 153.58 -15
    endloop
  endfacet
  facet normal -0.0653892 -0.99786 0
    outer loop
      vertex 5.40842 2.82566 -15
      vertex 5.8 2.8 -12
      vertex 5.40842 2.82566 -12
    endloop
  endfacet
  facet normal -0.0653892 -0.99786 -0
    outer loop
      vertex 5.8 2.8 -12
      vertex 5.40842 2.82566 -15
      vertex 5.8 2.8 -15
    endloop
  endfacet
  facet normal -0.193723 0.981056 0
    outer loop
      vertex 5.40842 154.174 -15
      vertex 5.02354 154.098 -12
      vertex 5.40842 154.174 -12
    endloop
  endfacet
  facet normal -0.193723 0.981056 0
    outer loop
      vertex 5.02354 154.098 -12
      vertex 5.40842 154.174 -15
      vertex 5.02354 154.098 -15
    endloop
  endfacet
  facet normal -0.321125 0.947037 0
    outer loop
      vertex 5.02354 154.098 -15
      vertex 4.65195 153.972 -12
      vertex 5.02354 154.098 -12
    endloop
  endfacet
  facet normal -0.321125 0.947037 0
    outer loop
      vertex 4.65195 153.972 -12
      vertex 5.02354 154.098 -15
      vertex 4.65195 153.972 -15
    endloop
  endfacet
  facet normal -0.321444 -0.946928 0
    outer loop
      vertex 4.65195 3.02836 -15
      vertex 5.02354 2.90222 -12
      vertex 4.65195 3.02836 -12
    endloop
  endfacet
  facet normal -0.321444 -0.946928 -0
    outer loop
      vertex 5.02354 2.90222 -12
      vertex 4.65195 3.02836 -15
      vertex 5.02354 2.90222 -15
    endloop
  endfacet
  facet normal -0.8969 0.442233 0
    outer loop
      vertex 3.02836 152.348 -15
      vertex 3.20192 152.7 -12
      vertex 3.20192 152.7 -15
    endloop
  endfacet
  facet normal -0.8969 0.442233 0
    outer loop
      vertex 3.20192 152.7 -12
      vertex 3.02836 152.348 -15
      vertex 3.02836 152.348 -12
    endloop
  endfacet
  facet normal 0.555912 -0.831241 0
    outer loop
      vertex 125.7 3.20192 -15
      vertex 126.026 3.41994 -12
      vertex 125.7 3.20192 -12
    endloop
  endfacet
  facet normal 0.555912 -0.831241 0
    outer loop
      vertex 126.026 3.41994 -12
      vertex 125.7 3.20192 -15
      vertex 126.026 3.41994 -15
    endloop
  endfacet
  facet normal 0.321127 -0.947036 0
    outer loop
      vertex 124.976 2.90222 -15
      vertex 125.348 3.02836 -12
      vertex 124.976 2.90222 -12
    endloop
  endfacet
  facet normal 0.321127 -0.947036 0
    outer loop
      vertex 125.348 3.02836 -12
      vertex 124.976 2.90222 -15
      vertex 125.348 3.02836 -15
    endloop
  endfacet
  facet normal 0.195527 -0.980698 0
    outer loop
      vertex 124.592 2.82566 -15
      vertex 124.976 2.90222 -12
      vertex 124.592 2.82566 -12
    endloop
  endfacet
  facet normal 0.195527 -0.980698 0
    outer loop
      vertex 124.976 2.90222 -12
      vertex 124.592 2.82566 -15
      vertex 124.976 2.90222 -15
    endloop
  endfacet
  facet normal -0.896875 -0.442283 0
    outer loop
      vertex 3.20192 4.3 -15
      vertex 3.02836 4.65195 -12
      vertex 3.02836 4.65195 -15
    endloop
  endfacet
  facet normal -0.896875 -0.442283 0
    outer loop
      vertex 3.02836 4.65195 -12
      vertex 3.20192 4.3 -15
      vertex 3.20192 4.3 -12
    endloop
  endfacet
  facet normal 0 0 1
    outer loop
      vertex 10.4981 145.562 -12
      vertex 119.502 145.562 -12
      vertex 11.4383 146.502 -12
    endloop
  endfacet
  facet normal 0 0 1
    outer loop
      vertex 119.502 11.4383 -12
      vertex 12.042 9.31332 -12
      vertex 12.25 8 -12
    endloop
  endfacet
  facet normal 0 0 1
    outer loop
      vertex 119.502 145.562 -12
      vertex 10.4981 145.562 -12
      vertex 119.502 11.4383 -12
    endloop
  endfacet
  facet normal 0 0 1
    outer loop
      vertex 119.502 11.4383 -12
      vertex 11.4383 10.4981 -12
      vertex 12.042 9.31332 -12
    endloop
  endfacet
  facet normal 0 0 1
    outer loop
      vertex 10.4981 11.4383 -12
      vertex 119.502 11.4383 -12
      vertex 10.4981 145.562 -12
    endloop
  endfacet
  facet normal 0 0 1
    outer loop
      vertex 119.502 11.4383 -12
      vertex 10.4981 11.4383 -12
      vertex 11.4383 10.4981 -12
    endloop
  endfacet
  facet normal -0 0 1
    outer loop
      vertex 9.31332 144.958 -12
      vertex 10.4981 11.4383 -12
      vertex 10.4981 145.562 -12
    endloop
  endfacet
  facet normal 0 0 1
    outer loop
      vertex 9.31332 144.958 -12
      vertex 9.31332 12.042 -12
      vertex 10.4981 11.4383 -12
    endloop
  endfacet
  facet normal -0 0 1
    outer loop
      vertex 8 144.75 -12
      vertex 9.31332 12.042 -12
      vertex 9.31332 144.958 -12
    endloop
  endfacet
  facet normal 0 0 1
    outer loop
      vertex 8 144.75 -12
      vertex 8 12.25 -12
      vertex 9.31332 12.042 -12
    endloop
  endfacet
  facet normal 0 0 1
    outer loop
      vertex 6.68668 144.958 -12
      vertex 8 12.25 -12
      vertex 8 144.75 -12
    endloop
  endfacet
  facet normal 0 0 1
    outer loop
      vertex 6.68668 144.958 -12
      vertex 6.68668 12.042 -12
      vertex 8 12.25 -12
    endloop
  endfacet
  facet normal 0 0 1
    outer loop
      vertex 5.50191 145.562 -12
      vertex 6.68668 12.042 -12
      vertex 6.68668 144.958 -12
    endloop
  endfacet
  facet normal 0 0 1
    outer loop
      vertex 5.50191 145.562 -12
      vertex 5.50191 11.4383 -12
      vertex 6.68668 12.042 -12
    endloop
  endfacet
  facet normal 0 0 1
    outer loop
      vertex 4.56168 146.502 -12
      vertex 5.50191 11.4383 -12
      vertex 5.50191 145.562 -12
    endloop
  endfacet
  facet normal 0 0 1
    outer loop
      vertex 4.56168 146.502 -12
      vertex 4.56168 10.4981 -12
      vertex 5.50191 11.4383 -12
    endloop
  endfacet
  facet normal 0 0 1
    outer loop
      vertex 3.95801 147.687 -12
      vertex 4.56168 10.4981 -12
      vertex 4.56168 146.502 -12
    endloop
  endfacet
  facet normal 0 0 1
    outer loop
      vertex 3.95801 147.687 -12
      vertex 3.95801 9.31332 -12
      vertex 4.56168 10.4981 -12
    endloop
  endfacet
  facet normal 0 0 1
    outer loop
      vertex 2.8 151.2 -12
      vertex 3.95801 147.687 -12
      vertex 3.75 149 -12
    endloop
  endfacet
  facet normal 0 0 1
    outer loop
      vertex 3.95801 147.687 -12
      vertex 2.8 151.2 -12
      vertex 3.95801 9.31332 -12
    endloop
  endfacet
  facet normal -0 0 1
    outer loop
      vertex 126.042 9.31332 -12
      vertex 127.2 5.8 -12
      vertex 126.042 147.687 -12
    endloop
  endfacet
  facet normal 0 0 1
    outer loop
      vertex 127.2 5.8 -12
      vertex 126.042 9.31332 -12
      vertex 126.25 8 -12
    endloop
  endfacet
  facet normal -0 0 1
    outer loop
      vertex 125.438 146.502 -12
      vertex 126.042 9.31332 -12
      vertex 126.042 147.687 -12
    endloop
  endfacet
  facet normal 0 0 1
    outer loop
      vertex 125.438 146.502 -12
      vertex 125.438 10.4981 -12
      vertex 126.042 9.31332 -12
    endloop
  endfacet
  facet normal -0 0 1
    outer loop
      vertex 124.498 145.562 -12
      vertex 125.438 10.4981 -12
      vertex 125.438 146.502 -12
    endloop
  endfacet
  facet normal 0 0 1
    outer loop
      vertex 124.498 145.562 -12
      vertex 124.498 11.4383 -12
      vertex 125.438 10.4981 -12
    endloop
  endfacet
  facet normal -0 0 1
    outer loop
      vertex 123.313 144.958 -12
      vertex 124.498 11.4383 -12
      vertex 124.498 145.562 -12
    endloop
  endfacet
  facet normal 0 0 1
    outer loop
      vertex 123.313 144.958 -12
      vertex 123.313 12.042 -12
      vertex 124.498 11.4383 -12
    endloop
  endfacet
  facet normal -0 0 1
    outer loop
      vertex 122 144.75 -12
      vertex 123.313 12.042 -12
      vertex 123.313 144.958 -12
    endloop
  endfacet
  facet normal 0 0 1
    outer loop
      vertex 122 144.75 -12
      vertex 122 12.25 -12
      vertex 123.313 12.042 -12
    endloop
  endfacet
  facet normal 0 0 1
    outer loop
      vertex 120.687 144.958 -12
      vertex 122 12.25 -12
      vertex 122 144.75 -12
    endloop
  endfacet
  facet normal 0 0 1
    outer loop
      vertex 120.687 144.958 -12
      vertex 120.687 12.042 -12
      vertex 122 12.25 -12
    endloop
  endfacet
  facet normal 0 0 1
    outer loop
      vertex 119.502 145.562 -12
      vertex 120.687 12.042 -12
      vertex 120.687 144.958 -12
    endloop
  endfacet
  facet normal 0 0 1
    outer loop
      vertex 119.502 145.562 -12
      vertex 119.502 11.4383 -12
      vertex 120.687 12.042 -12
    endloop
  endfacet
  facet normal 0 0 1
    outer loop
      vertex 117.958 147.687 -12
      vertex 12.042 147.687 -12
      vertex 118.562 146.502 -12
    endloop
  endfacet
  facet normal 0 0 1
    outer loop
      vertex 11.4383 146.502 -12
      vertex 118.562 146.502 -12
      vertex 12.042 147.687 -12
    endloop
  endfacet
  facet normal 0 0 1
    outer loop
      vertex 12.042 147.687 -12
      vertex 117.958 147.687 -12
      vertex 12.25 149 -12
    endloop
  endfacet
  facet normal 0 0 1
    outer loop
      vertex 118.562 146.502 -12
      vertex 11.4383 146.502 -12
      vertex 119.502 145.562 -12
    endloop
  endfacet
  facet normal -0 0 1
    outer loop
      vertex 12.25 149 -12
      vertex 117.958 147.687 -12
      vertex 117.75 149 -12
    endloop
  endfacet
  facet normal 0 0 1
    outer loop
      vertex 119.502 11.4383 -12
      vertex 12.25 8 -12
      vertex 118.562 10.4981 -12
    endloop
  endfacet
  facet normal -0 0 1
    outer loop
      vertex 125.438 151.498 -12
      vertex 127.2 151.2 -12
      vertex 127.174 151.592 -12
    endloop
  endfacet
  facet normal 0 0 1
    outer loop
      vertex 126.042 147.687 -12
      vertex 127.2 151.2 -12
      vertex 126.25 149 -12
    endloop
  endfacet
  facet normal 0 0 1
    outer loop
      vertex 125.438 151.498 -12
      vertex 127.174 151.592 -12
      vertex 127.098 151.976 -12
    endloop
  endfacet
  facet normal 0 0 1
    outer loop
      vertex 127.2 151.2 -12
      vertex 126.042 147.687 -12
      vertex 127.2 5.8 -12
    endloop
  endfacet
  facet normal 0 0 1
    outer loop
      vertex 125.438 151.498 -12
      vertex 127.098 151.976 -12
      vertex 126.972 152.348 -12
    endloop
  endfacet
  facet normal -0 0 1
    outer loop
      vertex 126.042 6.68668 -12
      vertex 127.2 5.8 -12
      vertex 126.25 8 -12
    endloop
  endfacet
  facet normal 0 0 1
    outer loop
      vertex 125.438 151.498 -12
      vertex 126.972 152.348 -12
      vertex 126.798 152.7 -12
    endloop
  endfacet
  facet normal 0 0 1
    outer loop
      vertex 125.438 5.50191 -12
      vertex 127.2 5.8 -12
      vertex 126.042 6.68668 -12
    endloop
  endfacet
  facet normal 0 0 1
    outer loop
      vertex 125.438 151.498 -12
      vertex 126.798 152.7 -12
      vertex 126.58 153.026 -12
    endloop
  endfacet
  facet normal 0 0 1
    outer loop
      vertex 127.2 5.8 -12
      vertex 125.438 5.50191 -12
      vertex 127.174 5.40842 -12
    endloop
  endfacet
  facet normal 0 0 1
    outer loop
      vertex 125.438 151.498 -12
      vertex 126.58 153.026 -12
      vertex 126.321 153.321 -12
    endloop
  endfacet
  facet normal 0 0 1
    outer loop
      vertex 127.174 5.40842 -12
      vertex 125.438 5.50191 -12
      vertex 127.098 5.02354 -12
    endloop
  endfacet
  facet normal 0 0 1
    outer loop
      vertex 127.098 5.02354 -12
      vertex 125.438 5.50191 -12
      vertex 126.972 4.65195 -12
    endloop
  endfacet
  facet normal 0 0 1
    outer loop
      vertex 127.2 151.2 -12
      vertex 126.042 150.313 -12
      vertex 126.25 149 -12
    endloop
  endfacet
  facet normal 0 0 1
    outer loop
      vertex 124.498 152.438 -12
      vertex 126.321 153.321 -12
      vertex 126.026 153.58 -12
    endloop
  endfacet
  facet normal 0 0 1
    outer loop
      vertex 124.498 152.438 -12
      vertex 126.026 153.58 -12
      vertex 125.7 153.798 -12
    endloop
  endfacet
  facet normal 0 0 1
    outer loop
      vertex 127.2 151.2 -12
      vertex 125.438 151.498 -12
      vertex 126.042 150.313 -12
    endloop
  endfacet
  facet normal 0 0 1
    outer loop
      vertex 124.498 152.438 -12
      vertex 125.7 153.798 -12
      vertex 125.348 153.972 -12
    endloop
  endfacet
  facet normal 0 0 1
    outer loop
      vertex 124.498 152.438 -12
      vertex 125.348 153.972 -12
      vertex 124.976 154.098 -12
    endloop
  endfacet
  facet normal 0 0 1
    outer loop
      vertex 124.498 152.438 -12
      vertex 124.976 154.098 -12
      vertex 124.592 154.174 -12
    endloop
  endfacet
  facet normal 0 0 1
    outer loop
      vertex 126.321 153.321 -12
      vertex 124.498 152.438 -12
      vertex 125.438 151.498 -12
    endloop
  endfacet
  facet normal 0 0 1
    outer loop
      vertex 124.2 154.2 -12
      vertex 124.498 152.438 -12
      vertex 124.592 154.174 -12
    endloop
  endfacet
  facet normal 0 0 1
    outer loop
      vertex 124.2 154.2 -12
      vertex 123.313 153.042 -12
      vertex 124.498 152.438 -12
    endloop
  endfacet
  facet normal 0 0 1
    outer loop
      vertex 124.2 154.2 -12
      vertex 122 153.25 -12
      vertex 123.313 153.042 -12
    endloop
  endfacet
  facet normal 0 0 1
    outer loop
      vertex 124.2 154.2 -12
      vertex 120.687 153.042 -12
      vertex 122 153.25 -12
    endloop
  endfacet
  facet normal 0 0 1
    outer loop
      vertex 118.562 10.4981 -12
      vertex 12.25 8 -12
      vertex 117.958 9.31332 -12
    endloop
  endfacet
  facet normal 0 0 1
    outer loop
      vertex 117.958 150.313 -12
      vertex 12.25 149 -12
      vertex 117.75 149 -12
    endloop
  endfacet
  facet normal 0 0 1
    outer loop
      vertex 12.042 150.313 -12
      vertex 117.958 150.313 -12
      vertex 118.562 151.498 -12
    endloop
  endfacet
  facet normal 0 0 1
    outer loop
      vertex 11.4383 151.498 -12
      vertex 118.562 151.498 -12
      vertex 119.502 152.438 -12
    endloop
  endfacet
  facet normal 0 0 1
    outer loop
      vertex 10.4981 152.438 -12
      vertex 119.502 152.438 -12
      vertex 120.687 153.042 -12
    endloop
  endfacet
  facet normal 0 0 1
    outer loop
      vertex 9.31332 153.042 -12
      vertex 120.687 153.042 -12
      vertex 124.2 154.2 -12
    endloop
  endfacet
  facet normal 0 0 1
    outer loop
      vertex 117.958 150.313 -12
      vertex 12.042 150.313 -12
      vertex 12.25 149 -12
    endloop
  endfacet
  facet normal 0 0 1
    outer loop
      vertex 118.562 151.498 -12
      vertex 11.4383 151.498 -12
      vertex 12.042 150.313 -12
    endloop
  endfacet
  facet normal 0 0 1
    outer loop
      vertex 119.502 152.438 -12
      vertex 10.4981 152.438 -12
      vertex 11.4383 151.498 -12
    endloop
  endfacet
  facet normal 0 0 1
    outer loop
      vertex 120.687 153.042 -12
      vertex 9.31332 153.042 -12
      vertex 10.4981 152.438 -12
    endloop
  endfacet
  facet normal -0 0 1
    outer loop
      vertex 5.8 154.2 -12
      vertex 9.31332 153.042 -12
      vertex 124.2 154.2 -12
    endloop
  endfacet
  facet normal 0 0 1
    outer loop
      vertex 9.31332 153.042 -12
      vertex 5.8 154.2 -12
      vertex 8 153.25 -12
    endloop
  endfacet
  facet normal 0 0 1
    outer loop
      vertex 5.8 154.2 -12
      vertex 6.68668 153.042 -12
      vertex 8 153.25 -12
    endloop
  endfacet
  facet normal 0 0 1
    outer loop
      vertex 5.8 154.2 -12
      vertex 5.50191 152.438 -12
      vertex 6.68668 153.042 -12
    endloop
  endfacet
  facet normal -0 0 1
    outer loop
      vertex 5.40842 154.174 -12
      vertex 5.50191 152.438 -12
      vertex 5.8 154.2 -12
    endloop
  endfacet
  facet normal -0 0 1
    outer loop
      vertex 5.02354 154.098 -12
      vertex 5.50191 152.438 -12
      vertex 5.40842 154.174 -12
    endloop
  endfacet
  facet normal -0 0 1
    outer loop
      vertex 4.65195 153.972 -12
      vertex 5.50191 152.438 -12
      vertex 5.02354 154.098 -12
    endloop
  endfacet
  facet normal -0 0 1
    outer loop
      vertex 4.3 153.798 -12
      vertex 5.50191 152.438 -12
      vertex 4.65195 153.972 -12
    endloop
  endfacet
  facet normal -0 0 1
    outer loop
      vertex 3.97371 153.58 -12
      vertex 5.50191 152.438 -12
      vertex 4.3 153.798 -12
    endloop
  endfacet
  facet normal -0 0 1
    outer loop
      vertex 3.67868 153.321 -12
      vertex 5.50191 152.438 -12
      vertex 3.97371 153.58 -12
    endloop
  endfacet
  facet normal 0 0 1
    outer loop
      vertex 5.50191 152.438 -12
      vertex 3.67868 153.321 -12
      vertex 4.56168 151.498 -12
    endloop
  endfacet
  facet normal -0 0 1
    outer loop
      vertex 3.41994 153.026 -12
      vertex 4.56168 151.498 -12
      vertex 3.67868 153.321 -12
    endloop
  endfacet
  facet normal 0 0 1
    outer loop
      vertex 3.95801 150.313 -12
      vertex 2.8 151.2 -12
      vertex 3.75 149 -12
    endloop
  endfacet
  facet normal -0 0 1
    outer loop
      vertex 3.20192 152.7 -12
      vertex 4.56168 151.498 -12
      vertex 3.41994 153.026 -12
    endloop
  endfacet
  facet normal 0 0 1
    outer loop
      vertex 126.972 4.65195 -12
      vertex 125.438 5.50191 -12
      vertex 126.798 4.3 -12
    endloop
  endfacet
  facet normal 0 0 1
    outer loop
      vertex 126.798 4.3 -12
      vertex 125.438 5.50191 -12
      vertex 126.58 3.97371 -12
    endloop
  endfacet
  facet normal 0 0 1
    outer loop
      vertex 126.58 3.97371 -12
      vertex 125.438 5.50191 -12
      vertex 126.321 3.67868 -12
    endloop
  endfacet
  facet normal -0 0 1
    outer loop
      vertex 124.498 4.56168 -12
      vertex 126.321 3.67868 -12
      vertex 125.438 5.50191 -12
    endloop
  endfacet
  facet normal 0 0 1
    outer loop
      vertex 126.321 3.67868 -12
      vertex 124.498 4.56168 -12
      vertex 126.026 3.41994 -12
    endloop
  endfacet
  facet normal 0 0 1
    outer loop
      vertex 126.026 3.41994 -12
      vertex 124.498 4.56168 -12
      vertex 125.7 3.20192 -12
    endloop
  endfacet
  facet normal 0 0 1
    outer loop
      vertex 125.7 3.20192 -12
      vertex 124.498 4.56168 -12
      vertex 125.348 3.02836 -12
    endloop
  endfacet
  facet normal 0 0 1
    outer loop
      vertex 125.348 3.02836 -12
      vertex 124.498 4.56168 -12
      vertex 124.976 2.90222 -12
    endloop
  endfacet
  facet normal 0 0 1
    outer loop
      vertex 124.976 2.90222 -12
      vertex 124.498 4.56168 -12
      vertex 124.592 2.82566 -12
    endloop
  endfacet
  facet normal 0 0 1
    outer loop
      vertex 124.498 4.56168 -12
      vertex 124.2 2.8 -12
      vertex 124.592 2.82566 -12
    endloop
  endfacet
  facet normal -0 0 1
    outer loop
      vertex 123.313 3.95801 -12
      vertex 124.2 2.8 -12
      vertex 124.498 4.56168 -12
    endloop
  endfacet
  facet normal -0 0 1
    outer loop
      vertex 122 3.75 -12
      vertex 124.2 2.8 -12
      vertex 123.313 3.95801 -12
    endloop
  endfacet
  facet normal 0 0 1
    outer loop
      vertex 120.687 3.95801 -12
      vertex 124.2 2.8 -12
      vertex 122 3.75 -12
    endloop
  endfacet
  facet normal 0 0 1
    outer loop
      vertex 117.958 9.31332 -12
      vertex 12.25 8 -12
      vertex 117.75 8 -12
    endloop
  endfacet
  facet normal 0 0 1
    outer loop
      vertex 117.75 8 -12
      vertex 12.25 8 -12
      vertex 117.958 6.68668 -12
    endloop
  endfacet
  facet normal 0 0 1
    outer loop
      vertex 12.042 6.68668 -12
      vertex 117.958 6.68668 -12
      vertex 12.25 8 -12
    endloop
  endfacet
  facet normal 0 0 1
    outer loop
      vertex 117.958 6.68668 -12
      vertex 12.042 6.68668 -12
      vertex 118.562 5.50191 -12
    endloop
  endfacet
  facet normal 0 0 1
    outer loop
      vertex 11.4383 5.50191 -12
      vertex 118.562 5.50191 -12
      vertex 12.042 6.68668 -12
    endloop
  endfacet
  facet normal 0 0 1
    outer loop
      vertex 118.562 5.50191 -12
      vertex 11.4383 5.50191 -12
      vertex 119.502 4.56168 -12
    endloop
  endfacet
  facet normal 0 0 1
    outer loop
      vertex 10.4981 4.56168 -12
      vertex 119.502 4.56168 -12
      vertex 11.4383 5.50191 -12
    endloop
  endfacet
  facet normal 0 0 1
    outer loop
      vertex 119.502 4.56168 -12
      vertex 10.4981 4.56168 -12
      vertex 120.687 3.95801 -12
    endloop
  endfacet
  facet normal 0 0 1
    outer loop
      vertex 9.31332 3.95801 -12
      vertex 120.687 3.95801 -12
      vertex 10.4981 4.56168 -12
    endloop
  endfacet
  facet normal 0 0 1
    outer loop
      vertex 120.687 3.95801 -12
      vertex 9.31332 3.95801 -12
      vertex 124.2 2.8 -12
    endloop
  endfacet
  facet normal 0 0 1
    outer loop
      vertex 5.8 2.8 -12
      vertex 9.31332 3.95801 -12
      vertex 8 3.75 -12
    endloop
  endfacet
  facet normal 0 0 1
    outer loop
      vertex 9.31332 3.95801 -12
      vertex 5.8 2.8 -12
      vertex 124.2 2.8 -12
    endloop
  endfacet
  facet normal 0 0 1
    outer loop
      vertex 6.68668 3.95801 -12
      vertex 5.8 2.8 -12
      vertex 8 3.75 -12
    endloop
  endfacet
  facet normal 0 0 1
    outer loop
      vertex 5.50191 4.56168 -12
      vertex 5.8 2.8 -12
      vertex 6.68668 3.95801 -12
    endloop
  endfacet
  facet normal 0 0 1
    outer loop
      vertex 5.50191 4.56168 -12
      vertex 5.40842 2.82566 -12
      vertex 5.8 2.8 -12
    endloop
  endfacet
  facet normal 0 0 1
    outer loop
      vertex 5.50191 4.56168 -12
      vertex 5.02354 2.90222 -12
      vertex 5.40842 2.82566 -12
    endloop
  endfacet
  facet normal 0 0 1
    outer loop
      vertex 5.50191 4.56168 -12
      vertex 4.65195 3.02836 -12
      vertex 5.02354 2.90222 -12
    endloop
  endfacet
  facet normal 0 0 1
    outer loop
      vertex 3.67868 3.67868 -12
      vertex 5.50191 4.56168 -12
      vertex 4.56168 5.50191 -12
    endloop
  endfacet
  facet normal 0 0 1
    outer loop
      vertex 5.50191 4.56168 -12
      vertex 4.3 3.20192 -12
      vertex 4.65195 3.02836 -12
    endloop
  endfacet
  facet normal 0 0 1
    outer loop
      vertex 5.50191 4.56168 -12
      vertex 3.97371 3.41994 -12
      vertex 4.3 3.20192 -12
    endloop
  endfacet
  facet normal -0 0 1
    outer loop
      vertex 2.8 5.8 -12
      vertex 4.56168 5.50191 -12
      vertex 3.95801 6.68668 -12
    endloop
  endfacet
  facet normal 0 0 1
    outer loop
      vertex 2.8 5.8 -12
      vertex 3.95801 6.68668 -12
      vertex 3.75 8 -12
    endloop
  endfacet
  facet normal 0 0 1
    outer loop
      vertex 5.50191 4.56168 -12
      vertex 3.67868 3.67868 -12
      vertex 3.97371 3.41994 -12
    endloop
  endfacet
  facet normal 0 0 1
    outer loop
      vertex 2.8 5.8 -12
      vertex 3.95801 9.31332 -12
      vertex 2.8 151.2 -12
    endloop
  endfacet
  facet normal -0 0 1
    outer loop
      vertex 3.02836 152.348 -12
      vertex 4.56168 151.498 -12
      vertex 3.20192 152.7 -12
    endloop
  endfacet
  facet normal 0 0 1
    outer loop
      vertex 3.95801 9.31332 -12
      vertex 2.8 5.8 -12
      vertex 3.75 8 -12
    endloop
  endfacet
  facet normal -0 0 1
    outer loop
      vertex 2.90222 151.976 -12
      vertex 4.56168 151.498 -12
      vertex 3.02836 152.348 -12
    endloop
  endfacet
  facet normal 0 0 1
    outer loop
      vertex 4.56168 5.50191 -12
      vertex 2.8 5.8 -12
      vertex 2.82566 5.40842 -12
    endloop
  endfacet
  facet normal -0 0 1
    outer loop
      vertex 2.82566 151.592 -12
      vertex 4.56168 151.498 -12
      vertex 2.90222 151.976 -12
    endloop
  endfacet
  facet normal 0 0 1
    outer loop
      vertex 4.56168 5.50191 -12
      vertex 3.41994 3.97371 -12
      vertex 3.67868 3.67868 -12
    endloop
  endfacet
  facet normal 0 0 1
    outer loop
      vertex 2.8 151.2 -12
      vertex 4.56168 151.498 -12
      vertex 2.82566 151.592 -12
    endloop
  endfacet
  facet normal 0 0 1
    outer loop
      vertex 4.56168 5.50191 -12
      vertex 3.20192 4.3 -12
      vertex 3.41994 3.97371 -12
    endloop
  endfacet
  facet normal 0 0 1
    outer loop
      vertex 4.56168 151.498 -12
      vertex 2.8 151.2 -12
      vertex 3.95801 150.313 -12
    endloop
  endfacet
  facet normal 0 0 1
    outer loop
      vertex 4.56168 5.50191 -12
      vertex 3.02836 4.65195 -12
      vertex 3.20192 4.3 -12
    endloop
  endfacet
  facet normal 0 0 1
    outer loop
      vertex 4.56168 5.50191 -12
      vertex 2.90222 5.02354 -12
      vertex 3.02836 4.65195 -12
    endloop
  endfacet
  facet normal 0 0 1
    outer loop
      vertex 4.56168 5.50191 -12
      vertex 2.82566 5.40842 -12
      vertex 2.90222 5.02354 -12
    endloop
  endfacet
  facet normal -0.659728 0.751504 0
    outer loop
      vertex 3.97371 153.58 -15
      vertex 3.67868 153.321 -12
      vertex 3.97371 153.58 -12
    endloop
  endfacet
  facet normal -0.659728 0.751504 0
    outer loop
      vertex 3.67868 153.321 -12
      vertex 3.97371 153.58 -15
      vertex 3.67868 153.321 -15
    endloop
  endfacet
  facet normal 0.831265 0.555877 0
    outer loop
      vertex 126.798 152.7 -12
      vertex 126.58 153.026 -15
      vertex 126.58 153.026 -12
    endloop
  endfacet
  facet normal 0.831265 0.555877 0
    outer loop
      vertex 126.58 153.026 -15
      vertex 126.798 152.7 -12
      vertex 126.798 152.7 -15
    endloop
  endfacet
  facet normal 0.947145 0.320807 0
    outer loop
      vertex 127.098 151.976 -12
      vertex 126.972 152.348 -15
      vertex 126.972 152.348 -12
    endloop
  endfacet
  facet normal 0.947145 0.320807 0
    outer loop
      vertex 126.972 152.348 -15
      vertex 127.098 151.976 -12
      vertex 127.098 151.976 -15
    endloop
  endfacet
  facet normal 0.442233 -0.8969 0
    outer loop
      vertex 125.348 3.02836 -15
      vertex 125.7 3.20192 -12
      vertex 125.348 3.02836 -12
    endloop
  endfacet
  facet normal 0.442233 -0.8969 0
    outer loop
      vertex 125.7 3.20192 -12
      vertex 125.348 3.02836 -15
      vertex 125.7 3.20192 -15
    endloop
  endfacet
  facet normal 0.194151 0.980972 -0
    outer loop
      vertex 124.976 154.098 -15
      vertex 124.592 154.174 -12
      vertex 124.976 154.098 -12
    endloop
  endfacet
  facet normal 0.194151 0.980972 0
    outer loop
      vertex 124.592 154.174 -12
      vertex 124.976 154.098 -15
      vertex 124.592 154.174 -15
    endloop
  endfacet
  facet normal -0.980784 -0.195097 0
    outer loop
      vertex 2.90222 5.02354 -15
      vertex 2.82566 5.40842 -12
      vertex 2.82566 5.40842 -15
    endloop
  endfacet
  facet normal -0.980784 -0.195097 0
    outer loop
      vertex 2.82566 5.40842 -12
      vertex 2.90222 5.02354 -15
      vertex 2.90222 5.02354 -12
    endloop
  endfacet
  facet normal 0.751504 -0.659728 0
    outer loop
      vertex 126.321 3.67868 -12
      vertex 126.58 3.97371 -15
      vertex 126.58 3.97371 -12
    endloop
  endfacet
  facet normal 0.751504 -0.659728 0
    outer loop
      vertex 126.58 3.97371 -15
      vertex 126.321 3.67868 -12
      vertex 126.321 3.67868 -15
    endloop
  endfacet
  facet normal 0.997808 0.0661811 0
    outer loop
      vertex 127.2 151.2 -12
      vertex 127.174 151.592 -15
      vertex 127.174 151.592 -12
    endloop
  endfacet
  facet normal 0.997808 0.0661811 0
    outer loop
      vertex 127.174 151.592 -15
      vertex 127.2 151.2 -12
      vertex 127.2 151.2 -15
    endloop
  endfacet
  facet normal -0.443185 0.89643 0
    outer loop
      vertex 4.65195 153.972 -15
      vertex 4.3 153.798 -12
      vertex 4.65195 153.972 -12
    endloop
  endfacet
  facet normal -0.443185 0.89643 0
    outer loop
      vertex 4.3 153.798 -12
      vertex 4.65195 153.972 -15
      vertex 4.3 153.798 -15
    endloop
  endfacet
  facet normal -0.751833 -0.659354 0
    outer loop
      vertex 3.67868 3.67868 -15
      vertex 3.41994 3.97371 -12
      vertex 3.41994 3.97371 -15
    endloop
  endfacet
  facet normal -0.751833 -0.659354 0
    outer loop
      vertex 3.41994 3.97371 -12
      vertex 3.67868 3.67868 -15
      vertex 3.67868 3.67868 -12
    endloop
  endfacet
  facet normal -0.195097 -0.980784 0
    outer loop
      vertex 5.02354 2.90222 -15
      vertex 5.40842 2.82566 -12
      vertex 5.02354 2.90222 -12
    endloop
  endfacet
  facet normal -0.195097 -0.980784 -0
    outer loop
      vertex 5.40842 2.82566 -12
      vertex 5.02354 2.90222 -15
      vertex 5.40842 2.82566 -15
    endloop
  endfacet
  facet normal 0.320807 0.947145 -0
    outer loop
      vertex 125.348 153.972 -15
      vertex 124.976 154.098 -12
      vertex 125.348 153.972 -12
    endloop
  endfacet
  facet normal 0.320807 0.947145 0
    outer loop
      vertex 124.976 154.098 -12
      vertex 125.348 153.972 -15
      vertex 124.976 154.098 -15
    endloop
  endfacet
  facet normal -0.99786 -0.0653892 0
    outer loop
      vertex 2.82566 5.40842 -15
      vertex 2.8 5.8 -12
      vertex 2.8 5.8 -15
    endloop
  endfacet
  facet normal -0.99786 -0.0653892 0
    outer loop
      vertex 2.8 5.8 -12
      vertex 2.82566 5.40842 -15
      vertex 2.82566 5.40842 -12
    endloop
  endfacet
  facet normal 0.0653194 -0.997864 0
    outer loop
      vertex 124.2 2.8 -15
      vertex 124.592 2.82566 -12
      vertex 124.2 2.8 -12
    endloop
  endfacet
  facet normal 0.0653194 -0.997864 0
    outer loop
      vertex 124.592 2.82566 -12
      vertex 124.2 2.8 -15
      vertex 124.592 2.82566 -15
    endloop
  endfacet
  facet normal 0.659392 -0.751799 0
    outer loop
      vertex 126.026 3.41994 -15
      vertex 126.321 3.67868 -12
      vertex 126.026 3.41994 -12
    endloop
  endfacet
  facet normal 0.659392 -0.751799 0
    outer loop
      vertex 126.321 3.67868 -12
      vertex 126.026 3.41994 -15
      vertex 126.321 3.67868 -15
    endloop
  endfacet
  facet normal -0.980698 0.195527 0
    outer loop
      vertex 2.82566 151.592 -15
      vertex 2.90222 151.976 -12
      vertex 2.90222 151.976 -15
    endloop
  endfacet
  facet normal -0.980698 0.195527 0
    outer loop
      vertex 2.90222 151.976 -12
      vertex 2.82566 151.592 -15
      vertex 2.82566 151.592 -12
    endloop
  endfacet
  facet normal -0.659354 -0.751833 0
    outer loop
      vertex 3.67868 3.67868 -15
      vertex 3.97371 3.41994 -12
      vertex 3.67868 3.67868 -12
    endloop
  endfacet
  facet normal -0.659354 -0.751833 -0
    outer loop
      vertex 3.97371 3.41994 -12
      vertex 3.67868 3.67868 -15
      vertex 3.97371 3.41994 -15
    endloop
  endfacet
  facet normal 0.89643 -0.443185 0
    outer loop
      vertex 126.798 4.3 -12
      vertex 126.972 4.65195 -15
      vertex 126.972 4.65195 -12
    endloop
  endfacet
  facet normal 0.89643 -0.443185 0
    outer loop
      vertex 126.972 4.65195 -15
      vertex 126.798 4.3 -12
      vertex 126.798 4.3 -15
    endloop
  endfacet
  facet normal -0.0662518 0.997803 0
    outer loop
      vertex 5.8 154.2 -15
      vertex 5.40842 154.174 -12
      vertex 5.8 154.2 -12
    endloop
  endfacet
  facet normal -0.0662518 0.997803 0
    outer loop
      vertex 5.40842 154.174 -12
      vertex 5.8 154.2 -15
      vertex 5.40842 154.174 -15
    endloop
  endfacet
  facet normal -0.751799 0.659392 0
    outer loop
      vertex 3.41994 153.026 -15
      vertex 3.67868 153.321 -12
      vertex 3.67868 153.321 -15
    endloop
  endfacet
  facet normal -0.751799 0.659392 0
    outer loop
      vertex 3.67868 153.321 -12
      vertex 3.41994 153.026 -15
      vertex 3.41994 153.026 -12
    endloop
  endfacet
  facet normal -0.555535 0.831493 0
    outer loop
      vertex 4.3 153.798 -15
      vertex 3.97371 153.58 -12
      vertex 4.3 153.798 -12
    endloop
  endfacet
  facet normal -0.555535 0.831493 0
    outer loop
      vertex 3.97371 153.58 -12
      vertex 4.3 153.798 -15
      vertex 3.97371 153.58 -15
    endloop
  endfacet
  facet normal 0 0 -1
    outer loop
      vertex 10.4981 11.4383 -15
      vertex 119.502 11.4383 -15
      vertex 11.4383 10.4981 -15
    endloop
  endfacet
  facet normal 0 0 -1
    outer loop
      vertex 119.502 145.562 -15
      vertex 12.042 147.687 -15
      vertex 12.25 149 -15
    endloop
  endfacet
  facet normal 0 0 -1
    outer loop
      vertex 119.502 11.4383 -15
      vertex 10.4981 11.4383 -15
      vertex 119.502 145.562 -15
    endloop
  endfacet
  facet normal 0 0 -1
    outer loop
      vertex 119.502 145.562 -15
      vertex 11.4383 146.502 -15
      vertex 12.042 147.687 -15
    endloop
  endfacet
  facet normal 0 0 -1
    outer loop
      vertex 10.4981 145.562 -15
      vertex 119.502 145.562 -15
      vertex 10.4981 11.4383 -15
    endloop
  endfacet
  facet normal 0 0 -1
    outer loop
      vertex 119.502 145.562 -15
      vertex 10.4981 145.562 -15
      vertex 11.4383 146.502 -15
    endloop
  endfacet
  facet normal 0 0 -1
    outer loop
      vertex 9.31332 12.042 -15
      vertex 10.4981 145.562 -15
      vertex 10.4981 11.4383 -15
    endloop
  endfacet
  facet normal 0 0 -1
    outer loop
      vertex 9.31332 12.042 -15
      vertex 9.31332 144.958 -15
      vertex 10.4981 145.562 -15
    endloop
  endfacet
  facet normal 0 0 -1
    outer loop
      vertex 8 12.25 -15
      vertex 9.31332 144.958 -15
      vertex 9.31332 12.042 -15
    endloop
  endfacet
  facet normal 0 0 -1
    outer loop
      vertex 8 12.25 -15
      vertex 8 144.75 -15
      vertex 9.31332 144.958 -15
    endloop
  endfacet
  facet normal 0 0 -1
    outer loop
      vertex 6.68668 12.042 -15
      vertex 8 144.75 -15
      vertex 8 12.25 -15
    endloop
  endfacet
  facet normal 0 0 -1
    outer loop
      vertex 6.68668 12.042 -15
      vertex 6.68668 144.958 -15
      vertex 8 144.75 -15
    endloop
  endfacet
  facet normal 0 0 -1
    outer loop
      vertex 5.50191 11.4383 -15
      vertex 6.68668 144.958 -15
      vertex 6.68668 12.042 -15
    endloop
  endfacet
  facet normal 0 0 -1
    outer loop
      vertex 5.50191 11.4383 -15
      vertex 5.50191 145.562 -15
      vertex 6.68668 144.958 -15
    endloop
  endfacet
  facet normal 0 0 -1
    outer loop
      vertex 4.56168 10.4981 -15
      vertex 5.50191 145.562 -15
      vertex 5.50191 11.4383 -15
    endloop
  endfacet
  facet normal 0 0 -1
    outer loop
      vertex 4.56168 10.4981 -15
      vertex 4.56168 146.502 -15
      vertex 5.50191 145.562 -15
    endloop
  endfacet
  facet normal 0 0 -1
    outer loop
      vertex 3.95801 9.31332 -15
      vertex 4.56168 146.502 -15
      vertex 4.56168 10.4981 -15
    endloop
  endfacet
  facet normal 0 0 -1
    outer loop
      vertex 3.95801 9.31332 -15
      vertex 3.95801 147.687 -15
      vertex 4.56168 146.502 -15
    endloop
  endfacet
  facet normal 0 0 -1
    outer loop
      vertex 2.8 5.8 -15
      vertex 3.95801 9.31332 -15
      vertex 3.75 8 -15
    endloop
  endfacet
  facet normal -0 0 -1
    outer loop
      vertex 3.95801 9.31332 -15
      vertex 2.8 5.8 -15
      vertex 3.95801 147.687 -15
    endloop
  endfacet
  facet normal 0 0 -1
    outer loop
      vertex 126.042 147.687 -15
      vertex 127.2 151.2 -15
      vertex 126.042 9.31332 -15
    endloop
  endfacet
  facet normal 0 0 -1
    outer loop
      vertex 127.2 151.2 -15
      vertex 126.042 147.687 -15
      vertex 126.25 149 -15
    endloop
  endfacet
  facet normal 0 0 -1
    outer loop
      vertex 125.438 10.4981 -15
      vertex 126.042 147.687 -15
      vertex 126.042 9.31332 -15
    endloop
  endfacet
  facet normal 0 0 -1
    outer loop
      vertex 125.438 10.4981 -15
      vertex 125.438 146.502 -15
      vertex 126.042 147.687 -15
    endloop
  endfacet
  facet normal 0 0 -1
    outer loop
      vertex 124.498 11.4383 -15
      vertex 125.438 146.502 -15
      vertex 125.438 10.4981 -15
    endloop
  endfacet
  facet normal 0 0 -1
    outer loop
      vertex 124.498 11.4383 -15
      vertex 124.498 145.562 -15
      vertex 125.438 146.502 -15
    endloop
  endfacet
  facet normal 0 0 -1
    outer loop
      vertex 123.313 12.042 -15
      vertex 124.498 145.562 -15
      vertex 124.498 11.4383 -15
    endloop
  endfacet
  facet normal 0 0 -1
    outer loop
      vertex 123.313 12.042 -15
      vertex 123.313 144.958 -15
      vertex 124.498 145.562 -15
    endloop
  endfacet
  facet normal 0 0 -1
    outer loop
      vertex 122 12.25 -15
      vertex 123.313 144.958 -15
      vertex 123.313 12.042 -15
    endloop
  endfacet
  facet normal 0 0 -1
    outer loop
      vertex 122 12.25 -15
      vertex 122 144.75 -15
      vertex 123.313 144.958 -15
    endloop
  endfacet
  facet normal 0 0 -1
    outer loop
      vertex 120.687 12.042 -15
      vertex 122 144.75 -15
      vertex 122 12.25 -15
    endloop
  endfacet
  facet normal 0 0 -1
    outer loop
      vertex 120.687 12.042 -15
      vertex 120.687 144.958 -15
      vertex 122 144.75 -15
    endloop
  endfacet
  facet normal 0 0 -1
    outer loop
      vertex 119.502 11.4383 -15
      vertex 120.687 144.958 -15
      vertex 120.687 12.042 -15
    endloop
  endfacet
  facet normal 0 0 -1
    outer loop
      vertex 119.502 11.4383 -15
      vertex 119.502 145.562 -15
      vertex 120.687 144.958 -15
    endloop
  endfacet
  facet normal 0 0 -1
    outer loop
      vertex 117.958 9.31332 -15
      vertex 12.042 9.31332 -15
      vertex 118.562 10.4981 -15
    endloop
  endfacet
  facet normal 0 0 -1
    outer loop
      vertex 11.4383 10.4981 -15
      vertex 118.562 10.4981 -15
      vertex 12.042 9.31332 -15
    endloop
  endfacet
  facet normal 0 0 -1
    outer loop
      vertex 12.042 9.31332 -15
      vertex 117.958 9.31332 -15
      vertex 12.25 8 -15
    endloop
  endfacet
  facet normal 0 0 -1
    outer loop
      vertex 118.562 10.4981 -15
      vertex 11.4383 10.4981 -15
      vertex 119.502 11.4383 -15
    endloop
  endfacet
  facet normal 0 0 -1
    outer loop
      vertex 12.25 8 -15
      vertex 117.958 9.31332 -15
      vertex 117.75 8 -15
    endloop
  endfacet
  facet normal 0 0 -1
    outer loop
      vertex 119.502 145.562 -15
      vertex 12.25 149 -15
      vertex 118.562 146.502 -15
    endloop
  endfacet
  facet normal 0 0 -1
    outer loop
      vertex 125.438 5.50191 -15
      vertex 127.2 5.8 -15
      vertex 127.174 5.40842 -15
    endloop
  endfacet
  facet normal 0 0 -1
    outer loop
      vertex 126.042 9.31332 -15
      vertex 127.2 5.8 -15
      vertex 126.25 8 -15
    endloop
  endfacet
  facet normal 0 0 -1
    outer loop
      vertex 125.438 5.50191 -15
      vertex 127.174 5.40842 -15
      vertex 127.098 5.02354 -15
    endloop
  endfacet
  facet normal 0 0 -1
    outer loop
      vertex 127.2 5.8 -15
      vertex 126.042 9.31332 -15
      vertex 127.2 151.2 -15
    endloop
  endfacet
  facet normal 0 0 -1
    outer loop
      vertex 125.438 5.50191 -15
      vertex 127.098 5.02354 -15
      vertex 126.972 4.65195 -15
    endloop
  endfacet
  facet normal 0 0 -1
    outer loop
      vertex 126.042 150.313 -15
      vertex 127.2 151.2 -15
      vertex 126.25 149 -15
    endloop
  endfacet
  facet normal 0 0 -1
    outer loop
      vertex 125.438 5.50191 -15
      vertex 126.972 4.65195 -15
      vertex 126.798 4.3 -15
    endloop
  endfacet
  facet normal 0 0 -1
    outer loop
      vertex 125.438 151.498 -15
      vertex 127.2 151.2 -15
      vertex 126.042 150.313 -15
    endloop
  endfacet
  facet normal 0 0 -1
    outer loop
      vertex 125.438 5.50191 -15
      vertex 126.798 4.3 -15
      vertex 126.58 3.97371 -15
    endloop
  endfacet
  facet normal 0 0 -1
    outer loop
      vertex 127.2 151.2 -15
      vertex 125.438 151.498 -15
      vertex 127.174 151.592 -15
    endloop
  endfacet
  facet normal 0 0 -1
    outer loop
      vertex 125.438 5.50191 -15
      vertex 126.58 3.97371 -15
      vertex 126.321 3.67868 -15
    endloop
  endfacet
  facet normal -0 0 -1
    outer loop
      vertex 127.174 151.592 -15
      vertex 125.438 151.498 -15
      vertex 127.098 151.976 -15
    endloop
  endfacet
  facet normal -0 0 -1
    outer loop
      vertex 127.098 151.976 -15
      vertex 125.438 151.498 -15
      vertex 126.972 152.348 -15
    endloop
  endfacet
  facet normal 0 0 -1
    outer loop
      vertex 127.2 5.8 -15
      vertex 126.042 6.68668 -15
      vertex 126.25 8 -15
    endloop
  endfacet
  facet normal 0 0 -1
    outer loop
      vertex 124.498 4.56168 -15
      vertex 126.321 3.67868 -15
      vertex 126.026 3.41994 -15
    endloop
  endfacet
  facet normal 0 0 -1
    outer loop
      vertex 124.498 4.56168 -15
      vertex 126.026 3.41994 -15
      vertex 125.7 3.20192 -15
    endloop
  endfacet
  facet normal -0 0 -1
    outer loop
      vertex 127.2 5.8 -15
      vertex 125.438 5.50191 -15
      vertex 126.042 6.68668 -15
    endloop
  endfacet
  facet normal 0 0 -1
    outer loop
      vertex 124.498 4.56168 -15
      vertex 125.7 3.20192 -15
      vertex 125.348 3.02836 -15
    endloop
  endfacet
  facet normal 0 0 -1
    outer loop
      vertex 124.498 4.56168 -15
      vertex 125.348 3.02836 -15
      vertex 124.976 2.90222 -15
    endloop
  endfacet
  facet normal 0 0 -1
    outer loop
      vertex 124.498 4.56168 -15
      vertex 124.976 2.90222 -15
      vertex 124.592 2.82566 -15
    endloop
  endfacet
  facet normal 0 0 -1
    outer loop
      vertex 126.321 3.67868 -15
      vertex 124.498 4.56168 -15
      vertex 125.438 5.50191 -15
    endloop
  endfacet
  facet normal 0 0 -1
    outer loop
      vertex 124.2 2.8 -15
      vertex 124.498 4.56168 -15
      vertex 124.592 2.82566 -15
    endloop
  endfacet
  facet normal 0 0 -1
    outer loop
      vertex 124.2 2.8 -15
      vertex 123.313 3.95801 -15
      vertex 124.498 4.56168 -15
    endloop
  endfacet
  facet normal 0 0 -1
    outer loop
      vertex 124.2 2.8 -15
      vertex 122 3.75 -15
      vertex 123.313 3.95801 -15
    endloop
  endfacet
  facet normal 0 0 -1
    outer loop
      vertex 124.2 2.8 -15
      vertex 120.687 3.95801 -15
      vertex 122 3.75 -15
    endloop
  endfacet
  facet normal 0 0 -1
    outer loop
      vertex 118.562 146.502 -15
      vertex 12.25 149 -15
      vertex 117.958 147.687 -15
    endloop
  endfacet
  facet normal 0 0 -1
    outer loop
      vertex 117.958 6.68668 -15
      vertex 12.25 8 -15
      vertex 117.75 8 -15
    endloop
  endfacet
  facet normal 0 0 -1
    outer loop
      vertex 12.042 6.68668 -15
      vertex 117.958 6.68668 -15
      vertex 118.562 5.50191 -15
    endloop
  endfacet
  facet normal 0 0 -1
    outer loop
      vertex 11.4383 5.50191 -15
      vertex 118.562 5.50191 -15
      vertex 119.502 4.56168 -15
    endloop
  endfacet
  facet normal 0 0 -1
    outer loop
      vertex 10.4981 4.56168 -15
      vertex 119.502 4.56168 -15
      vertex 120.687 3.95801 -15
    endloop
  endfacet
  facet normal 0 0 -1
    outer loop
      vertex 9.31332 3.95801 -15
      vertex 120.687 3.95801 -15
      vertex 124.2 2.8 -15
    endloop
  endfacet
  facet normal 0 0 -1
    outer loop
      vertex 117.958 6.68668 -15
      vertex 12.042 6.68668 -15
      vertex 12.25 8 -15
    endloop
  endfacet
  facet normal 0 0 -1
    outer loop
      vertex 118.562 5.50191 -15
      vertex 11.4383 5.50191 -15
      vertex 12.042 6.68668 -15
    endloop
  endfacet
  facet normal 0 0 -1
    outer loop
      vertex 119.502 4.56168 -15
      vertex 10.4981 4.56168 -15
      vertex 11.4383 5.50191 -15
    endloop
  endfacet
  facet normal 0 0 -1
    outer loop
      vertex 120.687 3.95801 -15
      vertex 9.31332 3.95801 -15
      vertex 10.4981 4.56168 -15
    endloop
  endfacet
  facet normal 0 0 -1
    outer loop
      vertex 5.8 2.8 -15
      vertex 9.31332 3.95801 -15
      vertex 124.2 2.8 -15
    endloop
  endfacet
  facet normal 0 0 -1
    outer loop
      vertex 9.31332 3.95801 -15
      vertex 5.8 2.8 -15
      vertex 8 3.75 -15
    endloop
  endfacet
  facet normal 0 0 -1
    outer loop
      vertex 5.8 2.8 -15
      vertex 6.68668 3.95801 -15
      vertex 8 3.75 -15
    endloop
  endfacet
  facet normal 0 0 -1
    outer loop
      vertex 5.8 2.8 -15
      vertex 5.50191 4.56168 -15
      vertex 6.68668 3.95801 -15
    endloop
  endfacet
  facet normal 0 0 -1
    outer loop
      vertex 5.40842 2.82566 -15
      vertex 5.50191 4.56168 -15
      vertex 5.8 2.8 -15
    endloop
  endfacet
  facet normal 0 0 -1
    outer loop
      vertex 5.02354 2.90222 -15
      vertex 5.50191 4.56168 -15
      vertex 5.40842 2.82566 -15
    endloop
  endfacet
  facet normal 0 0 -1
    outer loop
      vertex 4.65195 3.02836 -15
      vertex 5.50191 4.56168 -15
      vertex 5.02354 2.90222 -15
    endloop
  endfacet
  facet normal 0 0 -1
    outer loop
      vertex 4.3 3.20192 -15
      vertex 5.50191 4.56168 -15
      vertex 4.65195 3.02836 -15
    endloop
  endfacet
  facet normal 0 0 -1
    outer loop
      vertex 3.97371 3.41994 -15
      vertex 5.50191 4.56168 -15
      vertex 4.3 3.20192 -15
    endloop
  endfacet
  facet normal 0 0 -1
    outer loop
      vertex 3.67868 3.67868 -15
      vertex 5.50191 4.56168 -15
      vertex 3.97371 3.41994 -15
    endloop
  endfacet
  facet normal -0 0 -1
    outer loop
      vertex 5.50191 4.56168 -15
      vertex 3.67868 3.67868 -15
      vertex 4.56168 5.50191 -15
    endloop
  endfacet
  facet normal 0 0 -1
    outer loop
      vertex 3.41994 3.97371 -15
      vertex 4.56168 5.50191 -15
      vertex 3.67868 3.67868 -15
    endloop
  endfacet
  facet normal -0 0 -1
    outer loop
      vertex 3.95801 6.68668 -15
      vertex 2.8 5.8 -15
      vertex 3.75 8 -15
    endloop
  endfacet
  facet normal 0 0 -1
    outer loop
      vertex 3.20192 4.3 -15
      vertex 4.56168 5.50191 -15
      vertex 3.41994 3.97371 -15
    endloop
  endfacet
  facet normal -0 0 -1
    outer loop
      vertex 126.972 152.348 -15
      vertex 125.438 151.498 -15
      vertex 126.798 152.7 -15
    endloop
  endfacet
  facet normal -0 0 -1
    outer loop
      vertex 126.798 152.7 -15
      vertex 125.438 151.498 -15
      vertex 126.58 153.026 -15
    endloop
  endfacet
  facet normal -0 0 -1
    outer loop
      vertex 126.58 153.026 -15
      vertex 125.438 151.498 -15
      vertex 126.321 153.321 -15
    endloop
  endfacet
  facet normal 0 0 -1
    outer loop
      vertex 124.498 152.438 -15
      vertex 126.321 153.321 -15
      vertex 125.438 151.498 -15
    endloop
  endfacet
  facet normal -0 0 -1
    outer loop
      vertex 126.321 153.321 -15
      vertex 124.498 152.438 -15
      vertex 126.026 153.58 -15
    endloop
  endfacet
  facet normal -0 0 -1
    outer loop
      vertex 126.026 153.58 -15
      vertex 124.498 152.438 -15
      vertex 125.7 153.798 -15
    endloop
  endfacet
  facet normal -0 0 -1
    outer loop
      vertex 125.7 153.798 -15
      vertex 124.498 152.438 -15
      vertex 125.348 153.972 -15
    endloop
  endfacet
  facet normal -0 0 -1
    outer loop
      vertex 125.348 153.972 -15
      vertex 124.498 152.438 -15
      vertex 124.976 154.098 -15
    endloop
  endfacet
  facet normal -0 0 -1
    outer loop
      vertex 124.976 154.098 -15
      vertex 124.498 152.438 -15
      vertex 124.592 154.174 -15
    endloop
  endfacet
  facet normal 0 0 -1
    outer loop
      vertex 124.498 152.438 -15
      vertex 124.2 154.2 -15
      vertex 124.592 154.174 -15
    endloop
  endfacet
  facet normal 0 0 -1
    outer loop
      vertex 123.313 153.042 -15
      vertex 124.2 154.2 -15
      vertex 124.498 152.438 -15
    endloop
  endfacet
  facet normal 0 0 -1
    outer loop
      vertex 122 153.25 -15
      vertex 124.2 154.2 -15
      vertex 123.313 153.042 -15
    endloop
  endfacet
  facet normal 0 0 -1
    outer loop
      vertex 120.687 153.042 -15
      vertex 124.2 154.2 -15
      vertex 122 153.25 -15
    endloop
  endfacet
  facet normal 0 0 -1
    outer loop
      vertex 117.958 147.687 -15
      vertex 12.25 149 -15
      vertex 117.75 149 -15
    endloop
  endfacet
  facet normal 0 0 -1
    outer loop
      vertex 117.75 149 -15
      vertex 12.25 149 -15
      vertex 117.958 150.313 -15
    endloop
  endfacet
  facet normal 0 0 -1
    outer loop
      vertex 12.042 150.313 -15
      vertex 117.958 150.313 -15
      vertex 12.25 149 -15
    endloop
  endfacet
  facet normal 0 0 -1
    outer loop
      vertex 117.958 150.313 -15
      vertex 12.042 150.313 -15
      vertex 118.562 151.498 -15
    endloop
  endfacet
  facet normal 0 0 -1
    outer loop
      vertex 11.4383 151.498 -15
      vertex 118.562 151.498 -15
      vertex 12.042 150.313 -15
    endloop
  endfacet
  facet normal 0 0 -1
    outer loop
      vertex 118.562 151.498 -15
      vertex 11.4383 151.498 -15
      vertex 119.502 152.438 -15
    endloop
  endfacet
  facet normal 0 0 -1
    outer loop
      vertex 10.4981 152.438 -15
      vertex 119.502 152.438 -15
      vertex 11.4383 151.498 -15
    endloop
  endfacet
  facet normal 0 0 -1
    outer loop
      vertex 119.502 152.438 -15
      vertex 10.4981 152.438 -15
      vertex 120.687 153.042 -15
    endloop
  endfacet
  facet normal 0 0 -1
    outer loop
      vertex 9.31332 153.042 -15
      vertex 120.687 153.042 -15
      vertex 10.4981 152.438 -15
    endloop
  endfacet
  facet normal 0 0 -1
    outer loop
      vertex 120.687 153.042 -15
      vertex 9.31332 153.042 -15
      vertex 124.2 154.2 -15
    endloop
  endfacet
  facet normal 0 0 -1
    outer loop
      vertex 5.8 154.2 -15
      vertex 9.31332 153.042 -15
      vertex 8 153.25 -15
    endloop
  endfacet
  facet normal 0 0 -1
    outer loop
      vertex 9.31332 153.042 -15
      vertex 5.8 154.2 -15
      vertex 124.2 154.2 -15
    endloop
  endfacet
  facet normal 0 0 -1
    outer loop
      vertex 6.68668 153.042 -15
      vertex 5.8 154.2 -15
      vertex 8 153.25 -15
    endloop
  endfacet
  facet normal 0 0 -1
    outer loop
      vertex 5.50191 152.438 -15
      vertex 5.8 154.2 -15
      vertex 6.68668 153.042 -15
    endloop
  endfacet
  facet normal 0 0 -1
    outer loop
      vertex 5.50191 152.438 -15
      vertex 5.40842 154.174 -15
      vertex 5.8 154.2 -15
    endloop
  endfacet
  facet normal 0 0 -1
    outer loop
      vertex 5.50191 152.438 -15
      vertex 5.02354 154.098 -15
      vertex 5.40842 154.174 -15
    endloop
  endfacet
  facet normal 0 0 -1
    outer loop
      vertex 5.50191 152.438 -15
      vertex 4.65195 153.972 -15
      vertex 5.02354 154.098 -15
    endloop
  endfacet
  facet normal 0 0 -1
    outer loop
      vertex 3.67868 153.321 -15
      vertex 5.50191 152.438 -15
      vertex 4.56168 151.498 -15
    endloop
  endfacet
  facet normal 0 0 -1
    outer loop
      vertex 5.50191 152.438 -15
      vertex 4.3 153.798 -15
      vertex 4.65195 153.972 -15
    endloop
  endfacet
  facet normal 0 0 -1
    outer loop
      vertex 5.50191 152.438 -15
      vertex 3.97371 153.58 -15
      vertex 4.3 153.798 -15
    endloop
  endfacet
  facet normal 0 0 -1
    outer loop
      vertex 2.8 151.2 -15
      vertex 4.56168 151.498 -15
      vertex 3.95801 150.313 -15
    endloop
  endfacet
  facet normal 0 0 -1
    outer loop
      vertex 2.8 151.2 -15
      vertex 3.95801 150.313 -15
      vertex 3.75 149 -15
    endloop
  endfacet
  facet normal 0 0 -1
    outer loop
      vertex 5.50191 152.438 -15
      vertex 3.67868 153.321 -15
      vertex 3.97371 153.58 -15
    endloop
  endfacet
  facet normal 0 0 -1
    outer loop
      vertex 2.8 151.2 -15
      vertex 3.95801 147.687 -15
      vertex 2.8 5.8 -15
    endloop
  endfacet
  facet normal 0 0 -1
    outer loop
      vertex 3.02836 4.65195 -15
      vertex 4.56168 5.50191 -15
      vertex 3.20192 4.3 -15
    endloop
  endfacet
  facet normal 0 0 -1
    outer loop
      vertex 3.95801 147.687 -15
      vertex 2.8 151.2 -15
      vertex 3.75 149 -15
    endloop
  endfacet
  facet normal 0 0 -1
    outer loop
      vertex 2.90222 5.02354 -15
      vertex 4.56168 5.50191 -15
      vertex 3.02836 4.65195 -15
    endloop
  endfacet
  facet normal -0 0 -1
    outer loop
      vertex 4.56168 151.498 -15
      vertex 2.8 151.2 -15
      vertex 2.82566 151.592 -15
    endloop
  endfacet
  facet normal 0 0 -1
    outer loop
      vertex 2.82566 5.40842 -15
      vertex 4.56168 5.50191 -15
      vertex 2.90222 5.02354 -15
    endloop
  endfacet
  facet normal 0 0 -1
    outer loop
      vertex 4.56168 151.498 -15
      vertex 3.41994 153.026 -15
      vertex 3.67868 153.321 -15
    endloop
  endfacet
  facet normal 0 0 -1
    outer loop
      vertex 2.8 5.8 -15
      vertex 4.56168 5.50191 -15
      vertex 2.82566 5.40842 -15
    endloop
  endfacet
  facet normal 0 0 -1
    outer loop
      vertex 4.56168 151.498 -15
      vertex 3.20192 152.7 -15
      vertex 3.41994 153.026 -15
    endloop
  endfacet
  facet normal 0 0 -1
    outer loop
      vertex 4.56168 5.50191 -15
      vertex 2.8 5.8 -15
      vertex 3.95801 6.68668 -15
    endloop
  endfacet
  facet normal 0 0 -1
    outer loop
      vertex 4.56168 151.498 -15
      vertex 3.02836 152.348 -15
      vertex 3.20192 152.7 -15
    endloop
  endfacet
  facet normal 0 0 -1
    outer loop
      vertex 4.56168 151.498 -15
      vertex 2.90222 151.976 -15
      vertex 3.02836 152.348 -15
    endloop
  endfacet
  facet normal 0 0 -1
    outer loop
      vertex 4.56168 151.498 -15
      vertex 2.82566 151.592 -15
      vertex 2.90222 151.976 -15
    endloop
  endfacet
  facet normal 0.896455 0.443134 0
    outer loop
      vertex 126.972 152.348 -12
      vertex 126.798 152.7 -15
      vertex 126.798 152.7 -12
    endloop
  endfacet
  facet normal 0.896455 0.443134 0
    outer loop
      vertex 126.798 152.7 -15
      vertex 126.972 152.348 -12
      vertex 126.972 152.348 -15
    endloop
  endfacet
  facet normal -0.947036 0.321127 0
    outer loop
      vertex 2.90222 151.976 -15
      vertex 3.02836 152.348 -12
      vertex 3.02836 152.348 -15
    endloop
  endfacet
  facet normal -0.947036 0.321127 0
    outer loop
      vertex 3.02836 152.348 -12
      vertex 2.90222 151.976 -15
      vertex 2.90222 151.976 -12
    endloop
  endfacet
  facet normal 0.555877 0.831265 -0
    outer loop
      vertex 126.026 153.58 -15
      vertex 125.7 153.798 -12
      vertex 126.026 153.58 -12
    endloop
  endfacet
  facet normal 0.555877 0.831265 0
    outer loop
      vertex 125.7 153.798 -12
      vertex 126.026 153.58 -15
      vertex 125.7 153.798 -15
    endloop
  endfacet
  facet normal -0.55557 -0.83147 0
    outer loop
      vertex 3.97371 3.41994 -15
      vertex 4.3 3.20192 -12
      vertex 3.97371 3.41994 -12
    endloop
  endfacet
  facet normal -0.55557 -0.83147 -0
    outer loop
      vertex 4.3 3.20192 -12
      vertex 3.97371 3.41994 -15
      vertex 4.3 3.20192 -15
    endloop
  endfacet
  facet normal 0.751471 0.659766 0
    outer loop
      vertex 126.58 153.026 -12
      vertex 126.321 153.321 -15
      vertex 126.321 153.321 -12
    endloop
  endfacet
  facet normal 0.751471 0.659766 0
    outer loop
      vertex 126.321 153.321 -15
      vertex 126.58 153.026 -12
      vertex 126.58 153.026 -15
    endloop
  endfacet
  facet normal -0.83147 -0.55557 0
    outer loop
      vertex 3.41994 3.97371 -15
      vertex 3.20192 4.3 -12
      vertex 3.20192 4.3 -15
    endloop
  endfacet
  facet normal -0.83147 -0.55557 0
    outer loop
      vertex 3.20192 4.3 -12
      vertex 3.41994 3.97371 -15
      vertex 3.41994 3.97371 -12
    endloop
  endfacet
  facet normal -0.946928 -0.321444 0
    outer loop
      vertex 3.02836 4.65195 -15
      vertex 2.90222 5.02354 -12
      vertex 2.90222 5.02354 -15
    endloop
  endfacet
  facet normal -0.946928 -0.321444 0
    outer loop
      vertex 2.90222 5.02354 -12
      vertex 3.02836 4.65195 -15
      vertex 3.02836 4.65195 -12
    endloop
  endfacet
  facet normal 0.443134 0.896455 -0
    outer loop
      vertex 125.7 153.798 -15
      vertex 125.348 153.972 -12
      vertex 125.7 153.798 -12
    endloop
  endfacet
  facet normal 0.443134 0.896455 0
    outer loop
      vertex 125.348 153.972 -12
      vertex 125.7 153.798 -15
      vertex 125.348 153.972 -15
    endloop
  endfacet
  facet normal -0.442283 -0.896875 0
    outer loop
      vertex 4.3 3.20192 -15
      vertex 4.65195 3.02836 -12
      vertex 4.3 3.20192 -12
    endloop
  endfacet
  facet normal -0.442283 -0.896875 -0
    outer loop
      vertex 4.65195 3.02836 -12
      vertex 4.3 3.20192 -15
      vertex 4.65195 3.02836 -15
    endloop
  endfacet
endsolid OpenSCAD_Model
